<?xml version="1.0" standalone="no"?>
<!DOCTYPE svg PUBLIC "-//W3C//DTD SVG 1.1//EN" "http://www.w3.org/Graphics/SVG/1.1/DTD/svg11.dtd" >
<svg>
<metadata>
Created by FontForge 20090914 at Wed Aug 10 18:49:16 2022
 By www-data
Copyright (c) 2019 Walter E Stewart, SIL Open Font License (OFL).
</metadata>
<defs>
<font id="CookbookTitle" horiz-adv-x="1641" >
  <font-face 
    font-family="Cookbook Title"
    font-weight="500"
    font-stretch="normal"
    units-per-em="2048"
    panose-1="2 10 6 0 3 0 0 0 0 0"
    ascent="1638"
    descent="-410"
    x-height="979.998"
    cap-height="1475"
    bbox="-82 -697 2254 1920"
    underline-thickness="77"
    underline-position="-16"
    unicode-range="U+000D-U+2154"
  />
<missing-glyph horiz-adv-x="1086" 
d="M102 205h615v1067h-615v-268v-799zM0 1375h819v-1273h-411h-408v1273z" />
    <glyph glyph-name=".notdef" horiz-adv-x="1086" 
d="M102 205h615v1067h-615v-268v-799zM0 1375h819v-1273h-411h-408v1273z" />
    <glyph glyph-name=".null" horiz-adv-x="0" 
 />
    <glyph glyph-name=".null" horiz-adv-x="0" 
 />
    <glyph glyph-name="nonmarkingreturn" unicode="&#xd;" horiz-adv-x="0" 
 />
    <glyph glyph-name="space" unicode=" " horiz-adv-x="492" 
 />
    <glyph glyph-name="exclam" unicode="!" horiz-adv-x="520" 
d="M216 452c-14.667 6.66699 -25.332 17.6689 -31.999 33.002s-15.334 49.666 -26.001 102.999c-6 28 -12 75.333 -18 142c-6.66699 66 -13 138.333 -19 217l-8 126c-2.66699 42 -5 82.667 -7 122c-3.33301 73.333 -5.66602 137 -6.99902 191v34c0 34 1 55.333 3 64
c9.33301 32.667 26.333 56.334 51 71.001c25.333 14.667 61.666 22 108.999 22s83.666 -7.33301 108.999 -22c24.667 -14.667 41.667 -38.334 51 -71.001c2 -8.66699 3 -29 3 -61v-37c-1.33301 -53.333 -3.66602 -116.666 -6.99902 -189.999
c-2 -38.667 -4.33301 -79.334 -7 -122.001l-8 -126c-6 -78.667 -12 -151.334 -18 -218.001c-6.66699 -66 -12.667 -113.333 -18 -142c-7.33301 -36 -14 -63.667 -20 -83c-5.33301 -19.333 -11 -32 -17 -38c-9.33301 -8.66699 -27 -15 -53 -19c-10 -0.666992 -19 -1 -27 -1
c-14 0 -25.333 1.66699 -34 5zM152.002 13.002c-36 11.333 -60.999 31 -74.999 59c-10 20 -15 47 -15 81v7c0 10.667 0.333008 21.667 1 33c4 53.333 19.333 89 46 107c26.667 18.667 77.667 28 153 28c53.333 0 92.666 -4 117.999 -12c26 -7.33301 46 -21.333 60 -42
c8.66699 -11.333 14 -23.333 16 -36c2 -12 3 -35.667 3 -71c0 -46.667 -4 -79 -12 -97c-8.66699 -18 -27 -34 -55 -48c-22 -11.333 -60.333 -18 -115 -20h-11h-18c-40.667 0 -72.667 3.66699 -96 11z" />
    <glyph glyph-name="quotedbl" unicode="&#x22;" horiz-adv-x="902" 
d="M631 1004c-4.66699 2 -9.66699 5.00098 -15 9.00098c-5.33301 3.33301 -9.66602 7 -12.999 11c-3.33301 4.66699 -9.66602 26 -18.999 64c-8.66699 38 -17.667 81.333 -27 130c-12 58.667 -22.333 116 -31 172c-8 46.667 -12 77 -12 91
c0 3.33301 0.333008 5.66602 1 6.99902c3.33301 20.667 15 40.334 35 59.001s43.333 32 70 40c27.333 8 46.333 12 57 12c11.333 0 30.666 -4 57.999 -12c26.667 -8 49.667 -21.333 69 -40c20 -18.667 32 -38.334 36 -59.001c0.666992 -2.66699 1 -6 1 -10
c0 -13.333 -2.33301 -35.333 -7 -66c-6 -40.667 -14 -85.667 -24 -135c-11.333 -60 -23.333 -116.667 -36 -170c-13.333 -53.333 -23 -83 -29 -89c-8.66699 -8.66699 -26.334 -14.667 -53.001 -18c-10 -1.33301 -19 -2 -27 -2c-14 0 -25.333 2 -34 6zM178 1004
c-4.66699 2 -9.66699 5.00098 -15 9.00098c-5.33301 3.33301 -9.33301 7 -12 11c-4.66699 5.33301 -13 35 -25 89s-23.667 110.667 -35 170c-8.66699 49.333 -16 94 -22 134c-5.33301 31.333 -8 52.666 -8 63.999c0 3.33301 0.333008 5.66602 1 6.99902
c4 21.333 16 41.333 36 60s44.333 32 73 40c19.333 5.33301 38.333 8.33301 57 9c28 0 55 -6.33301 81 -19c43.333 -20 69.333 -50.667 78 -92c0.666992 -2.66699 1 -6 1 -10c0 -16 -3.66699 -46.333 -11 -91c-9.33301 -56 -20.333 -113.667 -33 -173
c-10 -48.667 -20 -92 -30 -130c-9.33301 -37.333 -16.666 -58.666 -21.999 -63.999c-8.66699 -8.66699 -26.334 -14.667 -53.001 -18c-10 -1.33301 -19 -2 -27 -2c-14 0 -25.333 2 -34 6z" />
    <glyph glyph-name="numbersign" unicode="#" horiz-adv-x="1530" 
d="M820 660c7.33301 9.33301 17.333 48.333 30 117c9.33301 50 14 83.333 14 100c0 6 -0.666992 9.66699 -2 11c-5.33301 5.33301 -30.333 8 -75 8c-44 0 -68.667 -2.66699 -74 -8c-2.66699 -2.66699 -7 -15.334 -13 -38.001s-12.333 -48.667 -19 -78
c-9.33301 -46 -14.666 -76 -15.999 -90c-0.666992 -3.33301 -1 -6 -1 -8c0.666992 -9.33301 3 -15 7 -17c7.33301 -5.33301 24.666 -8 51.999 -8h10h16c42 0.666992 65.667 4.33398 71 11.001zM322 174c-9.33301 9.33301 -14.9971 18.332 -16.9971 26.999
c-2.66699 9.33301 -4 26.333 -4 51c0 16 1.33301 34.667 4 56c2 22 4.66699 40.667 8 56c6.66699 30.667 8 51 4 61c-3.33301 9.33301 -14.666 14 -33.999 14c-6.66699 0 -21.334 2 -44.001 6c-22.667 4.66699 -46.667 10 -72 16c-48.667 11.333 -82 22.666 -100 33.999
c-17.333 12 -26 28.333 -26 49s8.66699 37 26 49c18 11.333 51.333 22.666 100 33.999c25.333 6 52 11 80 15c27.333 4.66699 47.666 7 60.999 7c16 0 29 1 39 3c10.667 2 17.334 4.66699 20.001 8c6.66699 8 16.667 46.667 30 116c10 51.333 15 85 15 101
c0 5.33301 -0.666992 8.66602 -2 9.99902c-2 2 -10 4.33301 -24 7c-14.667 2.66699 -31 5 -49 7c-32.667 3.33301 -68.334 9 -107.001 17c-38.667 8.66699 -69 17.334 -91 26.001c-20.667 8 -33 23 -37 45c-4.66699 22.667 1 41.667 17 57
c12.667 13.333 45.334 26.333 98.001 39s105.667 20.667 159 24c18 1.33301 44.667 3 80 5l22 42c33.333 63.333 63 115 89 155c26.667 39.333 47 62.666 61 69.999c16.667 8.66699 36.334 13 59.001 13h16c30 -2.66699 50.333 -10.667 61 -24
c9.33301 -12 14.333 -35.333 15 -70v-7c0 -32 -4.33301 -68 -13 -108c-3.33301 -17.333 -5.66602 -32.666 -6.99902 -45.999c-0.666992 -12.667 0 -20 2 -22s10.333 -3.66699 25 -5c15.333 -0.666992 32.666 -0.666992 51.999 0c16 0.666992 39.667 1.33398 71 2.00098
l22 42c33.333 63.333 63 115 89 155c26.667 39.333 47 62.666 61 69.999c17.333 8.66699 37.666 13 60.999 13h14c29.333 -2.66699 49.333 -10.667 60 -24c10 -12 15.333 -35 16 -69v-7c0 -32.667 -4.33301 -69 -13 -109c-3.33301 -16 -5.66602 -30.667 -6.99902 -44
c-2 -13.333 -2.33301 -21 -1 -23s4.66602 -4 9.99902 -6c5.33301 -1.33301 11.333 -2 18 -2c14.667 0 52 -7 112 -21c60 -13.333 95.667 -23 107 -29c20 -10.667 30.333 -29.667 31 -57v-3c-0.666992 -25.333 -10.334 -42.666 -29.001 -51.999
c-18 -9.33301 -48.333 -18.666 -91 -27.999s-84 -16 -124 -20c-20 -2 -38 -4.33301 -54 -7s-25 -5 -27 -7s-6 -14 -12 -36l-18 -78c-10 -48.667 -15 -81.334 -15 -98.001c0 -4.66699 0.333008 -8 1 -10c3.33301 -10 21.666 -15 54.999 -15c10.667 0 29 -2.33301 55 -7
c26 -4 51.667 -9 77 -15c49.333 -11.333 82.666 -22.666 99.999 -33.999c17.333 -12 26 -28.333 26 -49s-8.66699 -37 -26 -49c-17.333 -11.333 -50.666 -22.666 -99.999 -33.999c-28 -6.66699 -56 -12 -84 -16c-28.667 -4 -52.334 -6 -71.001 -6c-26 0 -44 -1 -54 -3
s-18.667 -6.66699 -26 -14c-4 -4.66699 -7.66699 -9.33398 -11 -14.001c-3.33301 -5.33301 -5 -9 -5 -11c0 -3.33301 -5 -14.333 -15 -33l-36 -62c-16.667 -28 -33.667 -55 -51 -81c-16.667 -26 -27.667 -41.333 -33 -46c-6 -5.33301 -14.667 -9.66602 -26 -12.999
s-26.333 -5.33301 -45 -6c-10.667 -0.666992 -19.667 -1.33398 -27 -2.00098c-9.33301 0 -16.333 0.666992 -21 2c-8 2 -17 8 -27 18c-9.33301 9.33301 -15.333 18.333 -18 27c-2 9.33301 -3 26.333 -3 51c0 16 1.33301 34.667 4 56c2 22 4.66699 40.667 8 56
c4 18.667 6 33.334 6 44.001c0 10 -1.66699 16.667 -5 20c-6.66699 7.33301 -29.667 11 -69 11c-25.333 0 -43 -1 -53 -3s-18.333 -6.66699 -25 -14c-4.66699 -4.66699 -8.66699 -9.33398 -12 -14.001c-3.33301 -5.33301 -5 -9 -5 -11c0 -3.33301 -5 -14.333 -15 -33
l-36 -62l-50 -81c-17.333 -26 -28.333 -41.333 -33 -46c-6.66699 -5.33301 -15.667 -9.66602 -27 -12.999s-26.333 -5.33301 -45 -6c-24 -2 -40 -2 -48 0s-17 8 -27 18z" />
    <glyph glyph-name="dollar" unicode="$" horiz-adv-x="1183" 
d="M443 1009c-1.33301 26.667 -2.99805 43.668 -4.99805 51.001c-2.66699 6.66699 -7.66699 10.667 -15 12h-5c-12 0 -26 -6 -42 -18c-18.667 -14 -29 -27.333 -31 -40v-4c0 -12.667 7.66699 -26 23 -40c17.333 -14.667 34.666 -22 51.999 -22h25
c-0.666992 13.333 -1.33398 33.666 -2.00098 60.999zM813.002 567.001c9.33301 8 16.001 15.3311 20.001 21.998c2.66699 5.33301 4 11 4 17v5c-1.33301 12.667 -9.33301 24.667 -24 36c-14 10.667 -29.333 16.667 -46 18
c-5.33301 0.666992 -13.666 1.33398 -24.999 2.00098c-0.666992 -13.333 -1.33398 -33.666 -2.00098 -60.999l-3 -61h25c7.33301 0 15.666 2 24.999 6c10 4.66699 18.667 10 26 16zM296.003 8.99902c-20.667 8 -25.333 20.6592 -14 37.9922
c11.333 16.667 43 44.334 95 83.001c15.333 11.333 29 22 41 32c11.333 9.33301 18 15.333 20 18c1.33301 2.66699 2.66602 10.334 3.99902 23.001s2 26.667 2 42v56l-65 22l-69 23c-28 9.33301 -53 17.333 -75 24c-26 8.66699 -47.667 17.334 -65 26.001
c-17.333 8 -29.666 16 -36.999 24c-16 15.333 -24 31.666 -24 48.999c-0.666992 17.333 6.66602 33.333 21.999 48c4.66699 5.33301 11.667 12.666 21 21.999l144 -3c24 -0.666992 72 -1.66699 144 -3v92c0 52.667 -2.66699 82 -8 88c-6 6.66699 -36.667 16.334 -92 29.001
c-101.333 22.667 -177 64.334 -227 125.001c-34.667 42 -52 87.333 -52 136c0 21.333 3.33301 43.333 10 66c14.667 51.333 48.334 96 101.001 134c53.333 38 118.666 64.667 195.999 80c16 2.66699 40 7.33398 72 14.001c0.666992 10 1.33398 25 2.00098 45
c0.666992 12.667 0.666992 24.334 0 35.001s-2 17.334 -4 20.001c-1.33301 2 -8 8 -20 18s-25.667 20.333 -41 31c-52.667 40 -84.334 68.333 -95.001 85c-11.333 16.667 -6 29.334 16 38.001c16 6 42.667 9 80 9c10 0 21 -0.333008 33 -1c54.667 -2 97.334 -8 128.001 -18
c12.667 -4.66699 31.334 -11 56.001 -19c12.667 4 31.667 10.333 57 19c21.333 6.66699 42 11.334 62 14.001s45.333 4 76 4c83.333 0 125 -9.33301 125 -28c0 -18 -37.667 -55 -113 -111l-65 -48l3 -42c0 -9.33301 0.666992 -23.333 2 -42l147 -49
c40.667 -14 77 -27.333 109 -40c31.333 -12.667 49.333 -21.334 54 -26.001c6 -6 10.333 -13.333 13 -22s4 -19.667 4 -33c0 -31.333 -8.33301 -49.666 -25 -54.999c-13.333 -4.66699 -45.666 -7 -96.999 -7c-17.333 0 -36.666 0.333008 -57.999 1l-147 3
c-0.666992 -20 -1.33398 -50 -2.00098 -90v-31c0 -32 1.66699 -50.333 5 -55c5.33301 -6 32.666 -14.333 81.999 -25c114 -23.333 197.333 -71 250 -143c30 -41.333 45 -84 45 -128c0 -32.667 -8.33301 -66 -25 -100c-22.667 -45.333 -62 -83.666 -118 -114.999
s-126 -54 -210 -68c-6.66699 -0.666992 -17 -2.33398 -31 -5.00098v-66v-65l65 -49c74.667 -55.333 112 -92 112 -110c0 -18.667 -41.667 -28 -125 -28h-1h-2c-29.333 0 -53.666 1.33301 -72.999 4c-20 2.66699 -40.667 7.33398 -62 14.001c-12.667 4 -31.667 10.333 -57 19
c-12.667 -4 -31.334 -10.333 -56.001 -19c-22 -6.66699 -43 -11.334 -63 -14.001c-15.333 -2 -35 -3 -59 -3h-19c-22.667 0 -44.334 0.666992 -65.001 2c-20 2 -32.333 4 -37 6z" />
    <glyph glyph-name="percent" unicode="%" horiz-adv-x="1594" 
d="M448 1170c12 11.333 18.333 23.333 19 36v2c0 11.333 -5.33301 22.666 -16 33.999c-11.333 12 -23.333 18 -36 18c-12 0 -24.333 -6 -37 -18c-12 -11.333 -18 -22.666 -18 -33.999v-2c0 -11.333 5.66699 -23 17 -35s23 -18 35 -18h2c10.667 0 22 5.66699 34 17zM317 942
c-29.333 6 -61.3291 18.665 -95.9961 37.998c-35.333 18.667 -63 38.334 -83 59.001c-26.667 26 -46 52.667 -58 80c-12.667 26.667 -19 55.667 -19 87c0.666992 50 16 95.333 46 136c30.667 40 75 74 133 102c31.333 14.667 54.333 23.334 69 26.001
c14.667 3.33301 46.667 5 96 5c48 0 79.333 -1.33301 94 -4c15.333 -2.66699 36.666 -10.667 63.999 -24c53.333 -25.333 94.666 -53.666 123.999 -84.999c28.667 -32 48 -70 58 -114c3.33301 -14 5 -28 5 -42c0 -42.667 -14.333 -84.667 -43 -126
c-38 -54.667 -92.333 -95.334 -163 -122.001c-26.667 -10 -64 -16.667 -112 -20c-16.667 -1.33301 -32.334 -2 -47.001 -2c-26.667 0 -49.334 2 -68.001 6zM296.004 158.998c-4 4 -6.33301 8.99902 -7 14.999c0 4.66699 1.66699 10 5 16
c7.33301 12.667 32.333 43.334 75 92.001c27.333 31.333 52 64 74 98c22 33.333 52 84 90 152l111 200l133 239l149 269l83 41c41.333 20.667 69.333 33 84 37c15.333 4 45.333 6.66699 90 8c20 0.666992 36.333 1 49 1s22 -0.333008 28 -1
c13.333 -1.33301 23.333 -5 30 -11c6 -6 9 -12.333 9 -19c0 -4.66699 -1.33301 -9.66699 -4 -15c-7.33301 -12.667 -31.333 -42 -72 -88c-16.667 -18 -31 -35 -43 -51c-12 -15.333 -30.667 -44 -56 -86l-37 -65l-50 -87l-98 -177l-140 -250l-135 -244
c-19.333 -9.33301 -48 -24 -86 -44l-87 -44h-91c-35.333 0 -60.333 1 -75 3c-14 2 -23.667 5.66699 -29 11zM1225 229.997c13.333 10 20.666 21.667 21.999 35v4c0 12 -5 24 -15 36s-21.667 18.333 -35 19c-7.33301 0 -15 -1.66699 -23 -5c-23.333 -10 -35 -27.333 -35 -52
c0 -10 6.33301 -21.667 19 -35c13.333 -13.333 25 -20 35 -20c2.66699 0 7.33398 2 14.001 6c6 3.33301 12 7.33301 18 12zM1099 6.99707c-56.667 12.667 -107.332 36.3369 -151.999 71.0039s-75.334 75 -92.001 121c-11.333 29.333 -17 54.333 -17 75
c0 17.333 5 39.666 15 66.999c15.333 39.333 38 73 68 101c30.667 28 65.334 50 104.001 66c50.667 21.333 104 32 160 32c25.333 0 51 -2.33301 77 -7c85.333 -13.333 154.666 -51 207.999 -113c16 -18.667 30.333 -43.334 43 -74.001c13.333 -30.667 20 -55.667 20 -75
c0 -6.66699 -2 -17 -6 -31c-3.33301 -14.667 -7.33301 -28.334 -12 -41.001c-17.333 -46.667 -48.333 -87.334 -93 -122.001c-45.333 -34.667 -97 -58 -155 -70c-34.667 -7.33301 -62.667 -11 -84 -11c-22 0 -50 3.66699 -84 11z" />
    <glyph glyph-name="ampersand" unicode="&#x26;" horiz-adv-x="1353" 
d="M460 1025c9.33301 21.333 19.001 51.6689 29.001 91.002s15 66.333 15 81c0 15.333 -6 29.666 -18 42.999c-12 14 -24.667 21 -38 21c-10.667 0 -22.334 -6 -35.001 -18c-12 -12 -19.667 -24.667 -23 -38c-0.666992 -2.66699 -1 -6.66699 -1 -12
c0 -6.66699 0.333008 -15.334 1 -26.001c2 -20.667 4.66699 -42.667 8 -66c10 -62 19.333 -98.333 28 -109c2 -2.66699 4.33301 -4 7 -4c8 0.666992 17 13 27 37zM610.001 230.003c29.333 14 44 27.666 44 40.999c0 2 -0.333008 4 -1 6c-5.33301 14.667 -39.333 57 -102 127
l-87 94c-26.667 28 -43 44.333 -49 49c-10.667 8.66699 -18 13.334 -22 14.001c-3.33301 0 -7.33301 -3 -12 -9c-2.66699 -4 -5.66699 -11.333 -9 -22c-2.66699 -10.667 -5 -21.667 -7 -33c-1.33301 -10 -2 -20 -2 -30c0 -40 10.333 -82 31 -126
c25.333 -55.333 57 -92.333 95 -111c22.667 -11.333 43 -17 61 -17c17.333 0 37.333 5.66699 60 17zM462.001 7.00195c-34.667 8 -71.9961 22.0029 -111.996 42.0029c-40.667 20 -74 41.333 -100 64c-48 41.333 -88 94.333 -120 159
c-31.333 65.333 -47.333 126.666 -48 183.999v1c0 43.333 10.333 94 31 152c20.667 58.667 46 108 76 148c6 8 11 16 15 24c4 8.66699 6 15 6 19c0 3.33301 -2.66699 13.333 -8 30c-6 16 -13 33.333 -21 52c-13.333 31.333 -26.333 70 -39 116c-12 46.667 -25 107 -39 181
c-2.66699 13.333 -4 26.666 -4 39.999c0 39.333 11.667 76.333 35 111c30.667 46 80.334 85 149.001 117c27.333 13.333 48.666 21.333 63.999 24c14.667 2.66699 46 4 94 4c49.333 0 81.333 -1.33301 96 -4c14 -3.33301 36.667 -12.333 68 -27
c61.333 -30 106.666 -64.667 135.999 -104c28.667 -39.333 43 -84.333 43 -135c0 -54.667 -15.333 -120.667 -46 -198c-28.667 -74 -65 -140.333 -109 -199c-10.667 -15.333 -27.334 -38 -50.001 -68l73 -79c20 -22 38 -40.667 54 -56c15.333 -16 24 -24 26 -24
s5 3.33301 9 10s7.66699 14.334 11 23.001c8 20.667 19.333 36 34 46s44.334 23.333 89.001 40c54 19.333 103.333 33.666 148 42.999c45.333 9.33301 89 14 131 14h7c66 0 99 -9 99 -27c0 -19.333 -36.333 -56.333 -109 -111c-54 -40.667 -88.667 -70 -104 -88
s-23 -38.333 -23 -61c0 -8 -1.66699 -21 -5 -39c-3.33301 -18.667 -7.33301 -37.334 -12 -56.001c-4.66699 -18 -8.33398 -35.333 -11.001 -52c-2.66699 -16 -3.33398 -26.333 -2.00098 -31s5.33301 -11.667 12 -21c7.33301 -10 15.666 -19.333 24.999 -28
c14 -13.333 28 -23.333 42 -30c13.333 -6 38 -13.333 74 -22c58.667 -14.667 98.667 -26.667 120 -36c21.333 -8.66699 35 -19 41 -31c2.66699 -6.66699 4 -13.667 4 -21v-4c0 -4 -0.666992 -8 -2 -12c-3.33301 -13.333 -10.333 -24.333 -21 -33
c-3.33301 -2.66699 -16.333 -7.66699 -39 -15s-48.334 -14.333 -77.001 -21c-48 -12 -79.667 -18.667 -95 -20c-15.333 -2 -34.666 -0.333008 -57.999 5c-13.333 2.66699 -32 8.66699 -56 18c-23.333 9.33301 -45 19 -65 29l-72 37l-67 -34
c-34 -17.333 -71.333 -31.333 -112 -42c-39.333 -10.667 -72.333 -16 -99 -16h-3c-8 0 -20.333 1.33301 -37 4z" />
    <glyph glyph-name="quotesingle" unicode="'" horiz-adv-x="449" 
d="M178 1004c-4.66699 2 -9.66602 5.00098 -14.999 9.00098c-5.33301 3.33301 -9.33301 7 -12 11c-4 4.66699 -10.333 26 -19 64c-9.33301 38 -18.666 81.333 -27.999 130c-12 58.667 -22.333 116 -31 172c-8 46.667 -12 77 -12 91c0 3.33301 0.333008 5.66602 1 6.99902
c4 20.667 16 40.334 36 59.001c19.333 18.667 42.333 32 69 40c27.333 8 46.666 12 57.999 12c10.667 0 29.667 -4 57 -12c26.667 -8 50 -21.333 70 -40c19.333 -18.667 31 -38.334 35 -59.001c0.666992 -2.66699 1 -6 1 -10c0 -13.333 -2.33301 -35.333 -7 -66
c-6 -40.667 -13.667 -85.667 -23 -135c-12 -60 -24.333 -116.667 -37 -170c-13.333 -53.333 -23 -83 -29 -89c-8.66699 -8.66699 -26.334 -14.667 -53.001 -18c-10 -1.33301 -19 -2 -27 -2c-14 0 -25.333 2 -34 6z" />
    <glyph glyph-name="parenleft" unicode="(" horiz-adv-x="961" 
d="M565 -269c-114 24.667 -213.669 88.3359 -299.002 191.003c-84.667 102.667 -142 229 -172 379c-4 23.333 -7.33301 82.666 -10 177.999c-1.33301 78 -2 158.667 -2 242v55c0.666992 84.667 2 161.667 4 231s4.66699 113.333 8 132
c24.667 123.333 68.667 231.666 132 324.999c62.667 92.667 138 160.667 226 204c30 14.667 65 27.334 105 38.001s73.667 16 101 16c19.333 0 62 -8.33301 128 -25c66 -16 103.333 -27.667 112 -35c14.667 -12 22 -26.667 22 -44v-9
c-2.66699 -21.333 -13.667 -36.333 -33 -45c-11.333 -5.33301 -44 -14.666 -98 -27.999c-54 -14 -93.667 -23 -119 -27c-38.667 -6.66699 -68.667 -15.334 -90 -26.001c-22 -10.667 -45 -29 -69 -55c-26.667 -27.333 -50.334 -61.333 -71.001 -102
c-20.667 -40 -38.334 -86.333 -53.001 -139c-6.66699 -22 -11 -44 -13 -66c-2.66699 -22.667 -4.33398 -69.667 -5.00098 -141c-0.666992 -30.667 -1 -67.334 -1 -110.001v-150v-150c0 -42.667 0.333008 -79.334 1 -110.001c0.666992 -71.333 2.33398 -118 5.00098 -140
c2 -22.667 6.33301 -45 13 -67c14.667 -52.667 32.334 -99 53.001 -139c20.667 -40.667 44.334 -74.667 71.001 -102c24 -25.333 47 -43.666 69 -54.999c21.333 -10.667 51.333 -19.334 90 -26.001c25.333 -4 65 -12.667 119 -26c54 -14 86.667 -23.667 98 -29
c19.333 -8.66699 30.333 -23.667 33 -45v-7c0 -18 -7.33301 -33.333 -22 -46c-9.33301 -7.33301 -47 -19.333 -113 -36c-64.667 -15.333 -107.667 -23 -129 -23h-2c-9.33301 0 -22.666 1 -39.999 3c-17.333 2.66699 -33.666 5.66699 -48.999 9z" />
    <glyph glyph-name="parenright" unicode=")" horiz-adv-x="960" 
d="M171 -257c-26 6.66699 -49.665 13.334 -70.998 20.001c-20.667 7.33301 -33 12.333 -37 15c-14.667 12.667 -22 28 -22 46v7c2.66699 21.333 13.667 36.333 33 45c12 5.33301 44.667 15 98 29c54 13.333 93.667 22 119 26c38.667 6.66699 68.667 15.334 90 26.001
c22 11.333 45 29.333 69 54c26.667 28.667 50.334 63 71.001 103c20.667 39.333 38.334 84.666 53.001 135.999c6.66699 23.333 11.334 46 14.001 68c2 22 3.33301 68.667 4 140c0.666992 30 1 66.333 1 109v153v153c0 42.667 -0.333008 79 -1 109
c-0.666992 71.333 -2 118 -4 140c-2.66699 22 -7.33398 44.667 -14.001 68c-14.667 51.333 -32.334 97 -53.001 137s-44.334 74 -71.001 102c-24 25.333 -47 43.333 -69 54c-21.333 10.667 -51.333 19.334 -90 26.001c-25.333 4 -65 13 -119 27
c-53.333 13.333 -86 22.666 -98 27.999c-19.333 8.66699 -30.333 23.667 -33 45v9c0 17.333 7.33301 32 22 44c8.66699 7.33301 46 19 112 35c66 16.667 108.667 25 128 25c49.333 0 104 -12 164 -36c59.333 -24 109.666 -54 150.999 -90
c47.333 -41.333 86.333 -84 117 -128c30 -44 57.667 -98 83 -162c20 -50.667 34.333 -94.334 43 -131.001c8 -36 13 -94 15 -174c1.33301 -34 2 -74 2 -120v-161v-147c0 -41.333 -0.333008 -77 -1 -107c-0.666992 -54.667 -2 -94.334 -4 -119.001
c-2 -24 -5.33301 -46.333 -10 -67c-31.333 -144 -89.333 -265.667 -174 -365c-85.333 -99.333 -184.333 -160.666 -297 -183.999c-34.667 -7.33301 -64.334 -11 -89.001 -11h-11c-26 1.33301 -66.333 9 -121 23z" />
    <glyph glyph-name="asterisk" unicode="*" horiz-adv-x="1180" 
d="M529 237c-4 3.33301 -10.6689 15.666 -20.002 36.999c-9.33301 22 -18.666 46.667 -27.999 74c-13.333 40 -22.333 70.667 -27 92c-4.66699 22 -7 44.667 -7 68c0 16.667 -0.333008 31.334 -1 44.001s-1.66699 19.667 -3 21s-14 -1.66699 -38 -9s-52 -16.666 -84 -27.999
c-74.667 -26 -128.667 -40 -162 -42h-9c-29.333 0 -51.666 9.33301 -66.999 28c-13.333 15.333 -20 30 -20 44c0 6.66699 1.66699 13.334 5 20.001c10 18.667 46.333 56.334 109 113.001c30.667 27.333 56.667 51.666 78 72.999c22 21.333 33 33.333 33 36
s-10.667 14.334 -32 35.001s-47 44.334 -77 71.001c-33.333 28.667 -60.333 53.667 -81 75c-20.667 20.667 -31.667 34.334 -33 41.001c-4 14 -1 30.667 9 50c9.33301 18.667 20.666 30.667 33.999 36c12.667 4.66699 26.334 7 41.001 7c8 0 16.667 -0.666992 26 -2
c25.333 -4.66699 69.666 -17.667 132.999 -39l90 -29c26 -8.66699 40 -13 42 -13s3.66699 6.33301 5 19c1.33301 12 2 26.667 2 44c0 38.667 9.33301 89.334 28 152.001s36 102 52 118c14.667 14 35.667 21 63 21s48 -7 62 -21c16.667 -16 34.334 -55.333 53.001 -118
s28 -113.334 28 -152.001c0 -17.333 0.666992 -32 2 -44c1.33301 -12.667 3 -19 5 -19s16 4.33301 42 13l90 29c63.333 21.333 107.666 34.333 132.999 39c8.66699 1.33301 17.334 2 26.001 2c15.333 0 29 -2.33301 41 -7c13.333 -5.33301 24.666 -17.333 33.999 -36
c10 -19.333 13 -36 9 -50c-1.33301 -6.66699 -12.333 -20.334 -33 -41.001c-21.333 -21.333 -48.333 -46.333 -81 -75c-30 -26.667 -55.667 -50.334 -77 -71.001s-32 -32.334 -32 -35.001s11 -14.667 33 -36c21.333 -21.333 47.333 -45.666 78 -72.999
c62.667 -56.667 99 -94.334 109 -113.001c3.33301 -6.66699 5 -13.334 5 -20.001c0 -14 -6.66699 -28.667 -20 -44c-16 -18.667 -38.333 -28 -67 -28h-9c-33.333 2 -87.333 16 -162 42c-32 11.333 -60 20.666 -84 27.999s-36.667 10.333 -38 9s-2.33301 -8.33301 -3 -21
s-1 -27.334 -1 -44.001c0 -23.333 -2.33301 -46 -7 -68c-4.66699 -21.333 -13.667 -52 -27 -92c-9.33301 -27.333 -18.666 -52 -27.999 -74c-9.33301 -21.333 -16 -33.666 -20 -36.999c-4 -2.66699 -12 -5 -24 -7s-24.333 -3 -37 -3s-25 1 -37 3s-20 4.33301 -24 7z" />
    <glyph glyph-name="plus" unicode="+" horiz-adv-x="1103" 
d="M489 393c-6 6 -13.332 19.332 -21.999 39.999c-9.33301 20.667 -18.666 45 -27.999 73c-12 37.333 -20 66.666 -24 87.999s-6 45 -6 71v67c-6 0.666992 -14.667 2.33398 -26 5.00098c-7.33301 1.33301 -19 2.66602 -35 3.99902c-16 0.666992 -31.667 1 -47 1
c-26.667 0 -64 4.66699 -112 14s-84.667 19 -110 29c-20.667 8.66699 -33 24 -37 46c-0.666992 4 -1 8.33301 -1 13v2c0 16 6.33301 30 19 42c12.667 13.333 45.667 26.333 99 39s107.333 20.667 162 24c18.667 1.33301 46.667 3 84 5c1.33301 17.333 3 44 5 80
c2 30 5.66699 57 11 81c4.66699 24 13 52.667 25 86c8 24.667 16.667 46.667 26 66c8.66699 19.333 14.667 30.333 18 33c9.33301 6.66699 30 10 62 10c31.333 0 51.666 -3.33301 60.999 -10c4 -2.66699 10.333 -13.667 19 -33s17.334 -41.333 26.001 -66
c11.333 -33.333 19.666 -62 24.999 -86c4.66699 -24 8 -51 10 -81c1.33301 -18 3 -44.667 5 -80c18.667 -1.33301 46.667 -3 84 -5c55.333 -3.33301 109.666 -11.333 162.999 -24c52.667 -12.667 85.667 -25.667 99 -39c12.667 -12.667 19 -27.334 19 -44.001
c0 -4.66699 -0.666992 -9 -2 -13c-4 -22 -16.333 -37.333 -37 -46c-24 -9.33301 -60 -18.666 -108 -27.999c-48 -10 -84 -15 -108 -15c-14 0 -29 -0.666992 -45 -2c-16 -0.666992 -28.333 -1.66699 -37 -3l-32 -6v-66c0 -26 -2 -49.667 -6 -71s-12 -50.666 -24 -87.999
c-18.667 -57.333 -34.667 -93.666 -48 -108.999c-12.667 -16 -34 -24 -64 -24c-17.333 0 -30 1.33301 -38 4c-8.66699 2.66699 -17 8 -25 16z" />
    <glyph glyph-name="comma" unicode="," horiz-adv-x="562" 
d="M79 -273c-6 6 -10.6689 13.333 -14.002 22c-2.66699 8.66699 -4 19.334 -4 32.001c0 29.333 4.66699 51 14 65c8.66699 14 29 31.333 61 52c48.667 32 73 55.333 73 70s-18.667 28 -56 40c-36.667 12.667 -61.667 32.334 -75 59.001c-10.667 22 -16 52.333 -16 91
c0 10 0.333008 20.333 1 31c4 53.333 19.667 89 47 107c26.667 18 78.334 27 155.001 27c64 0 108 -5.66699 132 -17s45.667 -36.333 65 -75c18 -36.667 29.667 -70 35 -100c2 -14.667 3 -31.667 3 -51s-1.33301 -41.333 -4 -66c-6 -59.333 -19.333 -112.333 -40 -159
s-44 -76.334 -70 -89.001c-8 -3.33301 -25.333 -8 -52 -14s-55 -11.333 -85 -16c-29.333 -4.66699 -57 -9.33398 -83 -14.001c-25.333 -4 -41 -6.66699 -47 -8c-3.33301 -0.666992 -6.66602 -1 -9.99902 -1c-4 0 -8 0.666992 -12 2c-6 2 -12 6 -18 12z" />
    <glyph glyph-name="hyphen" unicode="-" horiz-adv-x="1101" 
d="M161 712c-21.333 5.33301 -41.001 11 -59.001 17c-18.667 5.33301 -30.334 9.33301 -35.001 12c-11.333 6 -19.333 18.667 -24 38c-1.33301 7.33301 -2 14.333 -2 21c0 10 2 18.667 6 26c6.66699 12.667 18 22.334 34 29.001s49 15.667 99 27
c30 6.66699 56 11.334 78 14.001c22.667 2.66699 59.667 4.33398 111 5.00098c22 0.666992 47.667 1 77 1h105h104c29.333 0 55 -0.333008 77 -1c51.333 -0.666992 88.333 -2.33398 111 -5.00098c22 -2.66699 48 -7.33398 78 -14.001l69 -17
c20.667 -6 33.334 -10.333 38.001 -13c12.667 -6.66699 21.667 -16.334 27 -29.001c3.33301 -8 5 -16.667 5 -26c0 -5.33301 -0.666992 -11 -2 -17c-3.33301 -18 -12.666 -31 -27.999 -39c-15.333 -8.66699 -48.333 -19 -99 -31c-24.667 -5.33301 -48.667 -9.33301 -72 -12
c-22.667 -2.66699 -61.667 -4.33398 -117 -5.00098h-85h-29h-83h-113c-32.667 0.666992 -61 1 -85 1c-55.333 0.666992 -94 2.33398 -116 5.00098s-45.333 7 -70 13z" />
    <glyph glyph-name="period" unicode="." horiz-adv-x="521" 
d="M152 14c-36 11.333 -60.999 30.667 -74.999 58c-10 20 -15 47.333 -15 82v7c0 10 0.333008 21 1 33c4 53.333 19.333 89 46 107s77.667 27 153 27c53.333 0 92.666 -3.66699 117.999 -11c26 -8 46 -22 60 -42c8.66699 -12 14 -24 16 -36c2 -12.667 3 -36.667 3 -72
c0 -46.667 -4 -79 -12 -97c-8.66699 -18 -27 -34 -55 -48c-22 -10.667 -60.333 -17 -115 -19c-10 -0.666992 -19.667 -1 -29 -1c-40.667 0 -72.667 4 -96 12z" />
    <glyph glyph-name="slash" unicode="/" horiz-adv-x="1404" 
d="M64 -141c-14.667 6 -22 13.9971 -22 23.9971c0 4 1 8.33301 3 13c8 16.667 38.667 55 92 115c12 14 32 43.333 60 88c27.333 44.667 70 118.334 128 221.001l110 196l146 261l110 199l100 179l141 250c36.667 64.667 56 98.334 58 101.001c4 4 15 11.333 33 22
c18.667 10.667 39 21.334 61 32.001c39.333 19.333 66.333 30.666 81 33.999c14 3.33301 43.667 5 89 5h6c36.667 0 60.334 -0.666992 71.001 -2c12 -2 20.333 -6.66699 25 -14c4 -4.66699 6 -9.66699 6 -15v-2c0 -4.66699 -1.33301 -9.66699 -4 -15
c-6.66699 -11.333 -30.667 -40 -72 -86c-20.667 -23.333 -41.667 -51.333 -63 -84c-22 -32.667 -61.667 -99.667 -119 -201l-115 -205l-166 -298l-111 -199l-99 -178l-141 -251c-36.667 -64 -56.334 -97.667 -59.001 -101c-3.33301 -4 -14 -11.333 -32 -22
c-18.667 -10.667 -39 -21 -61 -31c-36.667 -18 -63 -29 -79 -33s-42.667 -6.66699 -80 -8c-10 -0.666992 -20 -1 -30 -1c-10.667 0 -21 0.333008 -31 1c-19.333 0.666992 -31.333 2.33398 -36 5.00098z" />
    <glyph glyph-name="zero" unicode="0" horiz-adv-x="1087" 
d="M592 244c17.333 16.667 35.334 44.333 54.001 83c18 38.667 33.333 81.334 46 128.001c10.667 38 17 70.667 19 98s3.33301 87 4 179v19c0 30.667 -0.333008 58 -1 82c-0.666992 28.667 -1.66699 54.667 -3 78c-2.66699 42 -8 78.333 -16 109
c-7.33301 30.667 -19 66.334 -35 107.001c-22.667 58.667 -48.334 98 -77.001 118c-13.333 10 -27 15 -41 15c-14.667 0 -29.334 -5.66699 -44.001 -17c-12 -9.33301 -27.667 -32 -47 -68c-19.333 -35.333 -34.333 -69.666 -45 -102.999c-13.333 -41.333 -23 -89 -29 -143
c-6.66699 -54 -10 -116.333 -10 -187c0 -94.667 6 -175.334 18 -242.001s31.333 -126.334 58 -179.001c24.667 -48.667 49.334 -79.334 74.001 -92.001c9.33301 -4.66699 18.333 -7 27 -7c16 0 32 7.33301 48 22zM442.001 12.999
c-50.667 17.333 -96.6709 46.335 -138.004 87.002c-42 40 -78.333 88.333 -109 145c-56.667 104.667 -92.667 230 -108 376c-4 40 -6 79.667 -6 119c0 106.667 14.667 213 44 319c4.66699 17.333 13 41 25 71c12 29.333 23.667 56 35 80c18 36 33.667 64 47 84
c14 19.333 34 42 60 68c20.667 20.667 40.334 38.667 59.001 54c19.333 14.667 37.333 26 54 34c22.667 11.333 41.334 18.333 56.001 21s42 4 82 4c41.333 0 69.333 -1.66699 84 -5c14 -2.66699 34 -10.334 60 -23.001c42 -20 82 -51.333 120 -94
s70.333 -91.334 97 -146.001c36 -75.333 61.667 -149 77 -221s23 -153.667 23 -245c0 -182 -34 -340.667 -102 -476c-68 -136 -156.333 -220.667 -265 -254c-33.333 -10 -64.666 -15.333 -93.999 -16c-1.33301 0 -2.66602 0.333008 -3.99902 1c-30.667 0 -63 5.66699 -97 17
z" />
    <glyph glyph-name="one" unicode="1" horiz-adv-x="876" 
d="M215 3c-20.667 8.66699 -25 21.668 -13 39.001c12.667 18 47.667 48.333 105 91l65 48c0 118.667 -0.666992 296.667 -2 534c-0.666992 118 -1.33398 295.667 -2.00098 533l-147 -3h-47c-58 0 -94 2 -108 6c-16.667 6 -25 24 -25 54c0 12.667 1.33301 23.667 4 33
s6.66699 16.666 12 21.999c4.66699 5.33301 21.334 14 50.001 26c29.333 12 65.666 25.333 108.999 40c71.333 24 117.333 38 138 42c20.667 4.66699 54.667 7 102 7c54 0 93.333 -4 118 -12s45.334 -23.333 62.001 -46c6 -8 10 -23 12 -45
c2.66699 -22 4.33398 -85 5.00098 -189c0.666992 -45.333 1 -100.333 1 -165c0.666992 -64 1 -141 1 -231l3 -606l64 -49c74 -54 111.667 -90.333 113 -109v-1l-1 -1c-1.33301 -18 -43 -27 -125 -27h-2c-30 0 -54.667 1.33301 -74 4c-20 2.66699 -40.667 7.66699 -62 15
l-58 18l-51 -18c-20.667 -7.33301 -40.334 -12.333 -59.001 -15c-18.667 -2 -45.667 -3 -81 -3c-24 0 -46.667 1 -68 3c-20.667 1.33301 -33.667 3 -39 5z" />
    <glyph glyph-name="two" unicode="2" horiz-adv-x="1141" 
d="M165 5c-29.333 8.66699 -50.333 18.0029 -63 28.0029c-12 10 -22 25.667 -30 47c-7.33301 18.667 -11 41.334 -11 68.001c0 26 3.33301 56 10 90c14 68.667 36.667 127 68 175c18.667 29.333 37 53.666 55 72.999c18.667 20 54.334 51 107.001 93l81 63l111 85
c49.333 37.333 84.333 69.666 105 96.999s36 61 46 101c6 25.333 9.33301 45 10 59c0 14 -2 33.333 -6 58c-10 57.333 -29.333 107.666 -58 150.999c-28.667 42.667 -57.334 64 -86.001 64c-17.333 0 -34.333 -4.33301 -51 -13c-16 -9.33301 -32.333 -23.333 -49 -42
c-26.667 -30.667 -42 -56 -46 -76c-0.666992 -6 -1 -13.667 -1 -23c0 -25.333 3 -64.666 9 -117.999c6.66699 -60 10 -104.667 10 -134v-8c-0.666992 -29.333 -5.66699 -49.333 -15 -60c-6.66699 -8.66699 -27.334 -13 -62.001 -13h-8c-40 1.33301 -66 6.66602 -78 15.999
c-7.33301 6 -20.666 24.333 -39.999 55c-20 30.667 -39 62 -57 94l-32 60c-9.33301 18 -15 31.333 -17 40c-3.33301 13.333 -5 27 -5 41c0 30 7.33301 63 22 99c21.333 52.667 56 104.334 104 155.001c32 33.333 66.333 61 103 83c37.333 21.333 79 38 125 50
c31.333 8 59.333 12 84 12s52.667 -4.33301 84 -13c37.333 -9.33301 71 -23.333 101 -42c29.333 -18 61.333 -44.333 96 -79c67.333 -66.667 112.666 -143.334 135.999 -230.001c10.667 -40.667 16 -80.667 16 -120c0 -45.333 -7 -89.666 -21 -132.999
c-14.667 -44.667 -33.334 -84 -56.001 -118c-23.333 -34 -64 -76.333 -122 -127l-112 -93l-158 -122c-30 -23.333 -54.333 -49 -73 -77s-29 -54.333 -31 -79c-0.666992 -6 -1.66699 -15.667 -3 -29c46 -0.666992 115 -1.33398 207 -2.00098
c46 -0.666992 115 -1.33398 207 -2.00098l76 96c41.333 52.667 71 84 89 94c12 7.33301 29.667 11 53 11c10 0 21 -0.666992 33 -2c33.333 -4 52 -15.333 56 -34c0.666992 -3.33301 1 -7.33301 1 -12c0 -23.333 -7.33301 -64.333 -22 -123
c-23.333 -94 -42.666 -155.333 -57.999 -184s-39 -47 -71 -55c-12 -2.66699 -50 -5 -114 -7c-56 -1.33301 -131.667 -2 -227 -2h-15h-23c-140 0.666992 -234.667 1.66699 -284 3c-49.333 2 -82.666 5.66699 -99.999 11z" />
    <glyph glyph-name="three" unicode="3" horiz-adv-x="1148" 
d="M428 2c-34.667 8 -72.3389 22.001 -113.006 42.001c-40 20 -73.333 41.333 -100 64c-44 38 -82 87.333 -114 148c-26.667 50 -40 91.333 -40 124c0 6.66699 0.666992 12.667 2 18c3.33301 21.333 14.333 48.666 33 81.999c18 33.333 33.667 55 47 65
c6 4.66699 26.667 11 62 19s72 15.333 110 22c26 4.66699 50 8.33398 72 11.001c22.667 3.33301 39.667 5 51 5c14.667 0 25 -5.66699 31 -17c6 -12 9 -31.667 9 -59c0 -19.333 -1.66699 -33 -5 -41c-2.66699 -8 -10 -17.667 -22 -29c-8 -7.33301 -18.333 -16.333 -31 -27
l-36 -26c-11.333 -8 -20.666 -15.667 -27.999 -23c-8 -8 -12 -13.667 -12 -17s3.33301 -11.333 10 -24c7.33301 -12.667 16 -26 26 -40c40.667 -59.333 84 -89 130 -89h4c46.667 2 86.667 35.333 120 100c21.333 42 35.333 93.333 42 154c2 20 3 38.667 3 56
c0 35.333 -4.33301 65.666 -13 90.999c-8 24.667 -22 50.334 -42 77.001s-38.333 44 -55 52c-7.33301 4 -23.666 9.66699 -48.999 17c-25.333 8 -52.333 15.333 -81 22c-63.333 15.333 -102.666 28.333 -117.999 39s-23 30 -23 58c0 18 2 32 6 42c4 10.667 23 36.667 57 78
l41 48l55 65l79 97c22 28 32.333 43.333 31 46c-1.33301 5.33301 -30.666 8.66602 -87.999 9.99902h-32c-38 0 -61 -2 -69 -6c-4.66699 -2.66699 -15 -12.667 -31 -30c-16 -18 -32.667 -38.333 -50 -61l-49 -60c-15.333 -18 -24.666 -28.667 -27.999 -32
c-4 -2.66699 -13 -5 -27 -7c-13.333 -2 -29.333 -3 -48 -3c-50 0 -77 12.333 -81 37c-0.666992 3.33301 -1 7.33301 -1 12c0 31.333 13.667 95.333 41 192c18 65.333 34.333 108.666 49 129.999c14.667 22 54 34.667 118 38c20.667 1.33301 45.334 2 74.001 2h101
c94.667 0 158.667 -1 192 -3c33.333 -1.33301 57.333 -5 72 -11c16 -6 28 -9 36 -9s21 3 39 9c10 3.33301 26.667 6.33301 50 9c23.333 2 49 3.33301 77 4c20 1.33301 39.667 2 59 2c20.667 0 41 -0.666992 61 -2c38.667 -1.33301 60.334 -4.33301 65.001 -9
c6 -6 9 -12.667 9 -20c0 -8.66699 -4.33301 -18 -13 -28c-15.333 -18.667 -54.333 -51 -117 -97c-26.667 -20 -52.667 -43.333 -78 -70c-24.667 -26.667 -61.334 -70 -110.001 -130l-86 -109c-24.667 -31.333 -37.334 -48.333 -38.001 -51
c-0.666992 -3.33301 4 -8.66602 14 -15.999s22.333 -15 37 -23c53.333 -28.667 100 -67.334 140 -116.001s69.667 -103.334 89 -164.001c10 -30 16 -53.333 18 -70c1.33301 -8 2 -18.333 2 -31c0 -13.333 -0.666992 -28.666 -2 -45.999
c-7.33301 -122.667 -45.666 -230 -114.999 -322c-69.333 -91.333 -155.333 -147.666 -258 -168.999c-34 -7.33301 -60.667 -11 -80 -11c-18.667 0 -45.667 3.66699 -81 11z" />
    <glyph glyph-name="four" unicode="4" horiz-adv-x="1152" 
d="M437 -1c-21.333 8.66699 -25.665 21.998 -12.998 39.998c12.667 17.333 47.667 47.333 105 90l65 48v175c0 87.333 -0.666992 138.666 -2 153.999c-2 14.667 -7.66699 23 -17 25c-5.33301 1.33301 -29 2.66602 -71 3.99902c-42.667 1.33301 -91 2.33301 -145 3
c-88.667 0.666992 -145.667 2 -171 4c-24.667 2 -44.334 7 -59.001 15c-26 13.333 -43.667 28.333 -53 45c-10 17.333 -15 42.333 -15 75c0 12.667 0.333008 31.334 1 56.001l187 335l137 242c39.333 68.667 60.666 105.334 63.999 110.001c14.667 16.667 36.667 29 66 37
c28.667 8.66699 69.667 14 123 16c22.667 0.666992 42.334 1 59.001 1c14.667 0 27 -0.333008 37 -1c20.667 -1.33301 46.334 -6 77.001 -14c57.333 -14.667 93.666 -30.334 108.999 -47.001c14.667 -16.667 32 -59.334 52 -128.001c12 -43.333 18 -73.666 18 -90.999
c0 -6 -0.666992 -10.333 -2 -13c-6 -10 -35.333 -15 -88 -15c-42 0 -70.333 2.66699 -85 8c-14.667 6 -39.667 24 -75 54c-18.667 15.333 -36 25.333 -52 30c-16.667 4.66699 -28.667 3 -36 -5c-5.33301 -5.33301 -20 -29.666 -44 -72.999l-80 -143l-98 -186
c-29.333 -55.333 -44 -85.666 -44 -90.999c0 -4.66699 7.33301 -8.33398 22 -11.001c12 -1.33301 36.667 -2 74 -2c24.667 0 46.667 0.666992 66 2c19.333 0.666992 30.333 2 33 4c2.66699 1.33301 5.33398 7 8.00098 17c2.66699 9.33301 4.66699 19.666 6 30.999
c3.33301 26 13.666 60.333 30.999 103s32 69 44 79c11.333 10 31.333 15 60 15h6c26 0 45 -4.33301 57 -13c13.333 -9.33301 30 -36 50 -80c19.333 -44.667 30.666 -80.667 33.999 -108c1.33301 -10.667 3 -26 5 -46l97 -24c55.333 -13.333 92 -26.333 110 -39
c14.667 -10 22 -23.667 22 -41c0 -4 -0.666992 -8.33301 -2 -13c-1.33301 -7.33301 -3.66602 -14.666 -6.99902 -21.999s-6.66602 -12.333 -9.99902 -15c-3.33301 -3.33301 -15.666 -9 -36.999 -17c-22 -7.33301 -46.667 -14.333 -74 -21l-99 -26
c-0.666992 -39.333 -1.33398 -98.333 -2.00098 -177c-0.666992 -39.333 -1.33398 -98.333 -2.00098 -177c14 -11.333 35.667 -27.666 65 -48.999c74.667 -55.333 112 -92.333 112 -111c0 -18 -41.667 -27 -125 -27h-3c-29.333 0 -53.666 1.33301 -72.999 4
c-20 2.66699 -41 7.33398 -63 14.001c-12.667 4 -31.667 10.333 -57 19l-52 -19c-20.667 -7.33301 -40.334 -12 -59.001 -14c-18 -2.66699 -44.667 -4 -80 -4c-24.667 0 -47.334 1 -68.001 3c-21.333 1.33301 -34.333 3 -39 5z" />
    <glyph glyph-name="five" unicode="5" horiz-adv-x="1056" 
d="M428 7c-34.667 8 -72.3311 21.9951 -112.998 41.9951c-40 20 -73.333 41.333 -100 64c-44 38 -82 87.333 -114 148c-26.667 50 -40 91.333 -40 124c0 6.66699 0.666992 12.667 2 18c3.33301 21.333 14.333 48.666 33 81.999c18 33.333 33.667 55 47 65
c6 4.66699 26.667 11 62 19s72 15.333 110 22c26 4.66699 50 8.33398 72 11.001c22.667 3.33301 39.667 5 51 5c14.667 0 25 -6 31 -18c6 -11.333 9 -30.666 9 -57.999c0 -19.333 -1.66699 -33 -5 -41c-2.66699 -8 -10 -17.667 -22 -29c-8 -7.33301 -18.333 -16.333 -31 -27
l-36 -26c-11.333 -8 -20.666 -15.667 -27.999 -23c-8 -8 -12 -13.667 -12 -17s3.33301 -11.333 10 -24c7.33301 -12.667 16 -26 26 -40c40 -58.667 81.667 -88 125 -88h4c45.333 2 84.333 35 117 99c14.667 29.333 25.667 61 33 95c7.33301 34.667 11.333 69.334 12 104.001
v6c0 63.333 -10.333 123 -31 179c-21.333 57.333 -51.666 97.333 -90.999 120c-4.66699 2.66699 -22.334 5.33398 -53.001 8.00098s-68.667 4.66699 -114 6c-66 2 -109.667 4 -131 6c-21.333 2.66699 -39.333 8 -54 16c-30.667 16 -51.334 42 -62.001 78
c-5.33301 17.333 -8 36 -8 56c0 21.333 3 44.333 9 69c3.33301 14.667 10 36.334 20 65.001l33 91c18 48.667 36 94.667 54 138s29.667 68 35 74c5.33301 5.33301 13.333 11.333 24 18c11.333 6.66699 22.333 12 33 16s24.667 7 42 9s48.666 3.66699 93.999 5h90
c34.667 0.666992 76.667 1 126 1c50.667 0 93.667 -0.333008 129 -1h88c44 -0.666992 72 -2 84 -4c11.333 -2.66699 18.666 -6 21.999 -10c3.33301 -5.33301 5 -10.333 5 -15s-1.66699 -9.33398 -5 -14.001c-6 -9.33301 -25.667 -28 -59 -56
c-34 -27.333 -67 -51.666 -99 -72.999l-49 -33h-146c-64 0 -105 -0.666992 -123 -2c-18 -2 -30.333 -6.33301 -37 -13c-8 -8 -23.667 -42.333 -47 -103c-19.333 -51.333 -29 -82.333 -29 -93c0 -2 0.333008 -3.33301 1 -4s10 -2.66699 28 -6s39 -6.66602 63 -9.99902
c86 -12 151.667 -29.667 197 -53s87.333 -61 126 -113c40.667 -54.667 70 -109.667 88 -165c18 -56 27 -118.667 27 -188c0 -36.667 -1.33301 -65.667 -4 -87s-7.66699 -44.333 -15 -69c-30 -96.667 -77.333 -177 -142 -241s-139 -103.667 -223 -119
c-28.667 -4.66699 -50 -7 -64 -7h-3c-14 0 -38 3.66699 -72 11z" />
    <glyph glyph-name="six" unicode="6" horiz-adv-x="1058" 
d="M612 243c17.333 16.667 34.332 41.667 50.999 75c17.333 34 29.333 67 36 99c4.66699 22.667 7 50 7 82c0 16.667 -0.666992 34.334 -2 53.001c-3.33301 55.333 -10.666 98.666 -21.999 129.999c-17.333 49.333 -38.333 86.666 -63 111.999
c-25.333 24.667 -53.666 37 -84.999 37c-46 0 -84.667 -26.333 -116 -79c-32 -52.667 -49.667 -120.667 -53 -204c-0.666992 -10.667 -1 -21 -1 -31c0 -54 6.66699 -103.333 20 -148c16 -52.667 40 -94 72 -124c18 -16.667 32 -27 42 -31c6 -2 15 -3.33301 27 -4
c6 0 13 0.333008 21 1c13.333 1.33301 24.666 4.33301 33.999 9c10 4.66699 20.667 12.334 32 23.001zM448.999 3c-79.333 16.667 -149.667 56.6641 -211 119.997c-62 63.333 -107.667 142 -137 236c-6.66699 20.667 -11.334 39.334 -14.001 56.001s-4.33398 45 -5.00098 85
v59v28v53v15v65c0.666992 23.333 1 44 1 62c1.33301 40.667 3.33301 72.334 6 95.001c3.33301 22 9 50.667 17 86c20 92 45.333 169.667 76 233c31.333 63.333 70.333 118.666 117 165.999c52 52 104.333 85.667 157 101c26.667 7.33301 55.667 11 87 11
c32 0 66.333 -3.66699 103 -11c53.333 -11.333 96 -30 128 -56c31.333 -26 63 -68 95 -126c17.333 -32 27 -58 29 -78c2 -19.333 -3.66699 -32.666 -17 -39.999c-5.33301 -2.66699 -16.333 -4.66699 -33 -6c-16.667 -0.666992 -36 -0.666992 -58 0
c-34.667 1.33301 -57.334 3.33301 -68.001 6c-10 3.33301 -22.667 11.333 -38 24c-43.333 36.667 -78 59 -104 67c-9.33301 3.33301 -18.333 5 -27 5c-16 0 -31.333 -5.33301 -46 -16c-13.333 -10 -32.333 -38.667 -57 -86c-25.333 -46.667 -38.666 -79.334 -39.999 -98.001
c-0.666992 -10 0 -16.667 2 -20c2 -2.66699 6.33301 -3.66699 13 -3c38.667 5.33301 74.667 8 108 8c46.667 0 87.334 -5.33301 122.001 -16c60 -18 119.333 -56.333 178 -115c53.333 -53.333 92 -111.666 116 -174.999c24.667 -62.667 37.334 -136 38.001 -220v-5
c0 -36.667 -1.33301 -65 -4 -85c-2.66699 -20.667 -8 -43.667 -16 -69c-30 -97.333 -77.333 -177.666 -142 -240.999c-64.667 -64 -139 -103.667 -223 -119c-28.667 -5.33301 -52 -8 -70 -8h-5c-19.333 0.666992 -45.333 4.66699 -78 12z" />
    <glyph glyph-name="seven" unicode="7" horiz-adv-x="1213" 
d="M347 8c-22 7.33301 -38.6709 11.666 -50.0039 12.999c-10.667 0.666992 -27.667 -1 -51 -5c-14.667 -2.66699 -32 -5 -52 -7s-37 -3 -51 -3c-22.667 0 -37.667 1.33301 -45 4c-7.33301 2 -13.666 7.33301 -18.999 16c-5.33301 7.33301 -8.33301 14 -9 20
s0.333008 12.667 3 20c4 9.33301 11 19.333 21 30c10.667 10.667 32.334 29.667 65.001 57c8.66699 7.33301 15 17 19 29c4 11.333 8 33 12 65c7.33301 54 18.333 108.333 33 163c15.333 54.667 32.333 102.334 51 143.001c8.66699 19.333 33.334 66.333 74.001 141l132 242
l136 249c18.667 37.333 28 60 28 68c0 2 -0.333008 3.33301 -1 4c-4 2.66699 -21.667 4.66699 -53 6c-31.333 0.666992 -64 1 -98 1c-28 -0.666992 -53.333 -1.66699 -76 -3s-36 -3 -40 -5c-4.66699 -2.66699 -14.667 -12.667 -30 -30c-16 -18 -33 -38.333 -51 -61l-49 -60
c-15.333 -18 -25 -28.333 -29 -31c-3.33301 -3.33301 -12 -6 -26 -8s-29.667 -3 -47 -3c-50 0 -77 12.333 -81 37c-0.666992 3.33301 -1 7 -1 11c0 30.667 13.667 95.334 41 194.001c18 65.333 34 108 48 128c13.333 20.667 54.666 32.667 123.999 36
c22.667 1.33301 49.667 2 81 2c31.333 0.666992 68.333 1 111 1c59.333 0.666992 108.333 1 147 1s66.667 -0.333008 84 -1c35.333 -1.33301 61 -5 77 -11c16.667 -6.66699 29 -10 37 -10s21 3 39 9c10 3.33301 26.667 6.33301 50 9c23.333 2 49 3.33301 77 4
c20 1.33301 39.667 2 59 2c20.667 0 41 -0.666992 61 -2c38.667 -1.33301 60.334 -4.33301 65.001 -9c6 -6 9 -12.667 9 -20c0 -8.66699 -4.33301 -18 -13 -28c-15.333 -18 -56.666 -52.667 -123.999 -104l-84 -63l-160 -288l-127 -229l-84 -147
c-34 -56.667 -58.667 -108.334 -74 -155.001c-14.667 -46.667 -25.667 -105.667 -33 -177l-6 -51l99 -75c40 -30 66.667 -51.333 80 -64c14 -13.333 21.333 -24.666 22 -33.999c2 -16.667 -6.66699 -27.334 -26 -32.001c-18.667 -4.66699 -59 -7 -121 -7h-2h-7
c-47.333 0 -81.333 1 -102 3c-21.333 2.66699 -42.333 7.66699 -63 15z" />
    <glyph glyph-name="eight" unicode="8" horiz-adv-x="1055" 
d="M580 978c26.667 28 48.999 67.333 66.999 118c12 33.333 18 60 18 80c0 10.667 -1.66699 19.667 -5 27c-12.667 28 -44.334 46.333 -95.001 55c-15.333 2.66699 -30 4 -44 4c-31.333 0 -59 -7 -83 -21c-22 -12.667 -36 -25.334 -42 -38.001
c-3.33301 -7.33301 -5 -16.666 -5 -27.999c0 -9.33301 1 -19.666 3 -30.999c8.66699 -46.667 27.334 -91.334 56.001 -134.001c28.667 -42 54.334 -63 77.001 -63c7.33301 0 15.333 2.66699 24 8c9.33301 5.33301 19 13 29 23zM574.999 226
c40.667 20 73.666 59.002 98.999 117.002c18 41.333 27 80.666 27 117.999c0 15.333 -1.66699 30.666 -5 45.999c-6.66699 34.667 -18 68 -34 100c-15.333 32.667 -32.666 58.334 -51.999 77.001c-15.333 14.667 -27.333 23.667 -36 27c-8 3.33301 -23.667 5 -47 5
c-22.667 0 -38.334 -1.66699 -47.001 -5c-8 -3.33301 -19.667 -12.333 -35 -27c-19.333 -18.667 -37 -44.334 -53 -77.001c-15.333 -32 -26.666 -65.333 -33.999 -100c-2.66699 -14.667 -4 -29.667 -4 -45c0 -38 8.66699 -77.333 26 -118c25.333 -58 58.333 -97 99 -117
c22 -11.333 38 -17 48 -17c9.33301 0 25.333 5.33301 48 16zM451.998 4.00195c-34.667 7.33301 -72.3291 20.9971 -112.996 40.9971c-40 20 -73.333 41.333 -100 64c-47.333 41.333 -87 94.666 -119 159.999c-32 64.667 -48 125.667 -48 183v2
c0 52.667 13 110.334 39 173.001c26.667 64 60.667 119.667 102 167l47 52l-41 52c-23.333 31.333 -43.333 64.666 -60 99.999s-31.334 76.333 -44.001 123c-8.66699 32.667 -13 54 -13 64c-0.666992 10.667 2.33301 26.334 9 47.001c18.667 55.333 51.667 102.333 99 141
s107.666 67.334 180.999 86.001c40.667 10.667 84 16 130 16c20.667 0 41.667 -1 63 -3c70 -6.66699 130 -22.667 180 -48c46.667 -23.333 84.667 -51 114 -83c30 -31.333 51.667 -67.666 65 -108.999c6.66699 -20.667 10 -36.334 10 -47.001
c-0.666992 -10 -5.33398 -31.333 -14.001 -64c-12.667 -46.667 -27 -87.667 -43 -123c-16.667 -35.333 -37 -68.666 -61 -99.999l-40 -52c10 -12 25.333 -29.333 46 -52c42 -47.333 76.333 -103 103 -167c26 -62.667 39 -120.334 39 -173.001v-2
c-0.666992 -57.333 -16.667 -118.333 -48 -183c-32 -65.333 -72 -118.666 -120 -159.999c-26.667 -23.333 -60.334 -44.666 -101.001 -63.999c-40.667 -20 -79 -34 -115 -42c-32.667 -6.66699 -56 -10 -70 -10h-4c-14 0 -38.333 3.66699 -73 11z" />
    <glyph glyph-name="nine" unicode="9" horiz-adv-x="1201" 
d="M581 657c18 9.33301 35.6641 27.3311 52.9971 53.998c18 26.667 32 56.334 42 89.001c12.667 40 19.334 91 20.001 153v8c0 58.667 -6 105.334 -18 140.001c-9.33301 28.667 -22.333 56.667 -39 84c-17.333 26.667 -34.333 46 -51 58
c-15.333 11.333 -35.666 17 -60.999 17s-45.666 -5.66699 -60.999 -17c-16.667 -12 -33.667 -31.333 -51 -58c-16.667 -27.333 -29.667 -55.333 -39 -84c-6.66699 -19.333 -11 -39.666 -13 -60.999c-2 -19.333 -3 -47.666 -3 -84.999v-8c0 -46.667 1.33301 -79 4 -97
c2 -18 8.33301 -39.667 19 -65c13.333 -34.667 26.333 -61.334 39 -80.001s27.667 -33.334 45 -44.001c16 -9.33301 35 -14.333 57 -15h4c20 0 37.667 3.66699 53 11zM541.997 -0.00195312c-21.333 8 -25.665 21.001 -12.998 39.001c12.667 17.333 47.667 47.333 105 90
l65 48v136c0 38 -0.333008 70.667 -1 98c-1.33301 27.333 -2.33301 41.333 -3 42c-1.33301 1.33301 -8 1 -20 -1s-25.667 -5 -41 -9c-36 -9.33301 -71.667 -14 -107 -14c-46.667 0 -92.334 8.33301 -137.001 25c-78 29.333 -143.667 77.666 -197 144.999
c-28.667 37.333 -53 79 -73 125s-34.333 95.667 -43 149c-3.33301 25.333 -5 51.333 -5 78c0 30 2.66699 61 8 93c10 58.667 28.333 115.667 55 171c18.667 37.333 48 77.666 88 120.999c40.667 42.667 78 73 112 91c59.333 32 123.333 48 192 48s132.667 -16 192 -48
c34 -18 71.333 -48.667 112 -92c40.667 -42.667 70 -82.667 88 -120c16 -32.667 28 -60 36 -82s14 -53.333 18 -94c1.33301 -18 2.66602 -38.667 3.99902 -62c0.666992 -23.333 1.33398 -50.333 2.00098 -81c0.666992 -35.333 1.33398 -76 2.00098 -122
c0 -46 0.333008 -99.333 1 -160l3 -437l64 -48c43.333 -32 72.666 -55.333 87.999 -70s23 -26.667 23 -36c0 -12 -9.66699 -20.333 -29 -25c-18.667 -4.66699 -51.667 -7 -99 -7c-34 0 -60.333 1.33301 -79 4s-38 7.33398 -58 14.001c-12 4.66699 -29.333 11 -52 19
c-12.667 -4 -31.667 -10.333 -57 -19c-22.667 -7.33301 -43.667 -12 -63 -14c-20 -2.66699 -46.333 -4 -79 -4c-22.667 0.666992 -44 1.66699 -64 3c-20.667 1.33301 -33.334 3.33301 -38.001 6z" />
    <glyph glyph-name="colon" unicode=":" horiz-adv-x="520" 
d="M132 987c-28 12.667 -46.001 28 -54.001 46c-8.66699 18.667 -13 51.667 -13 99c0 46.667 4.33301 79 13 97c8 18 26.333 34 55 48c24 12.667 67 19 129 19s105.333 -6.33301 130 -19c28 -14 46.333 -30 55 -48c8 -18 12 -50.333 12 -97c0 -35.333 -1 -59.333 -3 -72
c-2 -12 -7.33301 -23.667 -16 -35c-14 -20.667 -34 -34.667 -60 -42c-25.333 -8 -64.333 -12 -117 -12h-3c-36.667 0.666992 -64 2 -82 4c-17.333 2 -32.666 6 -45.999 12zM151.999 11c-36 11.333 -60.999 31 -74.999 59c-10 20 -15 47 -15 81v7
c0 10.667 0.333008 21.667 1 33c4 53.333 19.333 89 46 107c26.667 18.667 77.667 28 153 28c53.333 0 92.666 -4 117.999 -12c26 -7.33301 46 -21.333 60 -42c8.66699 -11.333 14 -23.333 16 -36c2 -12 3 -35.667 3 -71c0 -46.667 -4 -79 -12 -97
c-8.66699 -18 -27 -34 -55 -48c-22 -11.333 -60.333 -18 -115 -20h-13h-16c-40.667 0 -72.667 3.66699 -96 11z" />
    <glyph glyph-name="semicolon" unicode=";" horiz-adv-x="561" 
d="M166 1009c-27.333 12.667 -45.334 28.333 -54.001 47c-8.66699 18 -13 51 -13 99c0 46 4.33301 78 13 96c8 18 26.333 34.333 55 49c24 12 67 18 129 18c62.667 0 106 -6 130 -18c28 -14.667 46.333 -31 55 -49c8 -18 12 -50 12 -96c0 -35.333 -1 -59.333 -3 -72
s-7 -24.667 -15 -36c-14.667 -20.667 -35 -34.667 -61 -42c-25.333 -7.33301 -64.333 -11 -117 -11h-3c-36.667 0 -64 1 -82 3c-17.333 2.66699 -32.666 6.66699 -45.999 12zM78.999 -273.001c-6 6 -10.6689 13.333 -14.002 22c-2.66699 8.66699 -4 19.334 -4 32.001
c0 29.333 4.66699 51 14 65c8.66699 14 29 31.333 61 52c48.667 32 73 55.333 73 70s-18.667 28 -56 40c-36.667 12.667 -61.667 32.334 -75 59.001c-10.667 22 -16 52.333 -16 91c0 10 0.333008 20.333 1 31c4 53.333 19.667 89 47 107c26.667 18 78.334 27 155.001 27
c64 0 108 -5.66699 132 -17s45.667 -36.333 65 -75c18 -36.667 29.667 -70 35 -100c2 -14.667 3 -31.667 3 -51s-1.33301 -41.333 -4 -66c-6 -59.333 -19.333 -112.333 -40 -159s-44 -76.334 -70 -89.001c-8 -3.33301 -25.333 -8 -52 -14s-55 -11.333 -85 -16
c-29.333 -4.66699 -57 -9.33398 -83 -14.001c-25.333 -4 -41 -6.66699 -47 -8c-3.33301 -0.666992 -6.66602 -1 -9.99902 -1c-4 0 -8 0.666992 -12 2c-6 2 -12 6 -18 12z" />
    <glyph glyph-name="less" unicode="&#x3c;" horiz-adv-x="1192" 
d="M734 14c-11.333 4 -23.002 8.66309 -35.002 13.9961c-12 6 -21 11 -27 15c-5.33301 3.33301 -38 33.333 -98 90l-207 199l-130 126l-88 88c-43.333 45.333 -70.666 77.333 -81.999 96c-10.667 19.333 -16 38.333 -16 57s5.66699 37.667 17 57
c10.667 19.333 38 51.666 82 96.999l88 89l130 126l139 134l99 91c50.667 44.667 87.334 72.667 110.001 84c23.333 11.333 47 17 71 17c12 0 30 -3 54 -9c24.667 -6 51 -13.333 79 -22c42.667 -13.333 84 -28 124 -44c40.667 -16 65.334 -28.667 74.001 -38
c15.333 -15.333 23 -31.666 23 -48.999s-7.33301 -33.333 -22 -48l-22 -22l-134 6c-30 0.666992 -75 2.33398 -135 5.00098l-72 -69l-164 -159l-114 -111c-57.333 -56 -93.333 -92.667 -108 -110c-15.333 -18 -22 -28.667 -20 -32s26.667 -28.666 74 -75.999l168 -164
l235 -226c30 0.666992 75 2.33398 135 5.00098c30 1.33301 75 3 135 5c5.33301 -4.66699 12.666 -12 21.999 -22c14.667 -14.667 22 -30.667 22 -48s-7.66699 -33.666 -23 -48.999c-8.66699 -8 -24.667 -17 -48 -27c-23.333 -10.667 -58.333 -23.667 -105 -39
c-81.333 -26.667 -133.333 -42 -156 -46c-7.33301 -0.666992 -14.333 -1 -21 -1c-17.333 0 -35.333 3.33301 -54 10z" />
    <glyph glyph-name="equal" unicode="=" horiz-adv-x="1138" 
d="M183 903c-44.667 10.667 -76.002 21.998 -94.002 33.998c-18.667 12.667 -28 28.667 -28 48c0 21.333 9 37.666 27 48.999c17.333 12 50.333 23.667 99 35c32 7.33301 59 12.333 81 15c21.333 3.33301 58.333 5.33301 111 6h80c30.667 0.666992 67.334 1 110.001 1
c42 0 78.667 -0.333008 110 -1h79c52.667 -0.666992 90 -2.66699 112 -6c22 -2.66699 48.667 -7.66699 80 -15c49.333 -11.333 82.666 -23 99.999 -35c17.333 -11.333 26 -27.333 26 -48c0 -21.333 -8.66699 -37.666 -26 -48.999s-50.666 -22.666 -99.999 -33.999
c-34 -8 -62.667 -13.667 -86 -17c-23.333 -2.66699 -67.333 -4 -132 -4c-17.333 -0.666992 -36.666 -1 -57.999 -1h-16c-28 0.666992 -60 1 -96 1h-110c-31.333 0 -58.333 0.333008 -81 1c-53.333 0.666992 -91 2.33398 -113 5.00098c-22 3.33301 -47 8.33301 -75 15z
M182.998 348.998c-44.667 10.667 -76 22.333 -94 35c-18.667 12 -28 28 -28 48c0 20.667 9 37 27 49c17.333 11.333 50.333 22.666 99 33.999c32 7.33301 59 12.666 81 15.999c21.333 2.66699 58.333 4.33398 111 5.00098c22.667 0.666992 49.334 1 80.001 1h110h110
c30.667 0 57 -0.333008 79 -1c52.667 -0.666992 90 -2.33398 112 -5.00098c22 -3.33301 48.667 -8.66602 80 -15.999c49.333 -11.333 82.666 -22.666 99.999 -33.999c17.333 -12 26 -28.333 26 -49s-8.66699 -36.667 -26 -48c-17.333 -12 -50.666 -23.667 -99.999 -35
c-34 -8 -62.667 -13.333 -86 -16s-67.333 -4.33398 -132 -5.00098h-58h-16h-96c-42.667 0 -79.334 0.333008 -110.001 1h-81c-53.333 1.33301 -91 3.33301 -113 6s-47 7.33398 -75 14.001z" />
    <glyph glyph-name="greater" unicode="&#x3e;" horiz-adv-x="1192" 
d="M374 4c-4.66699 1.33301 -21.334 6.66895 -50.001 16.002l-97 31c-46.667 16 -81.667 29 -105 39s-39.333 19 -48 27c-14.667 15.333 -22.334 31.666 -23.001 48.999c0 17.333 7.33301 33.333 22 48c4.66699 5.33301 12 12.666 22 21.999c30 -1.33301 75 -3 135 -5
c30 -1.33301 75.333 -3 136 -5l235 227l167 163c47.333 47.333 72 72.666 74 75.999s-4.33301 14 -19 32c-15.333 17.333 -51.666 54 -108.999 110l-114 111l-164 159l-72 69c-29.333 -1.33301 -74 -3 -134 -5l-135 -6l-22 22c-14.667 14.667 -22 30.667 -22 48
c0.666992 17.333 8.33398 33.666 23.001 48.999c9.33301 9.33301 34 22 74 38s81.333 30.667 124 44c28.667 8.66699 55 16 79 22c24.667 6 42.667 9 54 9c24 0 47.667 -5.66699 71 -17s60.333 -39.333 111 -84l98 -91l139 -134l130 -126l89 -89
c43.333 -45.333 70.666 -77.666 81.999 -96.999c10.667 -19.333 16 -38.333 16 -57s-5.33301 -37.667 -16 -57c-11.333 -19.333 -38.666 -51.666 -81.999 -96.999l-89 -89l-130 -126l-132 -127l-95 -88c-49.333 -44 -85.666 -72.667 -108.999 -86
c-22.667 -14 -45.334 -22.333 -68.001 -25c-7.33301 -0.666992 -15 -1 -23 -1h-2c-9.33301 0 -16.333 0.333008 -21 1z" />
    <glyph glyph-name="question" unicode="?" horiz-adv-x="1081" 
d="M408 451c-14 6 -24.3369 15.6738 -31.0039 29.0068c-6 13.333 -13.333 42 -22 86c-11.333 53.333 -17 94 -17 122s5.33301 56 16 84c16.667 43.333 45 80.666 85 111.999c40 30.667 88 52.667 144 66c50 12 88.667 30.667 116 56c27.333 24.667 41 54 41 88
c0 27.333 -6.33301 59.666 -19 96.999c-12 36.667 -26.333 66.334 -43 89.001c-22 30 -45.333 50.667 -70 62c-20.667 9.33301 -45 14 -73 14c-6.66699 0 -13.334 -0.333008 -20.001 -1c-15.333 -0.666992 -31 -2.66699 -47 -6c-16 -4 -27.667 -7.66699 -35 -11
c-17.333 -8.66699 -35 -22.667 -53 -42c-18 -18.667 -28.667 -34.334 -32 -47.001c-1.33301 -6 -0.666016 -18.667 2.00098 -38c2.66699 -20 6.33398 -41 11.001 -63c12 -53.333 18 -94.333 18 -123c0 -31.333 -7 -54 -21 -68c-10 -9.33301 -19 -15 -27 -17
s-24 -2.33301 -48 -1c-18.667 1.33301 -33.667 3.66602 -45 6.99902c-11.333 2.66699 -20 7 -26 13c-6.66699 5.33301 -19.334 22.666 -38.001 51.999s-36.667 59.666 -54 90.999l-32 57c-9.33301 17.333 -15.333 30 -18 38c-5.33301 16.667 -8.33301 30.667 -9 42
c0 2 0.333008 3.66699 1 5c0.666992 12 6 31.333 16 58c15.333 42 45 82.667 89 122s99 74.666 165 105.999c62.667 29.333 128.667 44 198 44h10c73.333 -1.33301 144 -19 212 -53c80.667 -40 145.334 -98.333 194.001 -175c48.667 -77.333 73.334 -160.333 74.001 -249v-8
c0 -26.667 -1 -46 -3 -58c-2.66699 -13.333 -9 -29.333 -19 -48c-18.667 -35.333 -47.667 -69.666 -87 -102.999c-39.333 -32.667 -87.333 -62.667 -144 -90l-75 -36c-23.333 -10.667 -37.666 -17.334 -42.999 -20.001c-7.33301 -4 -15.666 -15 -24.999 -33
c-8.66699 -18.667 -21.667 -51.334 -39 -98.001c-12.667 -33.333 -25 -63.333 -37 -90s-20.333 -42.334 -25 -47.001c-9.33301 -9.33301 -27 -15.666 -53 -18.999c-10 -1.33301 -19 -2 -27 -2c-14 0 -25.667 2 -35 6zM346.996 11.0068
c-35.333 11.333 -59.667 28.334 -73 51.001c-14 23.333 -21 58.666 -21 105.999c0 39.333 5 69 15 89s27.667 36.667 53 50c16 8 31.667 13 47 15c15.333 2.66699 43.333 4 84 4c54.667 0 95 -4 121 -12c25.333 -7.33301 45.333 -21.333 60 -42
c8 -11.333 13.333 -23.333 16 -36c2 -12 3 -35.667 3 -71c0 -46.667 -4.33301 -79 -13 -97c-8 -18 -26.333 -34 -55 -48c-21.333 -10.667 -59.333 -17 -114 -19c-10.667 -0.666992 -21 -1 -31 -1c-39.333 0 -70 3.66699 -92 11z" />
    <glyph glyph-name="at" unicode="@" horiz-adv-x="1538" 
d="M861 545c9.33301 6 15.3301 13 17.9971 21c2 7.33301 3 24.333 3 51c0 34 -3 52.333 -9 55c-1.33301 1.33301 -3.66602 2 -6.99902 2c-11.333 0 -33 -3.66699 -65 -11c-37.333 -8 -62.666 -15 -75.999 -21s-24 -15.667 -32 -29c-6.66699 -10 -10 -17 -10 -21
s3.33301 -11.333 10 -22c4 -6 10 -12 18 -18c8 -6.66699 15.667 -11.667 23 -15c13.333 -6 30 -9 50 -9h15c26.667 2 47.334 7.66699 62.001 17zM529.997 3c-46.667 15.333 -86.9961 33.9971 -120.996 55.9971s-70.667 53 -110 93c-42 42 -76.667 86.333 -104 133
c-28 46 -51.667 99.333 -71 160c-18 58.667 -29.667 106.334 -35 143.001c-4.66699 34.667 -7 86 -7 154v14c0 62.667 1.33301 106.667 4 132c2.66699 24.667 8.66699 54.667 18 90c22 82 50 154 84 216c33.333 62 75 118.333 125 169c78 78.667 167.333 133.667 268 165
c61.333 19.333 123.666 29 186.999 29c40.667 0 82 -4 124 -12c106 -20.667 203.333 -69 292 -145c89.333 -76 156.666 -168.667 201.999 -278c26 -62 44 -118.333 54 -169c10 -50 15.333 -108.667 16 -176v-8c0 -125.333 -16.333 -220.666 -49 -285.999
c-32.667 -66.667 -85.334 -108.667 -158.001 -126c-21.333 -5.33301 -46.333 -8 -75 -8c-14.667 0 -30 0.666992 -46 2c-48 4.66699 -90.333 14 -127 28c-14 4.66699 -34.667 12.334 -62 23.001l-56 -18c-38 -12.667 -76.333 -19 -115 -19c-18 0 -36 1.33301 -54 4
c-57.333 8 -109.666 28.333 -156.999 61c-36 24.667 -62 56.667 -78 96c-9.33301 24 -14 47.667 -14 71c0 15.333 2 30.666 6 45.999c6 22.667 24 49.334 54 80.001c30 31.333 59.667 54 89 68c16 8 36.333 14.333 61 19c24.667 5.33301 70.667 12.666 138 21.999
c8 1.33301 15 3.66602 21 6.99902c6.66699 3.33301 10.667 6.66602 12 9.99902c4 10 0.666992 22.333 -10 37c-10 15.333 -23 27 -39 35c-19.333 10 -37 15 -53 15c-3.33301 0 -7 -0.333008 -11 -1c-20 -2.66699 -42.667 -13.667 -68 -33c-21.333 -16 -37 -25.333 -47 -28
c-10 -3.33301 -29.667 -5 -59 -5c-42 0 -66 4.66699 -72 14c-1.33301 2.66699 -2 6.66699 -2 12c0 14.667 5.33301 39.667 16 75c13.333 44 26.666 72.667 39.999 86c12.667 14 39 27 79 39c34.667 10.667 70 16 106 16c42.667 0 85.667 -7.66699 129 -23
c80 -28 142 -75.333 186 -142c24 -35.333 40.333 -73 49 -113c9.33301 -39.333 15.333 -98.333 18 -177c2 -61.333 4 -101 6 -119c2.66699 -17.333 7 -28 13 -32c5.33301 -3.33301 10.333 -5 15 -5s9.66699 1.66699 15 5c6.66699 4 10.667 15.667 12 35
c2 18.667 3.66699 64 5 136v41c0 73.333 -3 132.666 -9 177.999c-6.66699 53.333 -19.667 105 -39 155c-32 82.667 -74 148.334 -126 197.001c-51.333 49.333 -110.666 80 -177.999 92c-19.333 3.33301 -38.666 5 -57.999 5c-83.333 0 -159 -32.667 -227 -98
c-83.333 -80 -137.666 -192.333 -162.999 -337c-7.33301 -41.333 -11 -91.333 -11 -150c0 -16.667 0.333008 -34 1 -52c2.66699 -82 10 -146.667 22 -194c23.333 -87.333 57.333 -159 102 -215c45.333 -56 94.666 -88 147.999 -96c8.66699 -1.33301 25.667 -1.33301 51 0
c24.667 1.33301 50 4 76 8c26 3.33301 55.667 6.33301 89 9s60.333 4 81 4c34.667 0 57 -1 67 -3s19.667 -8 29 -18c14 -14 21 -29.667 21 -47c-0.666992 -17.333 -8.33398 -33.666 -23.001 -48.999c-8.66699 -8 -25 -17.333 -49 -28c-24 -10 -60 -23.333 -108 -40
c-59.333 -19.333 -101 -31.666 -125 -36.999c-24.667 -5.33301 -54.334 -8.66602 -89.001 -9.99902c-10.667 -0.666992 -20.334 -1 -29.001 -1c-17.333 0 -32 0.666992 -44 2c-18 2 -35.667 5.66699 -53 11z" />
    <glyph glyph-name="A" unicode="A" horiz-adv-x="1684" 
d="M930 700c8 2 14.333 4.66797 19 8.00098s7 7 7 11s-6 22.667 -18 56c-11.333 33.333 -24 68.666 -38 105.999l-31 82c-10 24.667 -16.333 39 -19 43c-1.33301 2.66699 -3.33301 4 -6 4h-2c-1.33301 0 -2.66602 -0.666992 -3.99902 -2c-2.66699 -2 -8.66699 -15 -18 -39
c-10 -24 -20.667 -51.667 -32 -83l-40 -108c-12.667 -35.333 -19 -55.333 -19 -60c0 -4 2 -7.66699 6 -11c3.33301 -3.33301 7.66602 -5.33301 12.999 -6c15.333 -3.33301 46 -5 92 -5h6c42 0 70 1.33301 84 4zM52 9.00098c-6.66699 6 -9.99805 12.6689 -9.99805 20.002
s3.33301 15.333 10 24c14 16.667 53 48.667 117 96l81 60l63 170l83 222l111 298l91 250c22 65.333 33 101.333 33 108c0 1.33301 -9.66699 5.33301 -29 12c-18 5.33301 -38.333 11 -61 17c-46 11.333 -74.667 20.666 -86 27.999c-12 7.33301 -20 20.666 -24 39.999
c-4.66699 23.333 2 41.666 20 54.999c18.667 12.667 56.667 26.334 114 41.001c45.333 11.333 80.333 18.333 105 21c25.333 2.66699 69 4 131 4h3c38 0 71.667 -0.666992 101 -2s45 -3 47 -5c4.66699 -2.66699 10.334 -10.667 17.001 -24s23.334 -54.333 50.001 -123
l41 -108l57 -151l116 -310l165 -440c8 -23.333 20.667 -57.666 38 -102.999l97 -74c53.333 -40.667 86 -67.667 98 -81c7.33301 -8 11 -16 11 -24c0 -4 -1.33301 -8 -4 -12c-4 -6.66699 -14.333 -11 -31 -13s-55 -3.33301 -115 -4c-22.667 -0.666992 -42.667 -1 -60 -1
c-26 0 -45.667 0.666992 -59 2c-22.667 1.33301 -42 5 -58 11c-18 6 -32.667 9.33301 -44 10s-29.666 -1.33301 -54.999 -6c-41.333 -6.66699 -74.333 -10 -99 -10h-7c-26 1.33301 -44 7 -54 17c-14.667 14.667 -18.334 30 -11.001 46s28.666 38.333 63.999 67
c13.333 10.667 24.666 20.667 33.999 30c9.33301 8.66699 14 14.334 14 17.001s-4.33301 16.334 -13 41.001s-19 52.667 -31 84l-42 109c-13.333 34 -21.333 52.667 -24 56c-3.33301 4 -22.333 7 -57 9c-34.667 1.33301 -74 2.33301 -118 3h-40
c-39.333 0 -77.666 -0.666992 -114.999 -2c-48.667 -2 -75 -5.33301 -79 -10c-2 -3.33301 -10 -22 -24 -56l-42 -109c-12 -31.333 -22.333 -59.333 -31 -84s-13 -38.334 -13 -41.001s4.66699 -8.33398 14 -17.001c9.33301 -9.33301 20.666 -19.333 33.999 -30
c35.333 -28.667 56.666 -51 63.999 -67s3.66602 -31.333 -11.001 -46c-10 -10 -28 -15.667 -54 -17h-7c-24.667 0 -57.334 3.33301 -98.001 10c-26 4.66699 -44.667 6.66699 -56 6s-25.666 -4 -42.999 -10c-10 -3.33301 -26.667 -6.33301 -50 -9
c-24 -2 -50.333 -3.66699 -79 -5c-22 -0.666992 -43.333 -1 -64 -1c-20 0 -39.667 0.333008 -59 1c-40 1.33301 -62.333 4.66602 -67 9.99902z" />
    <glyph glyph-name="B" unicode="B" horiz-adv-x="1316" 
d="M841 911c24 12.667 44.001 28.332 60.001 46.999c15.333 18.667 26.666 39 33.999 61c6 18.667 9 37.334 9 56.001c0 22.667 -4.33301 45.667 -13 69c-15.333 43.333 -45.666 76.333 -90.999 99c-22 11.333 -39.667 18 -53 20c-8 1.33301 -21.667 2 -41 2
c-12.667 0 -27.334 -0.333008 -44.001 -1c-37.333 -1.33301 -64 -3 -80 -5c-16 -2.66699 -30 -7.66699 -42 -15l-29 -17c-0.666992 -35.333 -1.33398 -88.333 -2.00098 -159c-0.666992 -28 -1 -53.667 -1 -77v-38c0.666992 -33.333 1.33398 -51.333 2.00098 -54
c2 -4 12 -6.66699 30 -8c18 -2 49.667 -3 95 -3c57.333 0 94 1.33301 110 4c15.333 2 34 8.33301 56 19zM826.001 220.998c18.667 8 38.335 23.333 59.002 46c21.333 23.333 37.333 47 48 71c12 26.667 18 60.334 18 101.001v2c0 39.333 -5.66699 71.666 -17 96.999
c-10.667 24.667 -25.667 47.667 -45 69s-39.333 37.333 -60 48c-18.667 9.33301 -55.334 16.333 -110.001 21c-24.667 2 -47.667 3 -69 3c-24 0 -45.333 -1.33301 -64 -4l-39 -6v-208v-76v-55c1.33301 -48 5.33301 -76 12 -84c7.33301 -8.66699 22 -17 44 -25
c21.333 -7.33301 59.333 -11.333 114 -12h3c53.333 0 88.666 4 105.999 12zM62.002 8.99805c-6.66699 6.66699 -10.002 13.6719 -10.002 21.0049s3.66699 15.333 11 24c13.333 16 52.333 48 117 96l82 61v526v526l-98 75c-54.667 41.333 -88 68.666 -100 81.999
c-11.333 13.333 -13.666 25.333 -6.99902 36c4 6.66699 14.333 11 31 13s54.667 3.33301 114 4c26.667 0.666992 49.334 1 68.001 1c28.667 0 48.667 -0.666992 60 -2c19.333 -2 47 -9 83 -21l74 -25c13.333 5.33301 33.666 12.666 60.999 21.999
c26 9.33301 49.667 15.666 71 18.999c20.667 3.33301 54 5.66602 100 6.99902h45c43.333 0 77.666 -2.33301 102.999 -7c34 -6 74.667 -20.333 122 -43c58.667 -28 107.334 -64.333 146.001 -109s66.334 -96.667 83.001 -156c10 -35.333 15 -62.666 15 -81.999
s-5 -47 -15 -83c-10 -34 -22 -63.667 -36 -89c-14.667 -26 -34.667 -53.333 -60 -82c-10.667 -11.333 -19.667 -22 -27 -32c-8 -10 -12 -16 -12 -18s4 -8 12 -18c7.33301 -10.667 16.333 -22 27 -34c10 -12.667 20.667 -27 32 -43
c11.333 -16.667 19.666 -30.334 24.999 -41.001c12 -22.667 24.333 -55.667 37 -99c12 -43.333 18 -73.666 18 -90.999c0 -20 -6 -52.667 -18 -98c-12.667 -45.333 -25 -79.666 -37 -102.999c-26 -51.333 -65 -98 -117 -140s-107.333 -71.667 -166 -89
c-28.667 -8.66699 -53 -13.667 -73 -15c-12 -1.33301 -29 -2 -51 -2c-14.667 0 -32 0.333008 -52 1c-46 1.33301 -79.667 3.66602 -101 6.99902c-21.333 2.66699 -45 8.66699 -71 18c-13.333 5.33301 -33.666 12.666 -60.999 21.999l-73 -24
c-34 -11.333 -61.333 -18.333 -82 -21s-62.334 -4 -125.001 -4h-1h-2c-45.333 0 -79.333 1 -102 3c-23.333 1.33301 -36.666 3.66602 -39.999 6.99902z" />
    <glyph glyph-name="C" unicode="C" horiz-adv-x="1244" 
d="M551 14c-106.667 31.333 -200.995 95.668 -282.995 193.001c-81.333 97.333 -135.333 209.333 -162 336c-14 68 -22 123.333 -24 166v21c0 37.333 3.66699 79.333 11 126c22 135.333 64.667 251.333 128 348c63.333 97.333 144.333 170.666 243 219.999
c48.667 24.667 103.667 40.334 165 47.001c20.667 2.66699 41 4 61 4c40 0 78.667 -4.66699 116 -14c61.333 -14 118.666 -41.333 171.999 -82s88.333 -83.667 105 -129c8.66699 -22.667 13 -42 13 -58v-6c-1.33301 -16.667 -10 -42.667 -26 -78
c-4.66699 -10 -12.334 -23.333 -23.001 -40s-22.667 -34 -36 -52c-20 -27.333 -40 -53 -60 -77c-20.667 -24.667 -35 -39 -43 -43c-4.66699 -2.66699 -13.334 -4.66699 -26.001 -6c-13.333 -2 -27 -3 -41 -3c-20 0 -34.667 1.33301 -44 4c-9.33301 2 -17.333 6.33301 -24 13
c-11.333 11.333 -16.333 25.666 -15 42.999s10.666 59 27.999 125c15.333 56 23 94 23 114c0 3.33301 -0.333008 6 -1 8c-2.66699 16.667 -18.334 32.667 -47.001 48c-23.333 12 -50.333 18 -81 18c-30.667 -0.666992 -58 -7.33398 -82 -20.001
c-26 -13.333 -55 -36.666 -87 -69.999c-31.333 -32.667 -55 -64 -71 -94c-7.33301 -14 -15.666 -33.333 -24.999 -58c-10 -24.667 -18 -47.334 -24 -68.001c-10.667 -34.667 -17 -63 -19 -85c-2.66699 -22.667 -4 -65.667 -4 -129s1.33301 -106 4 -128
c2 -22.667 8.33301 -51 19 -85c15.333 -50.667 32.666 -93.667 51.999 -129c19.333 -34.667 43 -66.334 71 -95.001c33.333 -34 62.666 -57 87.999 -69c25.333 -11.333 57.333 -17 96 -17c40 0 72 6 96 18c23.333 12.667 62.666 44.334 117.999 95.001
c54.667 50.667 91.334 81.334 110.001 92.001s44 16 76 16c20.667 0 35.667 -1 45 -3c10 -2.66699 18.333 -7 25 -13c9.33301 -10 14 -20 14 -30v-2c0 -2.66699 -0.333008 -5.33398 -1 -8.00098c-2.66699 -13.333 -16 -39.666 -40 -78.999l-41 -67l-39 -64
c-25.333 -42 -55.666 -75 -90.999 -99c-34.667 -24 -80 -43.333 -136 -58c-32.667 -8 -76.667 -12 -132 -12h-10c-60.667 0.666992 -107.667 5.66699 -141 15z" />
    <glyph glyph-name="D" unicode="D" horiz-adv-x="1362" 
d="M765 235c25.333 12.667 53.668 35.3311 85.001 67.998c32 33.333 56 65 72 95c7.33301 14 15.666 33.333 24.999 58c10 24.667 18 47.334 24 68.001c10.667 34.667 17 63 19 85c2.66699 22.667 4 65.667 4 129s-1.33301 106 -4 128c-2 22.667 -8.33301 51 -19 85
c-15.333 50.667 -32.666 93.667 -51.999 129c-19.333 34.667 -43 66.334 -71 95.001c-32.667 33.333 -61.667 56 -87 68s-56.333 18.333 -93 19h-2c-21.333 0 -38 -1.33301 -50 -4c-12.667 -2.66699 -24.667 -7 -36 -13l-29 -18
c-0.666992 -108 -1.33398 -270.333 -2.00098 -487c-0.666992 -66.667 -1 -125.334 -1 -176.001v-100v-29v-72c0.666992 -20 1.33398 -37 2.00098 -51c2.66699 -43.333 8 -67.666 16 -72.999c7.33301 -6 19.666 -12 36.999 -18c16 -6 34.667 -9 56 -9c8 0 16 0.333008 24 1
c32 2.66699 59.333 10 82 22zM62.002 9.99707c-6.66699 6 -10.002 12.6689 -10.002 20.002s3.66699 15.333 11 24c13.333 16.667 52.333 48.667 117 96l82 61v526v527l-98 74c-54.667 41.333 -88 68.666 -100 81.999c-11.333 13.333 -13.666 25.666 -6.99902 36.999
c4 6 14.333 10 31 12s54.667 3.66699 114 5h45c40.667 0 68.334 -0.666992 83.001 -2c19.333 -2 47 -9 83 -21l74 -24l61 21c50 17.333 99.333 26.333 148 27c57.333 0 114.333 -11.667 171 -35c105.333 -42.667 196 -120.334 272 -233.001
c32.667 -47.333 59.667 -99.666 81 -156.999c20.667 -57.333 37 -121.666 49 -192.999c7.33301 -46.667 11 -88.334 11 -125.001v-22c-2 -42 -10 -97 -24 -165c-17.333 -83.333 -50 -165.333 -98 -246c-48 -80 -101.667 -142.333 -161 -187c-74 -55.333 -148 -90 -222 -104
c-26 -4.66699 -51.667 -7 -77 -7c-49.333 0 -99.333 8.66699 -150 26l-61 22l-73 -25c-34 -11.333 -61.333 -18.333 -82 -21c-20.667 -2 -62.334 -3 -125.001 -3h-1h-2c-45.333 0 -79.333 0.666992 -102 2c-23.333 1.33301 -36.666 4 -39.999 8z" />
    <glyph glyph-name="E" unicode="E" horiz-adv-x="1354" 
d="M62 9c-6.66699 6 -10 12.668 -10 20.001s3.33301 15 10 23c12.667 16 48.334 45.667 107.001 89c20 14.667 37.333 28.334 52 41.001c15.333 12 24 19.333 26 22c1.33301 2 2.66602 55.333 3.99902 160c1.33301 105.333 2 230.333 2 375v526l-19 16
c-5.33301 4.66699 -17 14 -35 28l-58 45c-42.667 32.667 -69 55 -79 67c-10 12.667 -11.667 24.334 -5 35.001c4 6 14.333 10 31 12s55 3.66699 115 5h48c28.667 0 51.334 -0.333008 68.001 -1c24.667 -1.33301 44 -4.33301 58 -9c15.333 -5.33301 27.333 -8.33301 36 -9
c8 0 19.333 2.66699 34 8c14 5.33301 44.667 8.66602 92 9.99902c47.333 2 137 3 269 3c54 0 100.667 -0.333008 140 -1c39.333 0 72.333 -0.333008 99 -1c64 -2 104 -6.33301 120 -13c16 -7.33301 29.333 -19.666 40 -36.999c4 -6 10 -21.667 18 -47l26 -85
c10.667 -37.333 20.334 -74 29.001 -110c8.66699 -35.333 13 -57.666 13 -66.999c0 -16.667 -7.33301 -29.334 -22 -38.001c-14.667 -8 -36.334 -12 -65.001 -12c-32.667 0 -56.667 5.33301 -72 16s-43.666 43 -84.999 97c-17.333 22 -33.666 41.333 -48.999 58
s-25.333 25.334 -30 26.001c-4.66699 1.33301 -28.667 2.33301 -72 3c-43.333 0 -93.333 -0.333008 -150 -1c-46 -0.666992 -114.667 -1.33398 -206 -2.00098c0 -46.667 -0.666992 -116.334 -2 -209.001v-73c0 -42.667 0.333008 -74 1 -94
c0.666992 -30 3.33398 -46.333 8.00098 -49c2.66699 -2 18 -3.66699 46 -5s60.333 -2 97 -2h133l95 92c39.333 38 66.666 63 81.999 75c15.333 11.333 28.333 17 39 17c17.333 0 28.666 -6.66699 33.999 -20c5.33301 -14 8 -43.333 8 -88c0 -32.667 -1 -56 -3 -70
c-2.66699 -14.667 -8.66699 -30.667 -18 -48c-12.667 -26 -19 -45.333 -19 -58s6.33301 -31.334 19 -56.001c9.33301 -16.667 15.333 -32 18 -46c2 -14 3 -37.333 3 -70c0 -45.333 -3.66699 -76 -11 -92c-6.66699 -16.667 -19.334 -22.667 -38.001 -18
c-6 1.33301 -20 11.333 -42 30c-21.333 18 -44.333 39 -69 63l-89 88c-32.667 -0.666992 -81.334 -1.33398 -146.001 -2.00098l-146 -3v-205v-206c46 0 114.667 -0.666992 206 -2h80h70c43.333 0 67.333 0.666992 72 2s14.667 10 30 26c15.333 16.667 31.666 36 48.999 58
c41.333 54 69.666 86.333 84.999 97c15.333 11.333 39.333 17 72 17c28.667 0 50.334 -4.33301 65.001 -13s22 -21.334 22 -38.001c0 -7.33301 -3 -24 -9 -50s-13.333 -54.667 -22 -86c-10 -37.333 -20.333 -73.666 -31 -108.999c-11.333 -34.667 -19.333 -56 -24 -64
c-10.667 -17.333 -24 -29.666 -40 -36.999c-16 -6.66699 -56 -11 -120 -13c-26.667 -0.666992 -59.667 -1 -99 -1h-140c-132 0 -221.667 0.666992 -269 2s-78 4.66602 -92 9.99902c-15.333 5.33301 -27 8 -35 8c-7.33301 0 -18.666 -2.66699 -33.999 -8
c-10 -4 -29.333 -7 -58 -9c-28 -2 -58 -3.33301 -90 -4h-34c-26.667 0 -52 0.666992 -76 2c-34.667 1.33301 -54 4.33301 -58 9z" />
    <glyph glyph-name="F" unicode="F" horiz-adv-x="1354" 
d="M86 9c-2.66699 2.66699 -4.99805 5.6709 -6.99805 9.00391c-2 4 -3 7.33301 -3 10c0 6 9.66699 18 29 36s46 39.667 80 65l40 31c12 10 19 16.333 21 19c1.33301 2 2.66602 56.667 3.99902 164s2 235 2 383v539l-19 16c-5.33301 4.66699 -17 14 -35 28l-58 45
c-42.667 32.667 -69 55 -79 67c-6 7.33301 -9 14.333 -9 21c0 4.66699 1.33301 9.33398 4 14.001c4 6 14.333 10 31 12s55 3.66699 115 5h47c28.667 0 51.334 -0.333008 68.001 -1c25.333 -1.33301 45 -4.33301 59 -9c15.333 -5.33301 27 -8.33301 35 -9
c8.66699 0 20.334 2.66699 35.001 8c14 5.33301 44.667 8.66602 92 9.99902c47.333 2 137 3 269 3c54.667 0 101.334 -0.333008 140.001 -1c39.333 0 72.666 -0.333008 99.999 -1c64 -2 103.667 -6.33301 119 -13c16 -7.33301 29.667 -20 41 -38
c5.33301 -8.66699 14 -33 26 -73s23.333 -80 34 -120c7.33301 -27.333 13.333 -51.666 18 -72.999s7 -35.333 7 -42c0 -16.667 -7.33301 -29.334 -22 -38.001c-14.667 -8 -36.334 -12 -65.001 -12c-32.667 0 -56.667 5.33301 -72 16s-43.666 43 -84.999 97
c-17.333 22 -33.666 41.333 -48.999 58s-25.333 25.334 -30 26.001c-4.66699 1.33301 -28.667 2.33301 -72 3c-43.333 0 -93.333 -0.333008 -150 -1c-46 -0.666992 -114.667 -1.33398 -206 -2.00098c0 -46.667 -0.666992 -116.334 -2 -209.001v-73
c0 -42.667 0.333008 -74 1 -94c0.666992 -30 3.33398 -46.333 8.00098 -49c2.66699 -2 18 -3.66699 46 -5s60.333 -2 97 -2h133l95 92c39.333 38 66.666 63 81.999 75c15.333 11.333 28.333 17 39 17c17.333 0 28.666 -6.66699 33.999 -20c5.33301 -14 8 -43.333 8 -88
c0 -32.667 -1.33301 -56 -4 -70c-2 -14.667 -7.66699 -30.667 -17 -48c-12.667 -26 -19 -45.333 -19 -58s6.33301 -31.334 19 -56.001c9.33301 -16.667 15.333 -32 18 -46c2 -14 3 -37.333 3 -70c0 -45.333 -3.66699 -76 -11 -92
c-6.66699 -16.667 -19.334 -22.667 -38.001 -18c-6 1.33301 -20 11.333 -42 30c-21.333 18 -44.333 39 -69 63l-89 88c-32.667 -0.666992 -81.334 -1.33398 -146.001 -2.00098l-146 -3c0 -48 -0.666992 -120.667 -2 -218c0 -60 0.333008 -112 1 -156
c0.666992 -44.667 2 -68.334 4 -71.001c1.33301 -2 9.33301 -9 24 -21l49 -38c43.333 -33.333 70.666 -56.333 81.999 -69c12 -12.667 15 -23.667 9 -33c-6.66699 -10 -46 -16 -118 -18h-26c-57.333 0 -96 4 -116 12c-19.333 8 -37 12 -53 12c-16.667 0 -34.667 -4 -54 -12
c-18.667 -8 -64 -12.333 -136 -13h-18c-60 0 -93.667 3.66699 -101 11z" />
    <glyph glyph-name="G" unicode="G" horiz-adv-x="1256" 
d="M551 14c-106.667 31.333 -200.998 95.6729 -282.998 193.006c-81.333 97.333 -135.333 209.333 -162 336c-14 68 -22 123.333 -24 166v21c0 37.333 3.66699 79.333 11 126c22 135.333 64.667 251.333 128 348c63.333 97.333 144.333 170.666 243 219.999
c48.667 24.667 103.667 40.334 165 47.001c20.667 2.66699 41 4 61 4c40 0 78.667 -4.66699 116 -14c61.333 -14 118.666 -41.333 171.999 -82s88.333 -83.667 105 -129c8.66699 -22.667 13 -42 13 -58v-6c-1.33301 -16.667 -10 -42.667 -26 -78
c-4.66699 -10 -12.334 -23.333 -23.001 -40s-22.667 -34 -36 -52c-20 -27.333 -40 -53 -60 -77c-20.667 -24.667 -35 -39 -43 -43c-4.66699 -2.66699 -13.334 -4.66699 -26.001 -6c-13.333 -2 -27 -3 -41 -3c-20 0 -34.667 1.33301 -44 4c-9.33301 2 -17.333 6.33301 -24 13
c-11.333 11.333 -16.333 25.666 -15 42.999s10.666 59 27.999 125c15.333 56 23 94 23 114c0 3.33301 -0.333008 6 -1 8c-2.66699 16.667 -18.334 32.667 -47.001 48c-23.333 12 -50.333 18 -81 18c-30.667 -0.666992 -58 -7.33398 -82 -20.001
c-26 -13.333 -55 -36.666 -87 -69.999c-31.333 -32.667 -55 -64 -71 -94c-7.33301 -14 -15.666 -33.333 -24.999 -58c-10 -24.667 -18 -47.334 -24 -68.001c-10.667 -34.667 -17 -63 -19 -85c-2.66699 -22.667 -4 -65.667 -4 -129s1.33301 -106 4 -128
c2 -22.667 8.33301 -51 19 -85c15.333 -50.667 32.666 -93.667 51.999 -129c19.333 -34.667 43 -66.334 71 -95.001c30.667 -30.667 58.667 -52.667 84 -66c26 -13.333 53.667 -20 83 -20c26.667 0 52 5.33301 76 16s40 23.667 48 39c4 6.66699 6.66699 21 8 43
c0.666992 10.667 1 24 1 40c0 15.333 -0.333008 33.333 -1 54c0 26 -0.666992 65 -2 117c-12.667 10 -32.334 24.667 -59.001 44c-67.333 52 -108.666 87 -123.999 105s-16.666 33.667 -3.99902 47c5.33301 5.33301 27.333 8.66602 66 9.99902c15.333 0.666992 31 1 47 1
c24 0 48.333 -0.666992 73 -2c28.667 -0.666992 55 -2.33398 79 -5.00098s42 -5.66699 54 -9c22 -7.33301 39.333 -11 52 -11c12 0 35 2.66699 69 8c30 4.66699 55.333 7 76 7c8 0 15.667 -0.333008 23 -1c24.667 -2.66699 40.334 -10 47.001 -22
c3.33301 -6.66699 5 -13.667 5 -21c0 -8 -2.33301 -16 -7 -24c-8.66699 -16 -26.667 -35 -54 -57l-54 -42v-141c0 -61.333 -1 -103 -3 -125s-6.66699 -43 -14 -63c-16.667 -44 -51.667 -86.333 -105 -127c-54 -40.667 -111.333 -68.334 -172 -83.001
c-33.333 -8 -73.666 -12 -120.999 -12h-10c-50.667 0.666992 -92 5.66699 -124 15z" />
    <glyph glyph-name="H" unicode="H" horiz-adv-x="1478" 
d="M62 10c-6.66699 6.66699 -10.0049 13.3291 -10.0049 19.9961c0 7.33301 3.33301 15 10 23c12.667 16 48.334 46 107.001 90c20 14.667 37.333 28 52 40c15.333 12 24 19.333 26 22c1.33301 2.66699 2.66602 56.334 3.99902 161.001s2 229.334 2 374.001v526
c-4 4 -10.333 9.33301 -19 16c-5.33301 4.66699 -17 14.334 -35 29.001l-58 45c-42.667 32.667 -69 55 -79 67s-11.667 23.333 -5 34c4 6.66699 14.333 11 31 13c16.667 1.33301 55 2.66602 115 3.99902h51c30 0 52.667 -0.333008 68 -1
c22.667 -1.33301 42.334 -5 59.001 -11c17.333 -6.66699 31.666 -10 42.999 -10c11.333 -0.666992 30 1 56 5c38 6.66699 69.333 10 94 10h11c26 -0.666992 44 -6 54 -16c14.667 -15.333 18.334 -31 11.001 -47c-7.33301 -15.333 -28.666 -37.333 -63.999 -66l-48 -39
c0.666992 -45.333 1.33398 -113 2.00098 -203c0.666992 -45.333 1.33398 -113 2.00098 -203h198h197c0 45.333 0.666992 113 2 203c0.666992 44.667 1.33398 112.334 2.00098 203.001l-48 39c-35.333 28.667 -56.666 50.667 -63.999 66
c-7.33301 16 -3.66602 31.667 11.001 47c10 10 28 15.333 54 16h11c24 0 55.333 -3.33301 94 -10c26 -4 44.667 -5.66699 56 -5c11.333 0 25.666 3.33301 42.999 10c16.667 6 36.334 9.66699 59.001 11c14 0.666992 34.333 1 61 1h27h31
c60 -1.33301 98.333 -2.66602 115 -3.99902c16.667 -2 27 -6.33301 31 -13c2.66699 -4.66699 4 -9 4 -13c0 -6.66699 -3 -13.667 -9 -21c-10 -12 -36.333 -34.333 -79 -67l-58 -45c-18 -14.667 -29.667 -24.334 -35 -29.001c-4.66699 -3.33301 -11 -8.66602 -19 -15.999
v-528v-529l19 -16c5.33301 -4 17 -13.333 35 -28l58 -45c42.667 -32.667 69 -55 79 -67c6 -7.33301 9 -14.333 9 -21c0 -4.66699 -1.33301 -9 -4 -13c-4 -6.66699 -14.333 -11 -31 -13s-55 -3.33301 -115 -4c-22.667 -0.666992 -42.667 -1 -60 -1
c-26 0 -45.667 0.666992 -59 2c-22.667 1.33301 -42.334 5 -59.001 11c-17.333 6 -31.666 9.33301 -42.999 10s-30 -1.33301 -56 -6c-40.667 -6.66699 -73.334 -10 -98.001 -10h-7c-26 1.33301 -44 7 -54 17c-14.667 14.667 -18.334 30 -11.001 46s28.666 38.333 63.999 67
l48 39v246v246c-6 0.666992 -14.667 2.33398 -26 5.00098c-8 1.33301 -26.333 2.33301 -55 3c-29.333 1.33301 -61.666 2 -96.999 2c-43.333 0 -85 -0.333008 -125 -1s-64.667 -2 -74 -4c-5.33301 -1.33301 -14 -3 -26 -5v-246v-246l48 -39
c35.333 -28.667 56.666 -51 63.999 -67s3.66602 -31.333 -11.001 -46c-10 -10 -28 -15.667 -54 -17h-7c-24.667 0 -57.334 3.33301 -98.001 10c-26 4.66699 -44.667 6.66699 -56 6s-25.666 -4 -42.999 -10c-10 -3.33301 -26.667 -6.33301 -50 -9
c-24 -2 -50.333 -3.66699 -79 -5c-21.333 -0.666992 -42.666 -1 -63.999 -1c-20 0 -39.667 0.333008 -59 1c-39.333 1.33301 -61.666 4.66602 -66.999 9.99902z" />
    <glyph glyph-name="I" unicode="I" horiz-adv-x="737" 
d="M61 9c-2.66699 2.66699 -4.99512 6.00195 -6.99512 10.002c-2 3.33301 -3 6.33301 -3 9c0 6 9.66699 18 29 36s46 39.667 80 65c15.333 11.333 29 22 41 32c11.333 9.33301 18 15.333 20 18s3.33301 51.667 4 147c1.33301 95.333 2 204.666 2 327.999v292
c-0.666992 96 -1.33398 175 -2.00098 237c-0.666992 34 -1.33398 61 -2.00098 81c-0.666992 19.333 -1.33398 29.666 -2.00098 30.999c-2 2.66699 -10 9.66699 -24 21l-49 39c-44 32.667 -71.667 55.667 -83 69c-11.333 12.667 -14 23.667 -8 33c6 10 45 15.667 117 17
c10.667 0.666992 20.667 1 30 1c55.333 0 92.666 -4 111.999 -12c19.333 -8.66699 37.333 -13 54 -13s34.667 4.33301 54 13c18.667 8 54 12 106 12c11.333 0 23.333 -0.333008 36 -1c71.333 -1.33301 110.333 -7 117 -17c2 -3.33301 3 -7 3 -11
c0 -6.66699 -3.66699 -14 -11 -22c-11.333 -13.333 -39 -36.333 -83 -69c-18.667 -14 -35 -27 -49 -39c-14.667 -11.333 -22.667 -18.333 -24 -21c-1.33301 -2 -2.66602 -34.667 -3.99902 -98c-0.666992 -62.667 -1.33398 -139.334 -2.00098 -230.001v-154v-159
c0 -123.333 0.666992 -232.666 2 -327.999c0.666992 -95.333 2 -144.333 4 -147c1.33301 -2.66699 9.33301 -9.66699 24 -21c14 -12 30.333 -25 49 -39c44 -33.333 71.667 -56.333 83 -69c7.33301 -8 11 -15.667 11 -23c0 -3.33301 -1 -6.66602 -3 -9.99902
c-6.66699 -10 -45.667 -15.667 -117 -17c-12.667 -0.666992 -24.667 -1 -36 -1c-52 0 -87.333 4 -106 12c-19.333 8 -37.333 12 -54 12s-34.334 -3.66699 -53.001 -11c-19.333 -8.66699 -65 -13.334 -137 -14.001h-6h-11c-60.667 0 -94.667 3.66699 -102 11z" />
    <glyph glyph-name="J" unicode="J" horiz-adv-x="1084" 
d="M315 -312c-58 12.667 -104.002 29.333 -138.002 50s-57.667 46.667 -71 78c-12.667 28.667 -25.667 73.667 -39 135c-10.667 49.333 -16 82.333 -16 99c0 4.66699 0.333008 8 1 10c4 14 11 22.667 21 26c9.33301 3.33301 30.333 5 63 5c36 0 60.333 -4.33301 73 -13
c12 -8.66699 39.333 -40 82 -94c16.667 -22 33 -41.333 49 -58c15.333 -16.667 26 -26 32 -28c12.667 -5.33301 29.334 -8 50.001 -8c6 0 12.667 0.333008 20 1c29.333 1.33301 53.666 6.33301 72.999 15c10 4.66699 20 11.334 30 20.001c10 8 17.333 16 22 24
c6 9.33301 10 26.333 12 51s3.33301 93.334 4 206.001c0.666992 48 1 107 1 177v248c0 62.667 -0.333008 123.334 -1 182.001v163c-0.666992 94 -1.33398 170 -2.00098 228c-1.33301 58.667 -2.66602 88.667 -3.99902 90c-1.33301 2.66699 -9.33301 9.66699 -24 21
c-14 12 -30.333 25 -49 39c-43.333 32.667 -70.666 55.667 -81.999 69c-11.333 12.667 -14.333 23.667 -9 33c6.66699 10 46 15.667 118 17c10 0.666992 19.667 1 29 1c56 0 93.667 -4 113 -12c19.333 -8.66699 37 -13 53 -13c16.667 0 34.667 4.33301 54 13
c18.667 8 54 12 106 12c11.333 0 23.333 -0.333008 36 -1c72 -1.33301 111.333 -7 118 -17c2 -3.33301 3 -7 3 -11c-0.666992 -6.66699 -4.66699 -14 -12 -22c-11.333 -13.333 -38.666 -36.333 -81.999 -69l-49 -37c-14 -10.667 -21.667 -16.334 -23 -17.001
c0 -0.666992 -0.333008 -10 -1 -28s-1 -43.333 -1 -76c-1.33301 -60 -2.33301 -140.667 -3 -242c-1.33301 -102 -2.33301 -213.333 -3 -334c-0.666992 -150.667 -2 -376.334 -4 -677.001c-6 -12.667 -15.333 -31.334 -28 -56.001c-39.333 -80 -109.333 -139.333 -210 -178
c-62.667 -24 -126.667 -36 -192 -36c-39.333 0 -79.333 4.66699 -120 14z" />
    <glyph glyph-name="K" unicode="K" horiz-adv-x="1674" 
d="M62 9c-6.66699 6.66699 -10.0049 13.665 -10.0049 20.998s3.33301 14.666 10 21.999c12.667 16 48.334 46 107.001 90c20 14.667 37.333 28 52 40c15.333 12.667 24 20 26 22c1.33301 2.66699 2.66602 56.334 3.99902 161.001s2 229.334 2 374.001v527l-19 16
c-5.33301 4 -17 13.333 -35 28l-58 45c-42.667 32.667 -69 55 -79 67s-11.667 23.333 -5 34c4 6.66699 14.333 11 31 13s55 3.33301 115 4c22.667 0.666992 42.667 1 60 1c26 0 45.667 -0.666992 59 -2c22.667 -1.33301 42.334 -5 59.001 -11
c17.333 -6 31.666 -9.33301 42.999 -10s30 1.33301 56 6c40.667 6.66699 73.334 10 98.001 10h7c26 -1.33301 44 -7 54 -17c14.667 -14.667 18.334 -30 11.001 -46s-28.666 -38.333 -63.999 -67l-48 -39v-167c0 -60.667 0.666992 -103.667 2 -129
c2 -25.333 4.66699 -38 8 -38c2.66699 0 15 9.66699 37 29l74 69l109 106l119 116l55 53l43 39c30.667 25.333 57.667 43 81 53s56.333 20 99 30s91.334 15.333 146.001 16h11c59.333 -1.33301 92.666 -7.66602 99.999 -18.999s4.33301 -24 -9 -38
c-12.667 -14 -49 -44 -109 -90c-24.667 -18.667 -59 -47.667 -103 -87l-140 -128l-203 -197c-62 -62 -93 -96.667 -93 -104c0 -4 29.333 -36 88 -96l213 -211l302 -292l111 -29l82 -23c24 -7.33301 37.667 -12 41 -14c14 -9.33301 21 -23.333 21 -42v-8
c-2 -22.667 -12 -38.667 -30 -48c-17.333 -9.33301 -52 -20 -104 -32c-51.333 -12 -89.333 -18 -114 -18c-26.667 0 -57.667 5.66699 -93 17c-36 12 -67.333 26.333 -94 43c-9.33301 6 -44.666 37.667 -105.999 95l-207 199l-201 193c-56.667 54 -86.334 82 -89.001 84
c-2.66699 1.33301 -7 1.33301 -13 0c-5.33301 -1.33301 -10.666 -3.66602 -15.999 -6.99902c-8.66699 -6 -13.667 -19.333 -15 -40c-2 -20 -3 -83.333 -3 -190v-217l48 -39c35.333 -28.667 56.666 -50.667 63.999 -66c7.33301 -16 3.66602 -31.667 -11.001 -47
c-10 -10 -28 -15.333 -54 -16h-11c-24 0 -55.333 3.33301 -94 10c-26 4 -44.667 6 -56 6c-11.333 -0.666992 -25.666 -4.33398 -42.999 -11.001c-10 -3.33301 -26.667 -6 -50 -8c-24 -2.66699 -50.333 -4.66699 -79 -6c-21.333 -0.666992 -42.666 -1 -63.999 -1
c-20 0 -39.667 0.333008 -59 1c-39.333 2 -61.666 5.33301 -66.999 10z" />
    <glyph glyph-name="L" unicode="L" horiz-adv-x="1321" 
d="M62 9c-6.66699 6.66699 -10.0039 13.334 -10.0039 20.001c0 7.33301 3.33301 15 10 23c12.667 16 48.334 46 107.001 90c20 14.667 37.333 28 52 40c15.333 12 24 19.333 26 22c1.33301 2.66699 2.66602 50.667 3.99902 144c0.666992 93.333 1.33398 200.333 2.00098 321
v155c0 52 -0.333008 102 -1 150c0 88.667 -0.666992 164 -2 226c-0.666992 61.333 -1.66699 93 -3 95c-2 2.66699 -10 9.66699 -24 21l-50 39c-43.333 32.667 -70.666 55.667 -81.999 69c-11.333 12.667 -14.333 23.667 -9 33c6.66699 10 46 15.667 118 17
c10.667 0.666992 20.667 1 30 1c55.333 0 92.666 -4 111.999 -12c19.333 -8.66699 37.333 -13 54 -13c16 0 33.667 4.33301 53 13c19.333 8 54.666 12 105.999 12c11.333 0 23.333 -0.333008 36 -1c72 -1.33301 111.333 -7 118 -17c6 -9.33301 3.33301 -20.333 -8 -33
c-12 -13.333 -39.667 -36.333 -83 -69c-18.667 -14 -35 -27 -49 -39c-14.667 -11.333 -22.667 -18.333 -24 -21c-2 -2.66699 -3.33301 -57.334 -4 -164.001s-1 -234 -1 -382c0.666992 -118.667 1.33398 -297.334 2.00098 -536.001l189 -3h73h65
c40.667 0 63.334 0.666992 68.001 2c4 1.33301 14 10.333 30 27c15.333 16.667 31.666 36 48.999 58c41.333 53.333 69.333 85.333 84 96c15.333 11.333 39.666 17 72.999 17c28.667 0 50.334 -4.33301 65.001 -13c14 -8 21 -20.333 21 -37c0 -8 -3 -25 -9 -51l-21 -85
l-32 -110c-10.667 -34.667 -18.334 -55.667 -23.001 -63c-11.333 -18 -24.666 -30.333 -39.999 -37c-15.333 -7.33301 -53.666 -11.666 -114.999 -12.999c-26.667 -1.33301 -58.667 -2 -96 -2h-132c-124.667 0 -209.667 0.666992 -255 2c-45.333 2 -75 5.33301 -89 10
c-15.333 5.33301 -27 8 -35 8c-7.33301 0 -18.666 -2.66699 -33.999 -8c-10 -3.33301 -29.333 -6 -58 -8c-28 -2.66699 -58 -4 -90 -4c-11.333 -0.666992 -22.666 -1 -33.999 -1c-26.667 0 -52 0.666992 -76 2c-34.667 2 -54 5 -58 9z" />
    <glyph glyph-name="M" unicode="M" horiz-adv-x="1755" 
d="M62 10c-6.66699 6.66699 -10.0039 13.666 -10.0039 20.999c0 6.66699 3.33301 14 10 22c12.667 16 48.334 46 107.001 90c20 14.667 37.333 28 52 40c15.333 12 24 19.333 26 22c1.33301 2.66699 2.66602 56.334 3.99902 161.001s2 229.334 2 374.001v526
c-8 6 -20 15.667 -36 29c-9.33301 8 -23.333 19.333 -42 34l-51 40c-34 26 -55.333 44.667 -64 56s-9.66699 22 -3 32c4 6 12 10.333 24 13c12 2 36 3.33301 72 4c7.33301 0.666992 14.333 1 21 1c58 0 114.333 -7 169 -21c61.333 -15.333 105 -35.333 131 -60
c6.66699 -6.66699 30.334 -36 71.001 -88l138 -180l133 -173c38.667 -48 59.334 -72 62.001 -72s23.334 24 62.001 72l133 173l137 180c41.333 52 65.333 81.333 72 88c26 24.667 69.667 44.667 131 60c54 13.333 109.667 20 167 20h22c36.667 -0.666992 61 -2 73 -4
c12 -2.66699 20 -7 24 -13c2.66699 -4 4 -8.33301 4 -13c0 -6 -2.33301 -12.333 -7 -19c-8.66699 -11.333 -30 -30 -64 -56l-52 -40l-42 -34l-35 -29v-528v-528c4 -4 10.333 -9.33301 19 -16c4.66699 -4.66699 16.334 -14.334 35.001 -29.001l58 -45
c42.667 -32.667 69 -55 79 -67s11.667 -23.333 5 -34c-4 -6.66699 -25 -11.667 -63 -15c-31.333 -2.66699 -64.666 -4 -99.999 -4h-21c-28.667 0.666992 -55.667 2 -81 4s-45.333 5.33301 -60 10c-20.667 6 -37 9.33301 -49 10s-29.333 -1.33301 -52 -6
c-34.667 -6 -64.334 -9 -89.001 -9h-13c-26 0.666992 -44 6 -54 16c-14.667 15.333 -18.334 30.666 -11.001 45.999c7.33301 16 28.333 38.333 63 67l49 39v348c0 95.333 -1 177 -3 245c-1.33301 68 -2.66602 102 -3.99902 102c-6 0 -18 -11.333 -36 -34
c-18.667 -22.667 -58.667 -74.667 -120 -156l-84 -109c-25.333 -30.667 -39.666 -46.667 -42.999 -48c-8.66699 -3.33301 -25.334 -5 -50.001 -5s-41.334 1.66699 -50.001 5c-3.33301 1.33301 -17.666 17.333 -42.999 48l-85 109
c-60.667 81.333 -100.334 133.333 -119.001 156s-30.667 34 -36 34c-2 0 -3.66699 -34 -5 -102s-2 -149.667 -2 -245v-348l48 -39c35.333 -28.667 56.666 -51 63.999 -67c7.33301 -15.333 3.66602 -30.666 -11.001 -45.999c-10 -10 -28 -15.333 -54 -16h-11
c-24 0 -55.333 3.33301 -94 10c-26 4 -44.667 5.66699 -56 5c-11.333 0 -25.666 -3.33301 -42.999 -10c-10 -3.33301 -26.667 -6.33301 -50 -9c-24 -2 -50.333 -3.66699 -79 -5c-21.333 -0.666992 -42.666 -1 -63.999 -1c-20 0 -39.667 0.333008 -59 1
c-39.333 2 -61.666 5.33301 -66.999 10z" />
    <glyph glyph-name="N" unicode="N" horiz-adv-x="1553" 
d="M62 9c-6.66699 6 -10 12.667 -10 20s3.33301 15 10 23c12.667 15.333 48.334 45 107.001 89c20 14.667 37.333 28.334 52 41.001c15.333 12 24 19 26 21c1.33301 2.66699 2.66602 56.334 3.99902 161.001s2 229.334 2 374.001v526l-36 29
c-9.33301 8 -23.333 19.333 -42 34l-51 40c-34 26.667 -55.333 45.334 -64 56.001c-8.66699 11.333 -9.66699 22.333 -3 33c7.33301 11.333 40.333 17.333 99 18h10c54 0 104 -5.33301 150 -16c63.333 -14.667 106 -30 128 -46s54.333 -54 97 -114l72 -103l72 -102l71 -101
l71 -100l131 -182c28 -36.667 44 -55 48 -55s6.66699 21 8 63c1.33301 43.333 2 128.666 2 255.999v323l-48 40c-35.333 28 -56.666 50 -63.999 66s-3.33301 31.333 12 46c9.33301 10 27.333 15.667 54 17h12c24.667 0 54.667 -3.33301 90 -10c22.667 -4 40 -5.66699 52 -5
s28.333 4 49 10c14 4 34 7.33301 60 10c25.333 2 52.333 3 81 3c6 0.666992 12.333 1 19 1c36 0 70 -1.66699 102 -5c37.333 -2.66699 58 -7.33398 62 -14.001c7.33301 -11.333 6 -23 -4 -35s-36.333 -34.333 -79 -67c-20.667 -15.333 -40 -30.333 -58 -45
c-18.667 -14 -30.667 -23.333 -36 -28l-19 -16v-528v-528l36 -29l42 -34l52 -40c34 -26.667 55.333 -45.334 64 -56.001c4.66699 -6.66699 7 -13 7 -19c0 -4.66699 -1.33301 -9.33398 -4 -14.001c-8 -11.333 -41 -17.333 -99 -18h-10c-54.667 0 -105 5.33301 -151 16
c-62.667 14.667 -105.334 30 -128.001 46c-22 16 -54 54 -96 114l-73 103l-72 102l-71 101l-71 100c-60.667 86.667 -104.334 147.334 -131.001 182.001c-27.333 36.667 -43 55 -47 55s-7 -21 -9 -63c-1.33301 -43.333 -2 -128.666 -2 -255.999v-323l48 -40
c35.333 -28 56.666 -50 63.999 -66s3.66602 -31.333 -11.001 -46c-10 -10 -28 -15.667 -54 -17h-11c-24 0 -55.333 3.33301 -94 10c-26 4.66699 -44.667 6.66699 -56 6s-25.666 -4 -42.999 -10c-10 -4 -26.667 -7 -50 -9c-24 -2.66699 -50.333 -4.33398 -79 -5.00098
c-21.333 -1.33301 -42.666 -2 -63.999 -2l-59 2c-39.333 1.33301 -61.666 4.66602 -66.999 9.99902z" />
    <glyph glyph-name="O" unicode="O" horiz-adv-x="1379" 
d="M774 222c44.667 12.667 86.9971 46.332 126.997 100.999c39.333 54.667 70 121.667 92 201c7.33301 28 12.333 55 15 81c2 25.333 3 69.333 3 132c0 62 -1 106 -3 132c-2.66699 25.333 -7.66699 52 -15 80c-22 79.333 -52.667 146.333 -92 201
c-40 54.667 -82.333 88.667 -127 102c-29.333 8 -57.666 12 -84.999 12s-55.333 -4 -84 -12c-45.333 -13.333 -87.666 -47.333 -126.999 -102s-70 -121.667 -92 -201c-8 -28 -13 -54.667 -15 -80c-2 -26 -3 -70 -3 -132c0 -62.667 1 -106.667 3 -132c2 -26 7 -53 15 -81
c21.333 -77.333 51 -142.666 89 -195.999c37.333 -54 78 -88.333 122 -103c28.667 -10 57.667 -15.333 87 -16h4c28.667 0 57.334 4.33301 86.001 13zM538.997 11.998c-67.333 18 -134.004 55.3311 -200.004 111.998c-66.667 56 -118 119 -154 189
c-37.333 71.333 -63.666 139.666 -78.999 204.999c-16 65.333 -24 138.333 -24 219c0 60 2.66699 108 8 144c6 36.667 17.667 82.334 35 137.001c36 112.667 91.333 208.667 166 288c75.333 79.333 159.333 131.333 252 156c32.667 8.66699 81.334 13 146.001 13
c65.333 0 114.333 -4.33301 147 -13c44.667 -12 86 -29.667 124 -53c38.667 -24 78.334 -56.667 119.001 -98c30 -30 52.667 -55.333 68 -76c16 -20.667 31.667 -45.667 47 -75c36.667 -71.333 63 -139.666 79 -204.999s24 -138 24 -218c0 -60 -3 -108.333 -9 -145
c-5.33301 -36.667 -16.666 -82 -33.999 -136c-36 -113.333 -91.667 -209.666 -167 -288.999c-74.667 -79.333 -158.334 -131.333 -251.001 -156c-31.333 -8 -80 -12 -146 -12h-1h-2c-67.333 0 -116.666 4.33301 -147.999 13z" />
    <glyph glyph-name="P" unicode="P" horiz-adv-x="1304" 
d="M836 895c46.667 24 78.3359 58.667 95.0029 104c8.66699 24 13 48 13 72v6c0 18 -3 35.667 -9 53c-7.33301 23.333 -19 45 -35 65c-16 19.333 -36.333 35.333 -61 48c-22 11.333 -39.667 18 -53 20c-8 1.33301 -21.667 2 -41 2c-12.667 0 -27.334 -0.333008 -44.001 -1
c-37.333 -1.33301 -64 -3 -80 -5c-16 -2.66699 -30 -7.66699 -42 -15l-29 -17c-0.666992 -38.667 -1.33398 -96.334 -2.00098 -173.001l-3 -173c4.66699 -0.666992 11 -2 19 -4c5.33301 -1.33301 20.666 -2 45.999 -2c10 -0.666992 20.333 -1 31 -1c16 0 33 0.333008 51 1
c46 0.666992 78 2.33398 96 5.00098c17.333 2.66699 33.333 7.66699 48 15zM94.002 9c-2.66699 3.33301 -4.99609 6.67285 -6.99609 10.0059c-2 4 -3 7.33301 -3 10c0 6 9.66699 18 29 36s46 39.667 80 65l41 31c11.333 10 18 16 20 18c2 2.66699 3.33301 57.334 4 164.001
c1.33301 107.333 2 235 2 383v537l-97 75c-54.667 41.333 -88 68.666 -100 81.999c-7.33301 8 -11 16 -11 24c0 4 1.33301 8 4 12c4 6.66699 14.333 11 31 13s54.667 3.33301 114 4c26.667 0.666992 49.334 1 68.001 1c28.667 0 48.667 -0.666992 60 -2
c19.333 -2 46.666 -9 81.999 -21l75 -25c13.333 5.33301 33.666 12.666 60.999 21.999c25.333 9.33301 48.666 15.666 69.999 18.999s53 5.66602 95 6.99902h44c44 0 80 -2.33301 108 -7c37.333 -6.66699 78.666 -21 123.999 -43c58.667 -28 107.334 -64.333 146.001 -109
s66.334 -96.667 83.001 -156c10 -36 15 -65 15 -87s-5.33301 -52 -16 -90c-14 -52 -37.667 -98.667 -71 -140c-32.667 -42 -74.667 -78.333 -126 -109c-44.667 -26.667 -86.334 -44.334 -125.001 -53.001s-101.667 -14.334 -189 -17.001
c-34.667 -1.33301 -86.334 -3 -155.001 -5c-0.666992 -52.667 -1.33398 -131 -2.00098 -235v-91v-78c0.666992 -47.333 2 -72.333 4 -75c1.33301 -2 9.33301 -9 24 -21l49 -39c44 -32.667 71.667 -55.334 83 -68.001s14 -23.667 8 -33c-6 -10.667 -45 -16.667 -117 -18h-34
c-53.333 0 -89.333 4 -108 12c-19.333 8 -37.333 12 -54 12s-34.334 -4 -53.001 -12c-19.333 -8 -64.666 -12.333 -135.999 -13h-8h-10c-60.667 0 -94.667 3.33301 -102 10z" />
    <glyph glyph-name="Q" unicode="Q" horiz-adv-x="1473" 
d="M731 226c11.333 4.66699 21.334 9.66602 30.001 14.999c8.66699 6 13.667 10.333 15 13c2.66699 7.33301 -4.33301 21 -21 41s-33.667 35.333 -51 46c-8 4.66699 -23 10.667 -45 18c-22 8 -44.667 15 -68 21c-24 6 -46.333 12 -67 18s-33.667 10.333 -39 13
c-20 8.66699 -31 23.667 -33 45c-2.66699 21.333 4.66602 39 21.999 53c3.33301 2.66699 16 7.66699 38 15c22 6.66699 46.333 13.667 73 21c44.667 11.333 75.334 18 92.001 20c16 1.33301 35 0 57 -4c13.333 -2 31.333 -7 54 -15c23.333 -8 44 -16.333 62 -25
c28 -12.667 46.667 -20.334 56 -23.001c8.66699 -2 14.667 -0.666992 18 4c10 16 17.333 44 22 84c4 38 6 86.667 6 146v13c0 56.667 -1.33301 98.334 -4 125.001c-2 26 -6.66699 52.333 -14 79c-26 94 -64.333 170 -115 228c-50.667 58.667 -103.667 88 -159 88
c-56 0 -109.333 -29 -160 -87c-50.667 -58.667 -88.667 -135 -114 -229c-8 -28 -13 -54.667 -15 -80c-2.66699 -26 -4 -70 -4 -132s1.33301 -106 4 -132c2 -26 6.66699 -52.333 14 -79c20 -72.667 48 -135.667 84 -189c35.333 -53.333 73.666 -89.666 114.999 -108.999
c26 -12 50.333 -18.333 73 -19h2c22 0 46 5.66699 72 17zM539.001 11.999c-67.333 18 -134.332 55.332 -200.999 111.999c-66 56 -117 119 -153 189c-20.667 39.333 -39 81.333 -55 126c-16 45.333 -28.667 90 -38 134c-4 21.333 -7 53.333 -9 96
c-0.666992 23.333 -1 46.333 -1 69c0 19.333 0.333008 38.333 1 57c0.666992 22 1.66699 42 3 60c2 18.667 4 33.667 6 45c20 93.333 49.333 176.666 88 249.999c38.667 72.667 86.667 135.334 144 188.001c49.333 46 102 80.333 158 103s115.333 34 178 34
c70 0 133.333 -13 190 -39c56.667 -25.333 113.334 -67 170.001 -125c29.333 -29.333 52 -54.666 68 -75.999c16 -20.667 31.667 -45.667 47 -75c36.667 -71.333 63 -139.666 79 -204.999s24 -138 24 -218c0 -76.667 -7.66699 -147.334 -23 -212.001
c-14.667 -64.667 -38 -129.334 -70 -194.001c-14 -26.667 -21.667 -44 -23 -52c-1.33301 -7.33301 1 -15.666 7 -24.999c9.33301 -14.667 26.666 -27.667 51.999 -39s62.666 -23.333 111.999 -36c24 -6 46 -12 66 -18s32 -10.333 36 -13c18 -9.33301 27 -25 27 -47v-2
c-0.666992 -24 -10.667 -41 -30 -51c-17.333 -9.33301 -52 -20 -104 -32c-51.333 -11.333 -89 -17 -113 -17c-27.333 0 -57.333 5 -90 15c-33.333 10.667 -66.333 25 -99 43l-44 26l-60 -30c-16 -8 -34.667 -16 -56 -24c-20.667 -8.66699 -37.667 -14.667 -51 -18
c-28 -7.33301 -63.667 -11 -107 -11h-11c-48.667 0 -88 4 -118 12z" />
    <glyph glyph-name="R" unicode="R" horiz-adv-x="1522" 
d="M831 892c37.333 19.333 65.3359 44 84.0029 74c18 30 27 65.333 27 106v2c0 44 -10.333 81 -31 111s-51.667 53 -93 69c-22 8 -53.667 12 -95 12c-9.33301 0 -19 -0.333008 -29 -1c-56 -2 -94.333 -9 -115 -21l-29 -17
c-0.666992 -38.667 -1.33398 -96.334 -2.00098 -173.001l-3 -173c4.66699 -0.666992 11 -2 19 -4c5.33301 -1.33301 20.666 -2 45.999 -2c10 -0.666992 20.333 -1 31 -1c16 0 33 0.333008 51 1c42.667 0.666992 73.667 2.33398 93 5.00098c19.333 2 34.666 6 45.999 12z
M69.0029 9c-12.667 13.333 -12.666 28.0039 0.000976562 44.0039c12.667 15.333 48.667 45 108 89l52 40c14.667 12.667 23 20 25 22c2 2.66699 3.33301 56.334 4 161.001c1.33301 104.667 2 229 2 373v525l-97 75c-54.667 41.333 -88 68.666 -100 81.999
c-7.33301 8 -11 16 -11 24c0 4 1.33301 8 4 12c4 6.66699 14.333 11 31 13s54.667 3.33301 114 4c26.667 0.666992 49.334 1 68.001 1c28.667 0 48.667 -0.666992 60 -2c19.333 -2 46.666 -9 81.999 -21l75 -25c13.333 5.33301 33.666 12.666 60.999 21.999
c25.333 9.33301 48.666 15.666 69.999 18.999s54.666 5.66602 99.999 6.99902h46c42.667 0 77 -2.33301 103 -7c34 -6 74.667 -20.333 122 -43c58.667 -28 107.334 -64.333 146.001 -109c38 -44.667 65.667 -96.667 83 -156c10 -36 15 -65 15 -87s-5.33301 -52 -16 -90
c-20 -72.667 -58.667 -135.667 -116 -189c-57.333 -52.667 -127.333 -90.667 -210 -114l-45 -13c-12.667 -4 -19.667 -6.66699 -21 -8c-2.66699 -2.66699 4 -13.334 20 -32.001c15.333 -19.333 45.333 -53.666 90 -102.999l85 -93l95 -105l103 -114l106 -27
c29.333 -7.33301 55.666 -14.333 78.999 -21c24 -6.66699 38.333 -11.334 43 -14.001c17.333 -9.33301 26 -25 26 -47v-3c-0.666992 -23.333 -10.667 -40 -30 -50c-17.333 -9.33301 -51.666 -20 -102.999 -32c-52 -11.333 -90 -17.333 -114 -18
c-12.667 0 -28.334 1.66699 -47.001 5c-19.333 3.33301 -35.666 7.33301 -48.999 12c-35.333 12 -65.666 26.667 -90.999 44c-24.667 16.667 -67.334 57.667 -128.001 123l-92 101l-126 141l-90 96c-26 26.667 -40.667 40 -44 40c-4.66699 0 -7.66699 -12.333 -9 -37
c-1.33301 -24 -2 -75.667 -2 -155v-193l48 -39c34.667 -28.667 55.667 -50.667 63 -66c8 -16 4.33301 -31.667 -11 -47c-10 -9.33301 -27.667 -14.666 -53 -15.999h-12c-24.667 0 -56 3.33301 -94 10c-25.333 4 -43.666 6 -54.999 6c-12 -0.666992 -26.667 -4 -44 -10
c-9.33301 -4 -26 -7 -50 -9c-23.333 -2.66699 -49.333 -4.33398 -78 -5.00098c-22 -1.33301 -43.667 -2 -65 -2c-20 0 -39.333 0.333008 -58 1c-40 2 -62.667 5.33301 -68 10z" />
    <glyph glyph-name="S" unicode="S" horiz-adv-x="1121" 
d="M106 7c-10 6 -15.3271 24.3369 -15.9941 55.0039v12c0 26.667 3.66699 52 11 76l15 50l-23 51c-10.667 24 -17 43.667 -19 59c-1.33301 9.33301 -2 24.666 -2 45.999c0 15.333 0.333008 33.666 1 54.999c1.33301 58 4.33301 93.333 9 106c4.66699 12 17.667 18.333 39 19
c7.33301 0 24 -11.667 50 -35c26 -22.667 68 -62.334 126 -119.001c69.333 -68.667 114.666 -112 135.999 -130c22 -18 41.667 -29.333 59 -34c21.333 -5.33301 41.666 -8 60.999 -8c18 0 35.333 2.33301 52 7c33.333 8.66699 64 27.334 92 56.001
c37.333 38.667 57.666 84.667 60.999 138v12c0 48.667 -15 93 -45 133c-14 18 -31 30.667 -51 38c-20.667 8 -76 22.333 -166 43c-80 18 -134 32.333 -162 43c-27.333 10.667 -58 28.667 -92 54c-60.667 46 -106 103 -136 171c-22 50 -33 99 -33 147
c0 18 1.66699 36.333 5 55c13.333 76 47 143.667 101 203s123.667 105.666 209 138.999c26 10 48.333 16 67 18c19.333 2 57.666 3 114.999 3c65.333 0 109.666 -2.33301 132.999 -7s62 -18.667 116 -42c15.333 -6.66699 25.666 -9.33398 30.999 -8.00098
c5.33301 0.666992 14.666 7 27.999 19l25 20c8.66699 6 15.667 10.333 21 13c10.667 6 25.667 9.33301 45 10h5c16 -0.666992 28 -3.33398 36 -8.00098c9.33301 -6 14.666 -24.333 15.999 -55v-7c0 -28.667 -3.66699 -55.667 -11 -81l-15 -50l22 -49
c10 -22.667 16 -42 18 -58c2.66699 -16 4 -46.667 4 -92c0 -38 -1 -65.333 -3 -82c-1.33301 -16.667 -4.66602 -28.667 -9.99902 -36c-14 -20 -32.333 -23 -55 -9c-22 14 -74.333 62 -157 144c-70 68.667 -115.667 112 -137 130c-22 18 -41.667 29.333 -59 34
c-26.667 6 -48.667 9 -66 9c-17.333 -0.666992 -38 -5.33398 -62 -14.001c-43.333 -14.667 -78 -42.334 -104 -83.001c-22.667 -36 -34 -74.333 -34 -115c0 -6 0.333008 -12.333 1 -19c2 -26 9.66699 -52.667 23 -80c13.333 -28 28 -48 44 -60
c6.66699 -4.66699 26.334 -12 59.001 -22c33.333 -9.33301 74.666 -20 123.999 -32c86 -19.333 143.333 -34.333 172 -45c28 -11.333 59 -29.666 93 -54.999c60.667 -46 106 -103 136 -171c22 -50 33 -99 33 -147c0 -18 -1.66699 -36.333 -5 -55
c-13.333 -76 -47 -143.667 -101 -203s-123.667 -105.666 -209 -138.999c-26 -10 -48.333 -16 -67 -18s-57 -3 -115 -3c-65.333 0 -109.666 2.33301 -132.999 7c-22.667 4.66699 -61.334 18.667 -116.001 42c-15.333 6.66699 -25.666 9.33398 -30.999 8.00098
c-4.66699 -0.666992 -14 -7 -28 -19c-7.33301 -6.66699 -15.666 -13.334 -24.999 -20.001c-8.66699 -6 -15.667 -10.333 -21 -13c-10.667 -6 -25.334 -9.33301 -44.001 -10h-6c-16 0.666992 -27.667 3.33398 -35 8.00098z" />
    <glyph glyph-name="T" unicode="T" horiz-adv-x="1360" 
d="M371 8c-2.66699 2.66699 -4.99609 5.66699 -6.99609 9c-2 4 -3 7.33301 -3 10c0 6 9.66699 18 29 36s46 39.667 80 65c15.333 11.333 28.666 21.666 39.999 30.999c12 10 19 16 21 18c1.33301 2.66699 2.66602 57.667 3.99902 165c1.33301 106.667 2 234 2 382v217
c0 59.333 -0.333008 109 -1 149c-0.666992 74.667 -1.66699 122.667 -3 144c-2 20.667 -5 31.667 -9 33c-8.66699 3.33301 -31.667 5 -69 5s-62 -1.66699 -74 -5c-5.33301 -1.33301 -16 -11 -32 -29s-33.333 -39.333 -52 -64c-18 -24 -35.667 -45.667 -53 -65
c-17.333 -20 -29 -31.333 -35 -34c-15.333 -8 -39.333 -12 -72 -12c-33.333 0 -55.333 4 -66 12c-10 6.66699 -15 22.334 -15 47.001c0 4 0.333008 8 1 12c1.33301 30.667 9.33301 72.667 24 126c7.33301 24.667 13 49.667 17 75c4.66699 26 7 47 7 63
c0 15.333 0.666992 29.333 2 42s3 20.334 5 23.001c2 3.33301 51.667 6 149 8s209 3 335 3c28 0.666992 56 1 84 1c25.333 0 51 -0.333008 77 -1h157c92 -1.33301 170 -2.66602 234 -3.99902c64.667 -2 97.667 -4.33301 99 -7c2 -2.66699 3.66699 -10.334 5 -23.001
s2.33301 -26.667 3 -42c0 -16.667 2 -38 6 -64c4.66699 -26 10.667 -52 18 -78c14.667 -54.667 22.667 -96.334 24 -125.001c0.666992 -3.33301 1 -6.33301 1 -9c0 -24 -5.33301 -39.667 -16 -47c-10.667 -8 -32.334 -12 -65.001 -12c-33.333 0 -57.333 4 -72 12
c-6.66699 2.66699 -18.667 14 -36 34c-17.333 19.333 -35 41 -53 65c-18 24.667 -35 46 -51 64c-16.667 18 -27.334 27.667 -32.001 29c-12 3.33301 -37 5 -75 5c-37.333 0 -60 -1.66699 -68 -5c-4 -1.33301 -7 -12.333 -9 -33c-2 -21.333 -3.33301 -69.333 -4 -144v-149
c-0.666992 -60 -1 -132.333 -1 -217c0.666992 -148 1.33398 -275.333 2.00098 -382c1.33301 -107.333 3 -162.333 5 -165c1.33301 -2 9.33301 -9 24 -21l49 -38c44 -33.333 71.667 -56.333 83 -69s14 -23.667 8 -33c-6.66699 -10 -45.667 -16 -117 -18h-26
c-57.333 0 -96 4 -116 12c-19.333 8 -37.333 12 -54 12s-34.334 -4 -53.001 -12c-19.333 -8 -65 -12.333 -137 -13h-18c-60 0 -93.667 3.66699 -101 11z" />
    <glyph glyph-name="U" unicode="U" 
d="M625 7c-84.667 21.333 -159.337 79.333 -224.004 174s-109.667 212.667 -135 354c-6.66699 36 -11.334 80.667 -14.001 134c-2.66699 52.667 -5 144.667 -7 276c-1.33301 46.667 -2.33301 87 -3 121c0 34 -0.333008 63 -1 87c-2 56 -4.33301 90.333 -7 103
c-2 12.667 -6 21.334 -12 26.001c-5.33301 4 -17 13.333 -35 28l-58 44c-42.667 32.667 -69 55 -79 67c-5.33301 6.66699 -8 13 -8 19v2c0 4.66699 1.33301 9.33398 4 14.001c4 6.66699 24.667 11.334 62 14.001c32 3.33301 66 5 102 5
c6.66699 0 13.334 -0.333008 20.001 -1c28 0 54.667 -1 80 -3c26 -2.66699 46 -6 60 -10c20.667 -6 37 -9.33301 49 -10c12.667 -0.666992 30.334 1 53.001 5c35.333 6.66699 65 10 89 10h12c26.667 -1.33301 45 -7 55 -17c14.667 -14.667 18.334 -30 11.001 -46
s-28.666 -38 -63.999 -66l-48 -40v-232c0.666992 -146 3.33398 -269 8.00098 -369c5.33301 -100.667 12.333 -172.334 21 -215.001c15.333 -71.333 37 -131 65 -179s57.667 -76.333 89 -85c8.66699 -2.66699 23.667 -4.66699 45 -6c22 -2 43.667 -3 65 -3c22 0 44 1 66 3
c21.333 1.33301 36.333 3.33301 45 6c31.333 8.66699 61 37 89 85s49.667 107.667 65 179c8.66699 42.667 15.667 114.334 21 215.001c4.66699 100 7.33398 223 8.00098 369v232l-48 40c-35.333 28 -56.666 50 -63.999 66s-3.66602 31.333 11.001 46c10 10 28 15.667 54 17
h11c24 0 55.333 -3.33301 94 -10c26 -4.66699 44.667 -6.66699 56 -6s25.666 4 42.999 10c16.667 6 36.334 10 59.001 12c15.333 0.666992 38 1 68 1h51c60 -1.33301 98.333 -3 115 -5s27 -6 31 -12c2.66699 -4.66699 4 -9.33398 4 -14.001c0 -6.66699 -3 -13.667 -9 -21
c-9.33301 -12 -35.333 -34.333 -78 -67l-58 -44c-18 -14.667 -29.667 -24 -35 -28c-6 -4.66699 -10 -13.334 -12 -26.001c-2.66699 -12.667 -5 -47 -7 -103c-0.666992 -24 -1.33398 -53 -2.00098 -87c0 -34 -0.666992 -74.333 -2 -121
c-2 -131.333 -4.33301 -223.333 -7 -276c-2.66699 -53.333 -7.33398 -98 -14.001 -134c-23.333 -129.333 -62.333 -238.333 -117 -327c-54 -88 -120.667 -150 -200 -186c-18.667 -8.66699 -39.334 -14.334 -62.001 -17.001c-22.667 -2 -75.667 -3.33301 -159 -4h-18h-21
c-34.667 0 -67 0.333008 -97 1c-42 1.33301 -67.333 3 -76 5z" />
    <glyph glyph-name="V" unicode="V" horiz-adv-x="1717" 
d="M715 14c-4 4.66699 -17.3359 35.665 -40.0029 92.998l-122 320l-113 301l-153 410l-49 130l-53 42c-76 59.333 -120 96 -132 110c-6.66699 7.33301 -10 14.666 -10 21.999c0 6.66699 2.66699 13 8 19c4.66699 6 26.334 10 65.001 12c23.333 1.33301 47.333 2 72 2
c16.667 0 33.667 -0.333008 51 -1c28 -1.33301 54.667 -3 80 -5c24.667 -2.66699 43 -6 55 -10c19.333 -6 35 -9.33301 47 -10c11.333 0 28.333 2 51 6c36 6.66699 66 10 90 10h12c26.667 -1.33301 45 -7 55 -17c4.66699 -4.66699 8.66699 -9.33398 12 -14.001
s5 -8.33398 5 -11.001c0 -11.333 -6 -24.333 -18 -39c-12.667 -15.333 -31 -32 -55 -50c-14.667 -11.333 -27 -21.666 -37 -30.999c-10.667 -10 -16 -16.333 -16 -19c0 -2 13.667 -40.333 41 -115l94 -254l85 -228l72 -188l25 -65c6 -16.667 9.66699 -26 11 -28
c3.33301 -5.33301 6.33301 -8.66602 9 -9.99902s5.33398 -0.666016 8.00098 2.00098c2 2 17.667 40.667 47 116l99 260l47 126l46 121l68 184c18 50 27 76.333 27 79s-5.33301 9 -16 19c-10 9.33301 -22.333 19.666 -37 30.999c-24 18 -42 34.667 -54 50
c-12.667 14.667 -19 27.667 -19 39c0 2.66699 1.66699 6.33398 5 11.001s7.33301 9.33398 12 14.001c10 10 28 15.667 54 17h7c24.667 0 57.334 -3.33301 98.001 -10c26 -4.66699 44.667 -6.66699 56 -6s25.666 4 42.999 10c10.667 4 28.334 7.33301 53.001 10
c24 2 50.333 3.66699 79 5c17.333 0.666992 34.666 1 51.999 1c24 0 47.667 -0.666992 71 -2c38.667 -2 60.334 -6 65.001 -12c5.33301 -6 8 -12 8 -18c0 -5.33301 -1.66699 -10.666 -5 -15.999c-6.66699 -11.333 -24 -28 -52 -50c-14.667 -12 -28 -22.333 -40 -31l-32 -25
c-36.667 -29.333 -59.667 -53 -69 -71c-8.66699 -17.333 -23.667 -54.666 -45 -111.999l-21 -56l-33 -86l-82 -220l-96 -257l-134 -350c-38 -98.667 -59 -150.334 -63 -155.001c-6.66699 -7.33301 -17.667 -12 -33 -14c-14.667 -2 -51.667 -3 -111 -3
c-60 0 -97.333 1 -112 3c-15.333 2 -26.333 6.66699 -33 14z" />
    <glyph glyph-name="W" unicode="W" horiz-adv-x="2236" 
d="M717 9c-4 3.33301 -19.0059 37.001 -45.0059 101.001l-127 332l-112 299l-149 398l-48 130l-53 42c-62 49.333 -100.667 80.666 -116 93.999s-23.666 23.666 -24.999 30.999c-0.666992 2 -1 4.33301 -1 7c0 12 5.66699 20 17 24c13.333 5.33301 43.666 8 90.999 8
c66 -0.666992 130 -9 192 -25c61.333 -16.667 103 -36.667 125 -60c4.66699 -6 14.334 -25 29.001 -57c14 -32.667 28.333 -69.334 43 -110.001l64 -172l67 -179l109 -289c32 -83.333 49.333 -127.666 52 -132.999c2.66699 -4.66699 5.33398 -8 8.00098 -10
c3.33301 -2 6 -2 8 0c2.66699 2.66699 9.66699 18.334 21 47.001l38 97l47 129c14 41.333 21 64.666 21 69.999s-9 34.333 -27 87l-67 184l-95 254l-44 35c-26 20 -43.333 37.667 -52 53c-8.66699 16 -9.33398 30.667 -2.00098 44c8.66699 16.667 29.334 25 62.001 25h4
c34.667 -0.666992 84.334 -10 149.001 -28c61.333 -18 103 -37.667 125 -59c22 -22 44.667 -66 68 -132c4 -10.667 8.33301 -20 13 -28s8.33398 -12 11.001 -12s6.66699 4 12 12c4.66699 8 9 17.333 13 28c23.333 66 46 110 68 132c22 21.333 63.333 41 124 59
c64.667 18 114.334 27.333 149.001 28h4c33.333 0 54.333 -8.33301 63 -25c6.66699 -13.333 5.66699 -28 -3 -44c-8.66699 -15.333 -25.667 -33 -51 -53l-44 -35l-95 -253l-67 -184c-18.667 -53.333 -28 -82.333 -28 -87s5 -21.667 15 -51l35 -99l49 -128
c15.333 -40.667 24.666 -62.667 27.999 -66c2 -2 4.66699 -2 8 0c3.33301 1.33301 6 4.33301 8 9c2.66699 4.66699 21.334 53 56.001 145l122 324l125 326c36.667 91.333 57.334 140 62.001 146c21.333 23.333 63 43.333 125 60c61.333 16 125.333 24.333 192 25
c34 0 58 -1 72 -3s23 -5.33301 27 -10c4.66699 -5.33301 7 -11.333 7 -18c0 -4.66699 -1.33301 -9.66699 -4 -15c-7.33301 -12 -24.666 -29 -51.999 -51l-50 -39l-45 -36c-13.333 -10.667 -23 -18.667 -29 -24c-6 -4.66699 -22.667 -41.667 -50 -111l-32 -84l-44 -117
l-82 -218l-113 -302l-117 -306c-34 -84.667 -53 -128.667 -57 -132c-4.66699 -3.33301 -17.334 -6 -38.001 -8c-20 -1.33301 -49 -2 -87 -2c-50 0 -82 0.666992 -96 2c-14 2 -24.333 6.66699 -31 14c-4 4 -13 23.333 -27 58c-14.667 34 -30 72.667 -46 116l-43 115
c-13.333 32.667 -21 50.667 -23 54c-7.33301 9.33301 -15.666 4.33301 -24.999 -15c-10 -19.333 -30.333 -70.666 -61 -153.999c-16 -43.333 -31 -82 -45 -116c-14.667 -34.667 -24 -54 -28 -58c-6.66699 -7.33301 -17 -12 -31 -14c-14 -1.33301 -45.667 -2 -95 -2
c-38.667 0 -68 0.666992 -88 2c-20.667 2 -33.334 4.66699 -38.001 8z" />
    <glyph glyph-name="X" unicode="X" horiz-adv-x="1792" 
d="M84 9c-13.333 13.333 -13.001 28.002 0.999023 44.002c14 16.667 53 49 117 97c21.333 15.333 41 31.666 59 48.999s43 44 75 80l58 70l81 98l85 104l62 76c52 64 79.333 100.667 82 110c3.33301 9.33301 1.66602 19.333 -5.00098 30c-6 8.66699 -25 33 -57 73l-107 133
l-139 170c-44 53.333 -69.333 83 -76 89c-9.33301 8.66699 -23.333 16.334 -42 23.001c-19.333 6.66699 -49.333 15 -90 25c-30 7.33301 -56.667 14.666 -80 21.999s-36.666 12.333 -39.999 15c-10.667 11.333 -16.334 25.333 -17.001 42v2c0 16 5.33301 29.667 16 41
c12 14.667 40.333 28 85 40c45.333 12.667 92 21.667 140 27c30.667 4 59.334 6 86.001 6h4c28.667 -0.666992 50.667 -3.66699 66 -9c9.33301 -3.33301 31 -24.333 65 -63s87.333 -103 160 -193c66 -82 117 -143.667 153 -185c34.667 -40 54.667 -60 60 -60
c2.66699 0 21.334 19.333 56.001 58l115 137l118 145c36 42.667 57.667 68 65 76c26.667 28.667 71.334 51.667 134.001 69c55.333 15.333 114 23 176 23h22c36.667 -1.33301 61.334 -3 74.001 -5c12 -2 20 -6 24 -12c7.33301 -11.333 5.66602 -23 -5.00098 -35
c-11.333 -12.667 -40.333 -37 -87 -73c-22.667 -18 -49.334 -41 -80.001 -69c-30 -27.333 -55 -52 -75 -74l-78 -90l-97 -115l-133 -167c-40 -50.667 -60 -78.334 -60 -83.001c0 -3.33301 9.33301 -17.666 28 -42.999c18.667 -24.667 41.334 -53 68.001 -85l99 -119
l101 -123l80 -94c24 -28 38.667 -44.333 44 -49c6.66699 -6 21 -12.667 43 -20s50.333 -15.333 85 -24c30 -6.66699 56.667 -13.667 80 -21s36.666 -12.666 39.999 -15.999c2.66699 -2.66699 5.66699 -7.66699 9 -15s5.66602 -14.666 6.99902 -21.999
c0.666992 -4 1 -8.33301 1 -13v-2c0 -16 -7 -29 -21 -39c-18.667 -13.333 -56.667 -27 -114 -41c-59.333 -15.333 -114 -24 -164 -26h-8h-11c-39.333 0 -68.666 5 -87.999 15c-8.66699 4.66699 -33.334 31 -74.001 79l-156 188l-145 179
c-41.333 50.667 -63.333 76.667 -66 78s-6 1.66602 -10 0.999023c-4.66699 -0.666992 -8.66699 -2.33398 -12 -5.00098c-4.66699 -4 -25.667 -28.667 -63 -74l-118 -143l-75 -94c-23.333 -28.667 -40 -50 -50 -64c-34 -46 -65 -77.667 -93 -95
c-27.333 -17.333 -72 -33.333 -134 -48c-14 -3.33301 -30 -6.33301 -48 -9c-18 -2 -36.333 -3.66699 -55 -5c-23.333 -2 -45.666 -3 -66.999 -3c-10.667 0 -21 0.333008 -31 1c-30 1.33301 -47.667 4.66602 -53 9.99902z" />
    <glyph glyph-name="Y" unicode="Y" horiz-adv-x="1640" 
d="M512 10c-2.66699 2.66699 -4.99902 6.00098 -6.99902 10.001s-3 7 -3 9c0 6.66699 9.66699 18.667 29 36c19.333 18 46 39.667 80 65l40 32c12 9.33301 18.667 15.333 20 18c2 2.66699 3.66699 26.334 5 71.001s2 97.334 2 158.001v220l-209 314l-209 313l-103 79
c-56.667 43.333 -91 71.666 -103 84.999c-8 8.66699 -12 17 -12 25c0 4 1.33301 8 4 12c3.33301 6 11.333 10.333 24 13c12 2 36 3.33301 72 4c7.33301 0.666992 14.333 1 21 1c56.667 0 111 -6.66699 163 -20c59.333 -14.667 106 -35 140 -61
c9.33301 -6.66699 31 -33.667 65 -81c34 -46.667 75 -106.334 123 -179.001l114 -167c32.667 -46.667 50 -70 52 -70c2.66699 0 20.334 23.333 53.001 70l115 169c44.667 67.333 85 125.666 121 174.999c36 50 57.667 78 65 84c33.333 25.333 80 45.333 140 60
c52.667 12.667 106.667 19 162 19h23c36 -0.666992 60 -2 72 -4c12 -2.66699 20 -7 24 -13c2.66699 -4 4 -8 4 -12c0 -8 -4 -16.333 -12 -25c-12 -13.333 -46.333 -41.666 -103 -84.999l-103 -79l-209 -313l-209 -314v-220c0 -60.667 0.666992 -113.334 2 -158.001
s3 -68.334 5 -71.001c1.33301 -2.66699 9.33301 -9.66699 24 -21c14 -12 30.333 -25 49 -39c43.333 -33.333 70.666 -56.333 81.999 -69s14.333 -23.667 9 -33c-6.66699 -10 -46 -15.667 -118 -17c-12.667 -0.666992 -24.667 -1 -36 -1c-52 0 -87.333 4 -106 12
c-19.333 8.66699 -37 13 -53 13c-16.667 0 -34.667 -4 -54 -12c-18.667 -8 -64 -12.333 -136 -13c-6 -0.666992 -12 -1 -18 -1c-60.667 0.666992 -94.334 4.33398 -101.001 11.001z" />
    <glyph glyph-name="Z" unicode="Z" horiz-adv-x="1374" 
d="M52 9c-6.66699 6 -10.001 12.6689 -10.001 20.002s3.33301 15.333 10 24c14 16 52.333 47.667 115 95l80 59l287 517l203 368c56.667 103.333 85 156.666 85 159.999c0 5.33301 -12.333 9 -37 11c-24 1.33301 -79.667 2 -167 2c-75.333 0 -129.333 -0.666992 -162 -2
c-32 -2 -50.333 -5 -55 -9c-3.33301 -2.66699 -12.666 -13 -27.999 -31l-49 -60c-17.333 -22.667 -34 -43 -50 -61c-16 -17.333 -26 -27.333 -30 -30c-4.66699 -2 -13.667 -4 -27 -6c-13.333 -1.33301 -27 -2 -41 -2c-27.333 0 -48 4 -62 12
c-14.667 8.66699 -22 21.334 -22 38.001c0 6.66699 2.33301 20.667 7 42s10.667 45.666 18 72.999c10.667 40 22 80 34 120s20.667 64.333 26 73c11.333 18 25 30.667 41 38c15.333 6.66699 55 11 119 13c27.333 0.666992 60.666 1 99.999 1
c38.667 0.666992 85.334 1 140.001 1c132 0 221.667 -1 269 -3c47.333 -1.33301 78 -4.66602 92 -9.99902c14.667 -5.33301 26 -8 34 -8c8.66699 0.666992 20.667 3.66699 36 9c14 4.66699 33.333 7.66699 58 9c16.667 0.666992 39.334 1 68.001 1h48
c60 -1.33301 98.333 -3 115 -5s27 -6 31 -12c2.66699 -4.66699 4 -9 4 -13c0 -7.33301 -3.33301 -15 -10 -23c-11.333 -12.667 -41.666 -37.667 -90.999 -75c-24.667 -18.667 -46.667 -36.334 -66 -53.001c-19.333 -16 -30.333 -26.333 -33 -31
c-10.667 -16 -41.667 -70.333 -93 -163l-171 -309l-80 -145l-75 -138l-111 -206c-29.333 -54 -44 -82 -44 -84c0 -2.66699 17.667 -4.66699 53 -6c33.333 -1.33301 71.666 -2 114.999 -2c52.667 0 103.334 1 152.001 3s75 4.66699 79 8c3.33301 2.66699 12.666 13 27.999 31
s31.666 38.333 48.999 61c17.333 22 34 42 50 60c16 17.333 26 27.333 30 30c4.66699 2 13.667 4 27 6s27 3 41 3c27.333 0 48.333 -4.33301 63 -13c14 -8.66699 21 -21.334 21 -38.001c0 -6.66699 -2.33301 -20.667 -7 -42s-10.667 -45.666 -18 -72.999
c-10.667 -40 -22 -80 -34 -120s-20.667 -64.333 -26 -73c-11.333 -18 -24.666 -30.333 -39.999 -37c-16 -7.33301 -55.333 -12 -118 -14c-26 -0.666992 -58 -1 -96 -1h-138c-128 0 -215.333 0.666992 -262 2c-46 1.33301 -76 4.66602 -90 9.99902
c-15.333 5.33301 -27 8 -35 8s-19.333 -2.66699 -34 -8c-10 -4 -29.333 -7 -58 -9c-28 -2 -58 -3.33301 -90 -4h-34c-26.667 0 -52.334 0.666992 -77.001 2c-34 1.33301 -53 4.33301 -57 9z" />
    <glyph glyph-name="bracketleft" unicode="[" horiz-adv-x="994" 
d="M172 -229c-22.667 6.66699 -42.002 18.3301 -58.002 34.9971s-25.667 35 -29 55c-0.666992 2.66699 -1 16.667 -1 42c-0.666992 25.333 -1 60 -1 104c-0.666992 80.667 -1 188 -1 322v47v116v272l3 877l19 26c11.333 16 24.666 28 39.999 36c15.333 7.33301 46 12 92 14
c24.667 1.33301 55.334 2.33301 92.001 3h134h102h76c50 -1.33301 85.667 -3.33301 107 -6c22 -2.66699 48.667 -7.66699 80 -15c48.667 -12 82 -23.667 100 -35c17.333 -11.333 26 -27.666 26 -48.999c0 -20.667 -8.66699 -36.667 -26 -48
c-18 -11.333 -51.333 -23 -100 -35c-42 -9.33301 -77.333 -15.333 -106 -18c-28 -2 -81.333 -3 -160 -3c-48 -0.666992 -90 -1.66699 -126 -3s-55.667 -2.66602 -59 -3.99902c-2.66699 -2 -4.66699 -23.333 -6 -64s-2 -114 -2 -220c-0.666992 -56.667 -1 -124.667 -1 -204
s0.333008 -171.666 1 -276.999c0.666992 -168.667 1.33398 -421.667 2.00098 -759c42.667 -0.666992 107 -2.33398 193 -5.00098c86.667 -2 145 -4.33301 175 -7c30 -3.33301 63.667 -10 101 -20c23.333 -6 44.333 -12.333 63 -19c18.667 -7.33301 30 -12.666 34 -15.999
c8 -8 12 -23.333 12 -46s-4 -38 -12 -46c-4 -3.33301 -15.333 -8.66602 -34 -15.999c-18.667 -6.66699 -39.667 -13 -63 -19c-28.667 -8 -53 -13.667 -73 -17c-20 -2.66699 -54.667 -4.66699 -104 -6c-21.333 -0.666992 -46.333 -1 -75 -1c-29.333 -0.666992 -64 -1 -104 -1
c-44 -0.666992 -82.333 -1 -115 -1c-50 0 -87 0.333008 -111 1c-41.333 1.33301 -69.666 4.66602 -84.999 9.99902z" />
    <glyph glyph-name="backslash" unicode="\" horiz-adv-x="1410" 
d="M1080 -102l-86.999 44.001l-400 720l-151 272l-110 196l-64 114l-47 79c-24.667 41.333 -44 71.333 -58 90s-29.333 37.667 -46 57c-21.333 24 -39.333 45 -54 63c-14.667 18.667 -22 29 -22 31c0 2.66699 2 6 6 10s9 8 15 12c8.66699 5.33301 20 8.66602 34 9.99902
c6.66699 0.666992 15.667 1 27 1c12.667 0 28 -0.333008 46 -1c41.333 -1.33301 69.666 -4 84.999 -8c14.667 -4 40.334 -15.333 77.001 -34c21.333 -10.667 41 -22 59 -34c18 -11.333 29.333 -19.666 34 -24.999c1.33301 -2 7.66602 -13 18.999 -33l48 -83l144 -258
l194 -349l164 -294l113 -201c56.667 -100.667 96 -167.667 118 -201c22 -32.667 43.667 -61.334 65 -86.001c42 -48.667 66.667 -79.334 74 -92.001c3.33301 -5.33301 5 -10.666 5 -15.999s-2.33301 -10.333 -7 -15c-5.33301 -5.33301 -15 -9 -29 -11
c-14 -1.33301 -39 -2 -75 -2h-91z" />
    <glyph glyph-name="bracketright" unicode="]" horiz-adv-x="994" 
d="M188 -227c-56 13.333 -92.001 23.3301 -108.001 29.9971s-26.333 16.667 -31 30c-5.33301 13.333 -6.66602 28 -3.99902 44s8.33398 27.333 17.001 34c2.66699 2.66699 13.334 7 32.001 13c18 6.66699 38.333 13 61 19c37.333 10 71 16.333 101 19
s88.333 5.33398 175 8.00098c42.667 0.666992 107 2.33398 193 5.00098c0.666992 168 1.33398 420.667 2.00098 758c0 105.333 0.333008 197.666 1 276.999c0 79.333 -0.333008 147.333 -1 204c0 106.667 -0.666992 180.334 -2 221.001s-3.33301 61.667 -6 63
c-3.33301 2 -23 3.66699 -59 5s-78 2 -126 2c-78.667 0 -132.334 1.33301 -161.001 4c-28 2 -63 8 -105 18c-48.667 11.333 -82 22.666 -100 33.999c-17.333 12 -26 28.333 -26 49s8.66699 36.667 26 48c18 12 51.333 23.667 100 35c31.333 7.33301 57.666 12.333 78.999 15
c22 3.33301 58 5.33301 108 6c21.333 0 46.666 0.333008 75.999 1h104h105c29.333 0 54 -0.333008 74 -1c48 -0.666992 79 -2.33398 93 -5.00098s27.333 -7 40 -13c20.667 -10.667 35.667 -21 45 -31s15.333 -55.667 18 -137c1.33301 -26.667 2 -58.667 2 -96
c0.666992 -37.333 1 -81.666 1 -132.999v-73v-168c0 -93.333 -0.333008 -203.333 -1 -330c0 -133.333 -0.333008 -247.333 -1 -342c0 -95.333 -0.333008 -175.666 -1 -240.999c0 -46 -0.333008 -85.667 -1 -119c0 -32.667 -0.333008 -61 -1 -85
c-1.33301 -54 -3.33301 -87.333 -6 -100c-2 -12.667 -5 -21.667 -9 -27c-5.33301 -6.66699 -12.666 -14 -21.999 -22c-10 -8 -19.667 -14.333 -29 -19c-10 -4.66699 -21.667 -8.33398 -35 -11.001c-13.333 -2 -39.333 -3.66699 -78 -5c-21.333 -0.666992 -47 -1 -77 -1
c-30.667 -0.666992 -67.667 -1 -111 -1c-38.667 -0.666992 -72.334 -1 -101.001 -1h-27h-46c-48.667 0.666992 -83.667 2.33398 -105 5.00098c-20.667 2.66699 -45 7.33398 -73 14.001z" />
    <glyph glyph-name="asciicircum" unicode="^" horiz-adv-x="1236" 
d="M64 1006c-14.667 6 -22.002 13.9971 -22.002 23.9971c0 4 1 8.33301 3 13c8 16.667 38.667 55 92 115c14.667 17.333 33.667 43.666 57 78.999c22.667 36 47.334 78 74.001 126l83 151l83 42c18.667 8.66699 46.334 22.334 83.001 41.001h101h101l83 -41l83 -42l85 -153
c32 -58 58.667 -103.333 80 -136c22 -32.667 45.667 -63.667 71 -93c40.667 -46 64 -74 70 -84c2.66699 -4.66699 4 -9.33398 4 -14.001c0 -5.33301 -2 -10.666 -6 -15.999c-5.33301 -7.33301 -13.666 -11.666 -24.999 -12.999c-12 -2 -38 -3 -78 -3
c-44.667 0.666992 -74.334 2.66699 -89.001 6s-41.667 14.333 -81 33c-22 10.667 -42 21.334 -60 32.001c-18.667 10.667 -29.667 18 -33 22c-4 4.66699 -14.667 22 -32 52l-58 102c-33.333 60.667 -59.333 105.334 -78 134.001s-31 43 -37 43s-18.333 -14.333 -37 -43
s-44.667 -73.334 -78 -134.001c-20.667 -38 -40 -72 -58 -102c-17.333 -30 -28 -47.333 -32 -52c-3.33301 -4 -14 -11.333 -32 -22c-18.667 -10 -39 -20.333 -61 -31c-36.667 -18 -63 -29 -79 -33s-42.667 -6.66699 -80 -8c-10 -0.666992 -20 -1 -30 -1
c-10.667 0 -21 0.333008 -31 1c-19.333 0.666992 -31.333 2.33398 -36 5.00098z" />
    <glyph glyph-name="underscore" unicode="_" horiz-adv-x="1430" 
d="M85 -180c-21.333 6 -35.334 10.335 -42.001 13.002c-22 10.667 -33 29.667 -33 57v3c1.33301 28.667 13.666 47.667 36.999 57c6 2.66699 20.333 6.66699 43 12c22 6 45.333 11.667 70 17l91 21l488 -3c108.667 0 271.334 -0.666992 488.001 -2l84 -23
c22.667 -6 43.667 -12.667 63 -20c18.667 -6.66699 29.667 -12 33 -16c8.66699 -8 13 -23.333 13 -46c0 -22 -4.33301 -37.333 -13 -46c-3.33301 -3.33301 -14.333 -8.33301 -33 -15c-19.333 -7.33301 -40.333 -14 -63 -20l-84 -23
c-110 -0.666992 -274.667 -1.33398 -494 -2.00098c-110 -0.666992 -275 -1.33398 -495 -2.00098l-86 20c-23.333 5.33301 -45.666 11.333 -66.999 18z" />
    <glyph glyph-name="grave" unicode="`" horiz-adv-x="603" 
d="M386 1167l-48.002 31.001l-69 46l-74 51l-59 41c-54 36.667 -85 73.667 -93 111c-1.33301 6 -2 12 -2 18c0 30.667 16.333 60 49 88c34 29.333 72.667 44 116 44s82.333 -14.667 117 -44c14.667 -12.667 37 -39.334 67 -80.001c30.667 -40 78.334 -107 143.001 -201
c16.667 -24.667 26 -47.334 28 -68.001c0.666992 -3.33301 1 -6.66602 1 -9.99902c0 -15.333 -5.33301 -27 -16 -35c-11.333 -8 -30.666 -12 -57.999 -12h-17c-36.667 2 -65 8.66699 -85 20z" />
    <glyph glyph-name="a" unicode="a" horiz-adv-x="1156" 
d="M584 232l31.999 15c0.666992 19.333 1.33398 48 2.00098 86c0.666992 18 1 32.667 1 44c0 14 -0.333008 23.667 -1 29c-1.33301 8.66699 -5.33301 13 -12 13s-24 -2.66699 -52 -8l-117 -26c-60.667 -14 -91.334 -40.333 -92.001 -79v-2
c0.666992 -38.667 30.334 -67.667 89.001 -87c10.667 -3.33301 24.667 -5 42 -5c10 0 20.667 0.666992 32 2c32.667 3.33301 58 9.33301 76 18zM344.999 16c-100.667 27.333 -176.997 73.668 -228.997 139.001c-36.667 46.667 -55 95.334 -55 146.001c0 20 3 40.667 9 62
c9.33301 31.333 24 59.666 44 84.999s47.333 50 82 74c36 24.667 72.333 43 109 55c36 12.667 81 21.667 135 27c46.667 4.66699 81 10 103 16c22 5.33301 34.667 12.333 38 21c4 10.667 -4.66699 29 -26 55c-20.667 25.333 -42 43.666 -64 54.999c-28 14 -52 21 -72 21
c-4 0 -7.66699 -0.333008 -11 -1c-21.333 -2.66699 -47 -16.667 -77 -42c-13.333 -12 -27 -23 -41 -33c-13.333 -9.33301 -22.666 -15.333 -27.999 -18c-14 -4.66699 -42 -7 -84 -7c-42 0.666992 -68 3.66699 -78 9c-10.667 5.33301 -15.667 13.666 -15 24.999
c1.33301 10.667 9.66602 43 24.999 97c17.333 60.667 34 99.667 50 117s50.667 33 104 47c38 9.33301 86.333 14.333 145 15h8c55.333 0 98 -4.33301 128 -13c31.333 -9.33301 65.666 -24 102.999 -44s67.666 -40 90.999 -60c27.333 -23.333 53.666 -55 78.999 -95
c25.333 -39.333 45 -79 59 -119c10.667 -31.333 17.334 -59.666 20.001 -84.999c3.33301 -24.667 6 -80.667 8 -168c1.33301 -51.333 2.66602 -95.333 3.99902 -132c2 -37.333 3.66699 -56.333 5 -57c1.33301 -1.33301 9.33301 -7.33301 24 -18l51 -39
c60.667 -44.667 98.334 -76 113.001 -94c8 -10 12 -19 12 -27c0 -7.33301 -3 -14 -9 -20c-3.33301 -3.33301 -16.333 -6 -39 -8c-22.667 -1.33301 -56.334 -2 -101.001 -2c-62 -0 -103 1.33301 -123 4s-48.667 10 -86 22l-78 26l-60 -23
c-41.333 -15.333 -86.333 -24.333 -135 -27h-22c-41.333 0 -80 4.66699 -116 14z" />
    <glyph glyph-name="b" unicode="b" horiz-adv-x="1284" 
d="M784 207c23.333 6.66699 48.0029 23.6699 74.0029 51.0029s45 56.333 57 87c16 43.333 24 87 24 131v6c0 35.333 -5.66699 70.666 -17 105.999c-24.667 83.333 -67.667 136.666 -129 159.999c-20.667 8 -49 12 -85 12c-8.66699 0 -17.334 -0.333008 -26.001 -1
c-48.667 -2 -83 -9 -103 -21l-29 -17c-0.666992 -52.667 -1.33398 -131.667 -2.00098 -237c-0.666992 -34.667 -1 -65.667 -1 -93c0 -38.667 0.333008 -69.334 1 -92.001c1.33301 -38.667 3.66602 -60 6.99902 -64c12.667 -15.333 45.334 -26.333 98.001 -33
c20.667 -2.66699 40 -4 58 -4c27.333 0 51.666 3 72.999 9zM61.0029 -1.99707c-12.667 13.333 -11.667 29.001 3 47.001s52.334 49.667 113.001 95l52 40c15.333 12 23.666 19.333 24.999 22c2 2 3.66699 59 5 171c0.666992 112 1 245 1 399c0 154.667 -0.333008 288 -1 400
c-1.33301 111.333 -3 168.333 -5 171c-1.33301 2.66699 -9.66602 10 -24.999 22l-52 40c-60.667 45.333 -98.334 77 -113.001 95c-8 9.33301 -12 18.333 -12 27c0 6.66699 3 13 9 19c3.33301 3.33301 14.666 6 33.999 8c19.333 1.33301 46.666 2 81.999 2
c76.667 0 147.667 -8.66699 213 -26c66 -17.333 111 -39.333 135 -66c5.33301 -5.33301 9 -13.333 11 -24c2.66699 -10.667 4.66699 -33.667 6 -69c0.666992 -20 1.33398 -44.333 2.00098 -73s1.33398 -63.667 2.00098 -105c2 -109.333 3.66699 -178.666 5 -207.999
c2 -29.333 6 -44 12 -44c3.33301 0.666992 11 2.33398 23 5.00098c12.667 2.66699 25.667 6 39 10c31.333 8.66699 70.333 13 117 13s86 -4 118 -12c82 -21.333 152.667 -61.333 212 -120s101.333 -126.334 126 -203.001c13.333 -41.333 21.333 -84.333 24 -129
c0.666992 -8 1 -16 1 -24c-0.666992 -36.667 -5.33398 -73 -14.001 -109c-23.333 -98 -65.333 -178.333 -126 -241c-61.333 -62.667 -139.666 -106.334 -234.999 -131.001c-31.333 -8 -67.666 -12 -108.999 -12c-13.333 0 -27.333 0.333008 -42 1
c-59.333 4 -109 13.333 -149 28l-60 23c-17.333 -5.33301 -43.333 -14 -78 -26c-36.667 -12 -65.334 -19.333 -86.001 -22c-20 -2.66699 -60.667 -4 -122 -4c-45.333 0 -79.333 1 -102 3c-22.667 1.33301 -35.667 3.66602 -39 6.99902z" />
    <glyph glyph-name="c" unicode="c" horiz-adv-x="1043" 
d="M428 15c-56 15.333 -106.668 37.998 -152.001 67.998s-82.666 65.667 -111.999 107c-26 36 -45 67.333 -57 94c-12 26 -23 59.667 -33 101c-8.66699 38 -13 75.333 -13 112c0 68 14.667 135 44 201c46 102.667 116.333 178.667 211 228c40 21.333 77.667 36 113 44
c34.667 8.66699 76.334 13 125.001 13c70 0 128.333 -7 175 -21c46 -14 92.333 -38.333 139 -73c52 -39.333 85.333 -78.666 100 -117.999c6.66699 -17.333 10 -35 10 -53c0 -23.333 -5.66699 -47.666 -17 -72.999c-4.66699 -10.667 -12.667 -24.334 -24 -41.001
c-10.667 -16.667 -22.667 -34.334 -36 -53.001c-20 -27.333 -40.333 -53.333 -61 -78c-20 -24 -34.333 -38.333 -43 -43c-4 -2.66699 -12.667 -4.66699 -26 -6c-13.333 -2 -27 -3 -41 -3c-20 0 -34.667 1.33301 -44 4c-9.33301 2 -17.333 6.33301 -24 13
c-10.667 10.667 -15.667 24 -15 40c1.33301 15.333 9.66602 53.666 24.999 114.999c12 48.667 18.667 79.334 20 92.001s-1 23.667 -7 33c-15.333 22.667 -43.333 38.667 -84 48c-17.333 4 -34 6 -50 6c-21.333 0 -41.333 -3.66699 -60 -11c-28 -10.667 -52 -27.667 -72 -51
c-20.667 -23.333 -37 -50.333 -49 -81c-16.667 -41.333 -25 -85.666 -25 -132.999c0 -18 1.33301 -36.667 4 -56c8 -68.667 34 -125.334 78 -170.001c23.333 -24.667 47.666 -41 72.999 -49c18.667 -6 43 -9 73 -9c10 0 20.667 0.333008 32 1c34.667 2 60.667 7.33301 78 16
c18 8 45.667 28 83 60c15.333 12.667 28 20.667 38 24c10.667 2.66699 33.334 4.66699 68.001 6c10.667 0.666992 20.667 1 30 1c27.333 0 46.666 -2.33301 57.999 -7c14 -5.33301 21 -17.666 21 -36.999c0 -18 -12 -48 -36 -90c-23.333 -42 -46.666 -74.667 -69.999 -98
s-48 -40.666 -74 -51.999c-26 -12 -58.667 -20.667 -98 -26c-38 -4.66699 -80.333 -7 -127 -7h-9h-16c-56 1.33301 -97 5.33301 -123 12z" />
    <glyph glyph-name="d" unicode="d" horiz-adv-x="1274" 
d="M700 231l34.002 16.001v243v243c-6.66699 3.33301 -16.334 9 -29.001 17c-20.667 12 -55 19 -103 21c-8.66699 0.666992 -17.334 1 -26.001 1c-36 -0.666992 -64.333 -5 -85 -13c-51.333 -19.333 -89.333 -58.333 -114 -117c-21.333 -48.667 -32 -99 -32 -151l2 -33
c2.66699 -34.667 10.334 -68 23.001 -100c12 -32.667 29.333 -61.334 52 -86.001c10 -10.667 21.667 -20.667 35 -30c13.333 -10 24.666 -16.667 33.999 -20c19.333 -7.33301 46 -11 80 -11c8 0 16.667 0.333008 26 1c46.667 2 81 8.33301 103 19zM428.002 13.001
c-57.333 16 -108.33 38.6689 -152.997 68.002c-44.667 30 -81.667 65.667 -111 107c-26 36.667 -45 68 -57 94s-23 60 -33 102c-8.66699 36.667 -13 73.667 -13 111c0 46 7 92.333 21 139c25.333 83.333 69.666 156 132.999 218c26 25.333 61.333 50 106 74
s85 39.667 121 47c22 4.66699 50 7 84 7c13.333 0 27.666 -0.333008 42.999 -1c54 -2.66699 93.333 -8.66699 118 -18c10 -3.33301 19.333 -6 28 -8c8 -2 13.333 -2.33301 16 -1c2 2 3.66699 27 5 75c1.33301 48.667 2 99.667 2 153c0 44 -0.666992 83.333 -2 118
c-0.666992 35.333 -2 54.333 -4 57s-10.667 10 -26 22c-14.667 12 -32 25.333 -52 40c-60.667 45.333 -98.334 77 -113.001 95s-15.667 33.333 -3 46c4 3.33301 15.333 6 34 8c19.333 1.33301 47 2 83 2c76 0 147 -8.66699 213 -26c65.333 -17.333 110 -39.333 134 -66
c6 -6.66699 10 -21.334 12 -44.001c2.66699 -22.667 4.66699 -87.334 6 -194.001c0.666992 -46 1 -102 1 -168c0.666992 -66 1.33398 -144.667 2.00098 -236c1.33301 -171.333 2.66602 -318.333 3.99902 -441c2 -122.667 3.66699 -184.334 5 -185.001
c0.666992 -1.33301 8.33398 -7.33301 23.001 -18l52 -39c60.667 -44.667 98.334 -76 113.001 -94c8 -10 12 -19 12 -27c0 -7.33301 -3 -14 -9 -20c-3.33301 -3.33301 -16.333 -6 -39 -8c-22.667 -1.33301 -56.667 -2 -102 -2c-61.333 -0 -102 1.33301 -122 4
c-20.667 2.66699 -49.334 10 -86.001 22l-78 26l-60 -23c-26 -10 -48.667 -16.333 -68 -19c-20 -3.33301 -51 -5.66602 -93 -6.99902c-14.667 -0.666992 -28.334 -1 -41.001 -1c-18.667 0 -34.667 0.666992 -48 2c-22 1.33301 -41.333 4.33301 -58 9z" />
    <glyph glyph-name="e" unicode="e" horiz-adv-x="1089" 
d="M686 605c32.667 18 52.335 38 59.002 60c1.33301 5.33301 2 10.666 2 15.999c0 16.667 -8 32.334 -24 47.001s-36 25.667 -60 33c-23.333 6 -52 9.33301 -86 10h-3c-35.333 -0.666992 -64.666 -5.66699 -87.999 -15c-24 -10 -45.667 -26.333 -65 -49
c-20 -22 -35.333 -45.333 -46 -70c-6 -14 -9 -25 -9 -33c0 -5.33301 1.66699 -9 5 -11s19.666 -3.33301 48.999 -4c17.333 -0.666992 36.666 -1 57.999 -1h43c56 1.33301 94.667 3 116 5s37.666 6 48.999 12zM428.001 13c-94 25.333 -171.997 71.335 -233.997 138.002
c-61.333 66.667 -102.333 149 -123 247c-6.66699 32.667 -10 65 -10 97c0 71.333 16.667 141.666 50 210.999c48 100.667 120 175 216 223c71.333 35.333 161.333 53 270 53h7c112 -0.666992 207.667 -27.334 287 -80.001c47.333 -31.333 81.666 -65 102.999 -101
c22 -36 33 -77 33 -123c0 -64.667 -25.667 -122.667 -77 -174c-52 -52 -121.333 -89 -208 -111c-26 -6.66699 -53 -11 -81 -13s-72.667 -3 -134 -3c-85.333 0 -134 -3 -146 -9c-12 -5.33301 -9.33301 -23 8 -53c14.667 -24.667 32.334 -45.667 53.001 -63
c20.667 -18 42 -29.667 64 -35c10 -2.66699 26.667 -4.66699 50 -6c15.333 -0.666992 30.666 -1 45.999 -1h24c46 2 76.333 6 91 12c15.333 6 46 26.667 92 62c15.333 12 28.666 19.333 39.999 22c10.667 2 35.334 3 74.001 3c26 0 46.667 -0.666992 62 -2
c16 -2 25.667 -4.66699 29 -8c8.66699 -8.66699 11 -21.667 7 -39c-3.33301 -18 -13.333 -42 -30 -72c-43.333 -78 -91.333 -129 -144 -153c-50.667 -23.333 -138 -35 -262 -35h-6c-32.667 -0 -62.334 1.33301 -89.001 4c-26.667 2 -47.334 5 -62.001 9z" />
    <glyph glyph-name="f" unicode="f" horiz-adv-x="1065" 
d="M117 2c-8.66699 10.667 -7.66602 22.6611 3.00098 35.9941c11.333 14 38.333 37.667 81 71l80 61c0 64.667 0.666992 161.667 2 291v121c0 16 0.333008 31 1 45c0 13.333 -0.333008 25.333 -1 36c0 40.667 -1 66.334 -3 77.001s-5.33301 17 -10 19
c-4 2 -15.667 5.66699 -35 11c-18.667 5.33301 -39.667 10.666 -63 15.999c-54.667 12 -90 25.333 -106 40c-9.33301 8.66699 -14 19.334 -14 32.001v2c0 9.33301 2 19.333 6 30c4.66699 12 14.667 22.333 30 31s37.666 16.334 66.999 23.001c11.333 3.33301 25.333 7 42 11
l44 12l44 12v142c0 95.333 5.33301 161.333 16 198c10 36 35 73.667 75 113c44 44 92.667 76.333 146 97c48 18.667 98.667 28 152 28c7.33301 0 14.333 -0.333008 21 -1c27.333 -1.33301 48.666 -4 63.999 -8c16 -4 37.333 -12.667 64 -26
c56 -27.333 102 -61.666 138 -102.999c35.333 -40.667 53 -78.334 53 -113.001v-2c0 -7.33301 -2 -18.333 -6 -33c-4 -14 -8.66699 -27.333 -14 -40c-4.66699 -11.333 -12.667 -25.666 -24 -42.999c-11.333 -18 -24 -36.333 -38 -55
c-21.333 -28.667 -42.333 -55.334 -63 -80.001c-21.333 -24 -36.333 -37.667 -45 -41c-13.333 -5.33301 -32.333 -8 -57 -8c-25.333 0 -44.666 2.66699 -57.999 8c-18 6.66699 -27 21.334 -27 44.001c0 20.667 7 59.334 21 116.001c13.333 53.333 20 89 20 107
c0 18.667 -9.66699 34.334 -29 47.001c-15.333 10.667 -30 14.667 -44 12c-14 -3.33301 -30 -13.666 -48 -30.999c-6.66699 -7.33301 -17.334 -18.333 -32.001 -33v-146v-147c6.66699 -1.33301 17 -3 31 -5c8.66699 -1.33301 19.334 -2.66602 32.001 -3.99902
c12.667 -0.666992 23.334 -1 32.001 -1c20 -0.666992 55.667 -6.66699 107 -18c52 -12 85.667 -21.667 101 -29c19.333 -10 29 -27 29 -51c0 -30 -11.667 -50.333 -35 -61c-20.667 -9.33301 -55.334 -19.333 -104.001 -30s-89.334 -17.334 -122.001 -20.001
c-14.667 -1.33301 -37 -3 -67 -5v-293v-294l80 -61c42.667 -33.333 69.334 -57 80.001 -71c11.333 -13.333 12.666 -25.333 3.99902 -36c-5.33301 -6 -23.666 -10 -54.999 -12c-16.667 -1.33301 -33.667 -2 -51 -2c-15.333 0 -31 0.333008 -47 1
c-23.333 1.33301 -45.333 3.33301 -66 6c-20 2.66699 -36 6.33398 -48 11.001c-22 8.66699 -36.667 13 -44 13s-22 -4.33301 -44 -13c-11.333 -4.66699 -27.333 -8.33398 -48 -11.001c-20 -2.66699 -42 -4.66699 -66 -6c-14.667 -0.666992 -29 -1 -43 -1
c-18.667 0 -37 0.666992 -55 2c-30.667 2 -48.667 6 -54 12z" />
    <glyph glyph-name="g" unicode="g" horiz-adv-x="1106" 
d="M567 493c46 26.667 69 66.666 69 119.999v15c-4 60 -33 103 -87 129c-21.333 10.667 -42 16 -62 16h-4c-20.667 0 -41 -5 -61 -15c-39.333 -21.333 -65.666 -52.666 -78.999 -93.999c-4 -14 -6 -28.667 -6 -44v-11c1.33301 -19.333 6.66602 -39 15.999 -59
c13.333 -26.667 34.333 -48 63 -64c21.333 -12 43.333 -18 66 -18h4c5.33301 0 11 0.333008 17 1c8 1.33301 18.333 4.33301 31 9s23.667 9.66699 33 15zM593 -404.001c24 6.66699 46.002 19.6631 66.002 38.9961s37.333 44 52 74c16 33.333 24 57 24 71v2
c0 13.333 -7 26 -21 38c-14.667 12.667 -36.334 22.334 -65.001 29.001s-70.334 12 -125.001 16c-17.333 0.666992 -43 2.33398 -77 5.00098l-68 -83c-19.333 -22.667 -36 -44 -50 -64c-14.667 -19.333 -22.667 -31.666 -24 -36.999
c-0.666992 -3.33301 -1 -6.66602 -1 -9.99902v-2c0 -14.667 8 -29.667 24 -45c20 -20 44.333 -32.667 73 -38c23.333 -4.66699 51 -7 83 -7h17c39.333 1.33301 70 5.33301 92 12zM304.002 -610.005c-111.333 29.333 -191.994 81.667 -241.994 157
c-28 42 -42.333 84.667 -43 128c0 34 8.66699 68.333 26 103c14 28.667 35 56 63 82s61 48.667 99 68c14.667 7.33301 27 14 37 20c10.667 6.66699 16 10.667 16 12s-3.33301 5.66602 -10 12.999c-6 7.33301 -13.667 15.666 -23 24.999c-22.667 22 -40 47.667 -52 77
c-12.667 28.667 -19 59 -19 91c-0.666992 20.667 1 38 5 52c3.33301 14 10.666 32.667 21.999 56l29 57l-51 52c-29.333 29.333 -52.333 59.333 -69 90s-28.334 63.667 -35.001 99c-3.33301 18 -5 35.667 -5 53c0 66 23.667 129.667 71 191c60 77.333 140.667 129 242 155
c32 8 72 12 120 12h2c49.333 0 89.666 -4.33301 120.999 -13c31.333 -8 55.666 -12 72.999 -12s37.333 4.33301 60 13c14 5.33301 32.333 8.66602 55 9.99902c15.333 0.666992 38 1 68 1h49c60 -1.33301 98.667 -3 116 -5c16.667 -2 27 -6 31 -12
c2.66699 -4.66699 4 -9.33398 4 -14.001c0 -6.66699 -3 -13.667 -9 -21c-10 -12 -36.667 -34.667 -80 -68c-52.667 -40.667 -81.667 -64.667 -87 -72c-4.66699 -8 -2 -25.333 8 -52c12 -32 19.667 -62.333 23 -91c0.666992 -9.33301 1 -18.666 1 -27.999
c0 -18.667 -1.66699 -36.667 -5 -54c-16 -76 -55.667 -141.667 -119 -197c-63.333 -56 -139 -92.333 -227 -109c-37.333 -7.33301 -63 -14 -77 -20c-13.333 -6 -26 -16.667 -38 -32c-11.333 -14 -17 -27.667 -17 -41s5.33301 -26.666 16 -39.999
c11.333 -14 28.333 -25.333 51 -34c23.333 -8.66699 54 -14.667 92 -18c76.667 -7.33301 138.667 -18.666 186 -33.999c46.667 -15.333 90.667 -38.666 132 -69.999c25.333 -19.333 46.666 -40.666 63.999 -63.999c18 -24 30.667 -48 38 -72
c3.33301 -10.667 5 -22.667 5 -36c0 -26 -6 -56.667 -18 -92c-18 -53.333 -44.667 -103.666 -80 -150.999c-30.667 -40.667 -68.667 -75.334 -114 -104.001c-44.667 -28.667 -94.667 -50.334 -150 -65.001c-24 -6 -58.667 -10 -104 -12
c-18.667 -0.666992 -37.334 -1 -56.001 -1c-26 0 -51.667 0.666992 -77 2c-24 1.33301 -46 3.33301 -66 6c-20.667 2.66699 -38 5.66699 -52 9z" />
    <glyph glyph-name="h" unicode="h" horiz-adv-x="1477" 
d="M69 0c-12.667 12.667 -11.334 28.3379 3.99902 47.0049c15.333 18 57 52.667 125 104l58 45c0.666992 126.667 1.33398 316.667 2.00098 570v219v186c-0.666992 113.333 -2 171.333 -4 174c-1.33301 2 -9.66602 9.33301 -24.999 22l-52 40
c-60.667 45.333 -98.334 77 -113.001 95c-8 9.33301 -12 18 -12 26c0 7.33301 3 14 9 20c3.33301 3.33301 14.666 6 33.999 8c19.333 1.33301 46.666 2 81.999 2c76.667 0 147.667 -8.66699 213 -26c66 -17.333 111 -39.333 135 -66c5.33301 -6 9 -14 11 -24
c2.66699 -10.667 4.66699 -34 6 -70c0.666992 -19.333 1.33398 -43.333 2.00098 -72s1.33398 -63.667 2.00098 -105c2 -109.333 3.66699 -178.666 5 -207.999c2 -30 6 -44.667 12 -44c3.33301 0 11 1.66699 23 5c12.667 2.66699 25.667 6 39 10
c14 3.33301 32.333 6.33301 55 9c23.333 2.66699 44.333 4 63 4c104 0 197 -29.667 279 -89c81.333 -60 139.666 -141.333 174.999 -244c10.667 -30.667 17.334 -58.334 20.001 -83.001s5.33398 -80.334 8.00098 -167.001c0.666992 -40.667 2 -102 4 -184l54 -42
c77.333 -60.667 123 -98.334 137 -113.001c9.33301 -9.33301 14 -18 14 -26c0 -5.33301 -1.33301 -10 -4 -14c-8 -12 -39.667 -18 -95 -18h-9c-52 0 -102.333 5.33301 -151 16c-70 16 -123 33.333 -159 52c-36 19.333 -58.333 41.666 -67 66.999c-2.66699 8 -5 31.667 -7 71
c-1.33301 39.333 -2 87.333 -2 144c0 102.667 -2.66699 172.667 -8 210c-5.33301 36.667 -17.666 71.667 -36.999 105c-13.333 22.667 -30 43 -50 61c-20 17.333 -40 29.333 -60 36c-16.667 5.33301 -39.667 8 -69 8c-12 0 -25 -0.333008 -39 -1
c-47.333 -3.33301 -80 -10 -98 -20l-29 -17c-0.666992 -62 -1.33398 -154.667 -2.00098 -278c-0.666992 -61.333 -1.33398 -153.666 -2.00098 -276.999l53 -42c28 -22 46.333 -41 55 -57c8.66699 -15.333 9 -30.333 1 -45c-6.66699 -12.667 -22 -20.334 -46 -23.001
c-6.66699 -0.666992 -14 -1 -22 -1c-21.333 0 -47 2.66699 -77 8c-34 5.33301 -57.333 8 -70 8c-12.667 -0.666992 -30 -4.33398 -52 -11.001c-11.333 -3.33301 -29.333 -6.33301 -54 -9c-24 -2.66699 -50 -4.66699 -78 -6c-22.667 -0.666992 -44.667 -1 -66 -1
c-18.667 0 -37 0.333008 -55 1c-38.667 1.33301 -60.667 4.66602 -66 9.99902z" />
    <glyph glyph-name="i" unicode="i" horiz-adv-x="777" 
d="M221 1096c-28 12.667 -46.334 28.333 -55.001 47c-8 18 -12 50.667 -12 98c0 46.667 4 79 12 97c8.66699 18 27 34.333 55 49c14 6.66699 29 11 45 13c16.667 2 45 3 85 3s68 -1 84 -3c16.667 -2 31.667 -6.33301 45 -13c28.667 -14.667 47 -31 55 -49
c8.66699 -18 13 -50.333 13 -97c0 -35.333 -1 -59 -3 -71c-2.66699 -12.667 -8 -24.667 -16 -36c-14.667 -20.667 -34.667 -34.667 -60 -42s-64.666 -11 -117.999 -11h-2c-36.667 0 -64 1 -82 3s-33.333 6 -46 12zM402.999 13.999c-20 6.66699 -36.0049 10.333 -48.0049 11
c-12.667 0 -35.667 -2.66699 -69 -8c-30 -5.33301 -55.667 -8 -77 -8c-8 0 -15.333 0.333008 -22 1c-24 2.66699 -39.333 10 -46 22c-8 14.667 -7.66699 30 1 46s27 34.667 55 56l53 42v294v293c-4.66699 4.66699 -12.334 11.334 -23.001 20.001
c-6 5.33301 -18.667 15.666 -38 30.999l-60 46c-42.667 32.667 -69 55 -79 67c-5.33301 6.66699 -8 13 -8 19v2c0 4.66699 1.33301 9 4 13c3.33301 6 11.333 10 24 12c12.667 2.66699 38 4.33398 76 5.00098h30c24 0 44 -0.666992 60 -2
c22.667 -2.66699 51.334 -8.33398 86.001 -17.001c51.333 -12.667 93.333 -27.334 126 -44.001c32.667 -16 55.334 -33.333 68.001 -52c6.66699 -10 11.334 -21.333 14.001 -34s4.33398 -46.334 5.00098 -101.001v-86v-120v-314l52 -39c72.667 -56 116.667 -92 132 -108
c10.667 -11.333 16 -21.666 16 -30.999c0 -4 -1.33301 -8 -4 -12c-4 -6.66699 -25.667 -11.667 -65 -15c-30 -2 -61 -3 -93 -3h-30c-29.333 0.666992 -56.666 2.33398 -81.999 5.00098c-25.333 2 -44.666 5 -57.999 9z" />
    <glyph glyph-name="j" unicode="j" horiz-adv-x="861" 
d="M480 1103c-34 10 -57.999 26.666 -71.999 49.999c-13.333 23.333 -20.333 57.666 -21 102.999v3c0.666992 37.333 6 67.666 16 90.999c10.667 22.667 26.667 39.334 48 50.001c13.333 6.66699 28.666 11 45.999 13c18 2 48.333 3 91 3c64 0 108 -4.33301 132 -13
c23.333 -8 41.333 -25.667 54 -53c10.667 -23.333 16 -54.333 16 -93s-5.33301 -69.667 -16 -93c-12 -25.333 -29.667 -42.666 -53 -51.999s-63.333 -14.666 -120 -15.999h-24c-16.667 0 -33 0.333008 -49 1c-24 1.33301 -40 3.33301 -48 6zM270.001 -608.001
c-51.333 8.66699 -94.334 26.667 -129.001 54c-34 26.667 -66.667 68.334 -98 125.001c-18.667 33.333 -29.334 60 -32.001 80c-0.666992 4 -1 7.66699 -1 11c0 14.667 5.33301 25 16 31c10 5.33301 36 8 78 8c42.667 0 70.667 -2.33301 84 -7
c5.33301 -2 14.333 -7.66699 27 -17s25.334 -19.333 38.001 -30c38.667 -32.667 75 -50 109 -52h7c31.333 0 60.333 13 87 39l32 32v555v555l-23 20l-38 31l-60 46c-42.667 32.667 -69 55 -79 67s-11.667 23.333 -5 34c4 6 12.333 10 25 12s38 3.66699 76 5h30
c24 0 44 -0.666992 60 -2c22 -2.66699 50.333 -8.33398 85 -17.001c52 -12.667 94.333 -27.334 127 -44.001c32.667 -16 55.334 -33.333 68.001 -52l19 -28v-585v-220c0 -61.333 -0.333008 -113.666 -1 -156.999c-0.666992 -102 -2 -166.667 -4 -194s-6 -50.333 -12 -69
c-14 -46 -42 -88.667 -84 -128c-42 -38.667 -91 -68 -147 -88c-29.333 -10 -70.333 -16.667 -123 -20c-18 -1.33301 -35 -2 -51 -2c-30.667 0 -57.667 2.33301 -81 7z" />
    <glyph glyph-name="k" unicode="k" horiz-adv-x="1398" 
d="M70 11c-12.667 12.667 -11.3252 28.333 4.00781 47c15.333 18 56.666 52.667 123.999 104l59 45v574v574c-9.33301 6.66699 -27.333 20.667 -54 42c-77.333 60.667 -123 98.334 -137 113.001c-8.66699 9.33301 -13 18 -13 26c0 5.33301 1.33301 10 4 14
c7.33301 12 38.666 18 93.999 18h5c54 0 105.667 -5.66699 155 -17c70 -15.333 123 -32.666 159 -51.999c36 -18.667 58.333 -40.667 67 -66c3.33301 -8 5.66602 -36 6.99902 -84s2 -110.667 2 -188c0 -106 1 -173.333 3 -202c1.33301 -29.333 4.66602 -44 9.99902 -44
c3.33301 0 14.333 3 33 9c18 6 38.333 13.333 61 22c4 2 29 9.33301 75 22c32 9.33301 66 14 102 14c16.667 0 33.667 -1 51 -3c30 -2.66699 60 -9.66699 90 -21s57 -29.333 81 -54c23.333 -23.333 47 -56 71 -98c23.333 -42 35.333 -72 36 -90c0 -18 -6.33301 -30 -19 -36
c-12.667 -5.33301 -38.334 -8 -77.001 -8c-38 0 -65 2.66699 -81 8c-15.333 6 -37.333 21 -66 45c-32 27.333 -56.667 41.333 -74 42h-2c-18 0 -55 -11 -111 -33c-28 -11.333 -52 -21.666 -72 -30.999c-21.333 -10.667 -32 -17.334 -32 -20.001c0 -6 26.667 -35.667 80 -89
l290 -284l101 -97l96 -23c56.667 -14 94.667 -25.333 114 -34s31.666 -20 36.999 -34c2.66699 -6 4 -12.333 4 -19s-1.33301 -13.667 -4 -21c-4.66699 -14 -12.334 -24 -23.001 -30c-4 -2 -16.333 -6 -37 -12l-66 -19c-50 -12.667 -91.333 -19 -124 -19
c-6 0 -11.667 0.333008 -17 1c-34.667 2.66699 -75.334 15.667 -122.001 39c-29.333 14.667 -57.333 33 -84 55c-26 21.333 -73.667 66 -143 134l-116 109c-33.333 30.667 -51.333 46 -54 46c-4 0 -6.66699 -7.33301 -8 -22c-2 -15.333 -3 -42.666 -3 -81.999v-104
c8.66699 -7.33301 26.667 -21.333 54 -42c28 -21.333 46 -40 54 -56c8.66699 -16 9.33398 -31 2.00098 -45c-6.66699 -12.667 -22.334 -20.334 -47.001 -23.001c-6.66699 -0.666992 -13.667 -1 -21 -1c-21.333 0 -47.333 2.66699 -78 8c-34 5.33301 -57 8 -69 8
c-12.667 -0.666992 -30 -4.33398 -52 -11.001c-12 -3.33301 -30 -6.33301 -54 -9s-50.333 -4.66699 -79 -6c-22 -0.666992 -43.667 -1 -65 -1c-18.667 0 -37 0.333008 -55 1c-38.667 1.33301 -60.667 4.66602 -66 9.99902z" />
    <glyph glyph-name="l" unicode="l" horiz-adv-x="778" 
d="M404 5c-20 6.66699 -35.9971 9.99707 -47.9971 9.99707h-4c-13.333 0 -35 -2.66699 -65 -8c-30 -4.66699 -55.333 -7 -76 -7c-8 0 -15.667 0.333008 -23 1c-24 2.66699 -39.333 10 -46 22c-8 14.667 -7.66699 30 1 46s27 34.667 55 56l53 42
c-0.666992 130.667 -1.33398 326.667 -2.00098 588c-0.666992 130.667 -1.33398 327 -2.00098 589l-54 42c-77.333 60.667 -123 98.334 -137 113.001c-8.66699 9.33301 -13.334 18 -14.001 26c0 4.66699 1.66699 9.33398 5 14.001c7.33301 12 38.666 18 93.999 18h4
c54 0 106 -5.66699 156 -17c70 -15.333 123 -32.666 159 -51.999c36 -18.667 58.333 -40.667 67 -66c3.33301 -8.66699 5.66602 -64.334 6.99902 -167.001c1.33301 -102 2 -254.333 2 -457v-599c12 -8.66699 29.333 -22 52 -40c72.667 -55.333 116.667 -91.333 132 -108
c10.667 -10.667 16 -20.667 16 -30c0 -4 -1.33301 -8.33301 -4 -13c-4 -6 -25.667 -10.667 -65 -14c-30 -2 -61 -3 -93 -3h-30c-29.333 0.666992 -56.666 2.33398 -81.999 5.00098c-25.333 2 -44.666 5 -57.999 9z" />
    <glyph glyph-name="m" unicode="m" horiz-adv-x="1803" 
d="M69 10c-12.667 13.333 -11.3359 29.0049 3.99707 47.0049s57 52.667 125 104l58 45c0.666992 62.667 1.33398 156.667 2.00098 282l3 281l-98 75c-54.667 41.333 -88 68.666 -100 81.999c-7.33301 8 -11 16 -11 24c0 4 1.33301 8 4 12c4 6.66699 14.333 11 31 13
s54.667 3.33301 114 4c26 0.666992 48.667 1 68 1c28 0 48 -0.666992 60 -2c19.333 -2 46.666 -9 81.999 -21c16.667 -5.33301 41.334 -13.666 74.001 -24.999c16 6 40.333 14.333 73 25c47.333 16 93 24 137 24c12.667 0 25 -0.666992 37 -2
c54.667 -5.33301 107.334 -24.333 158.001 -57c8.66699 -6 22 -14.667 40 -26l58 30c33.333 16.667 68 30 104 40c35.333 10 66 15 92 15c54 0 112.333 -16 175 -48c62.667 -31.333 108.667 -68.333 138 -111c16.667 -24 28.334 -46 35.001 -66
c7.33301 -20 12.333 -55.333 15 -106c1.33301 -22 2.33301 -48 3 -78s1.33398 -65.333 2.00098 -106c0.666992 -56 2 -140 4 -252l54 -42c77.333 -60.667 123 -98.334 137 -113.001c8.66699 -9.33301 13.334 -18 14.001 -26c0 -4.66699 -1.66699 -9.33398 -5 -14.001
c-7.33301 -12 -38.666 -18 -93.999 -18h-9c-52 0 -102.333 5.66699 -151 17c-70 15.333 -123 32.666 -159 51.999c-36 18.667 -58.333 40.667 -67 66c-2.66699 8 -5 37.333 -7 88c-1.33301 51.333 -2 118.666 -2 201.999v115c-0.666992 32 -1.33398 59.333 -2.00098 82
c-2 52 -7.33301 84.333 -16 97s-24.334 24.667 -47.001 36c-17.333 8 -34.666 12 -51.999 12h-11c-20.667 -1.33301 -42 -8.66602 -64 -21.999c-6 -3.33301 -14.667 -8.66602 -26 -15.999v-277v-278l-30 -73c-18 -44.667 -33.333 -72.667 -46 -84
c-12.667 -12 -33.334 -18 -62.001 -18s-50 5.66699 -64 17s-30 36 -48 74l-31 64c-0.666992 62 -2 155 -4 279c-1.33301 62 -3 155 -5 279l-27 27c-12.667 12 -23 19.667 -31 23c-8 2.66699 -23 4 -45 4c-16 0 -30.333 -1.33301 -43 -4s-24 -7 -34 -13l-29 -17
c-0.666992 -62 -1.33398 -154.667 -2.00098 -278l-3 -277l54 -42c28 -22 46.333 -41 55 -57c8 -15.333 8.33301 -30.333 1 -45c-6.66699 -12.667 -22 -20.334 -46 -23.001c-6.66699 -0.666992 -14 -1 -22 -1c-21.333 0 -47 2.66699 -77 8c-34 5.33301 -57.333 8 -70 8
s-30 -3.66699 -52 -11c-12 -3.33301 -30 -6.33301 -54 -9s-50.333 -4.33398 -79 -5.00098c-22 -1.33301 -43.667 -2 -65 -2c-18.667 0 -37 0.333008 -55 1c-38.667 1.33301 -60.667 4.66602 -66 9.99902z" />
    <glyph glyph-name="n" unicode="n" horiz-adv-x="1476" 
d="M69 13c-12.667 12.667 -11.3281 28.3379 4.00488 47.0049c15.333 18 57 52.667 125 104l58 45c0.666992 62.667 1.33398 156.334 2.00098 281.001l3 282l-98 75c-54.667 40.667 -88 67.667 -100 81c-7.33301 8.66699 -11 17 -11 25c0 4 1.33301 8 4 12
c4 6.66699 14.333 11 31 13s54.667 3.33301 114 4c23.333 0.666992 43.666 1 60.999 1c32 0 54.333 -0.666992 67 -2c19.333 -2 46.666 -9 81.999 -21l75 -25c13.333 5.33301 33.666 13 60.999 23c28 10 51.667 16 71 18c19.333 2.66699 56.666 4 111.999 4
c57.333 0 94.666 -1.33301 111.999 -4c18 -2 40.667 -8.66699 68 -20c71.333 -29.333 130.666 -69.333 177.999 -120c47.333 -50 83.666 -111.667 108.999 -185c10.667 -30.667 17.334 -58.334 20.001 -83.001c2.66699 -25.333 5 -81 7 -167c1.33301 -40.667 3 -102 5 -184
l54 -42c77.333 -60.667 123 -98.334 137 -113.001c8.66699 -9.33301 13 -18 13 -26v-2c0 -4.66699 -1.33301 -8.66699 -4 -12c-7.33301 -12 -38.666 -18 -93.999 -18h-9c-52.667 0 -103 5.33301 -151 16c-70 16 -123 33.333 -159 52c-36 19.333 -58.333 41.666 -67 66.999
c-2.66699 7.33301 -5 31 -7 71c-1.33301 39.333 -2 87.333 -2 144c0 102.667 -2.66699 172.667 -8 210c-5.33301 36.667 -17.666 71.667 -36.999 105c-14 22.667 -31 43 -51 61c-20 17.333 -40 29.333 -60 36c-16.667 5.33301 -39.334 8 -68.001 8
c-12 0 -25 -0.333008 -39 -1c-47.333 -3.33301 -80 -10 -98 -20l-29 -17c-0.666992 -62 -1.33398 -154.667 -2.00098 -278l-3 -277l54 -42c28 -22 46.333 -41 55 -57c8 -15.333 8.33301 -30.333 1 -45c-6.66699 -12.667 -22 -20.334 -46 -23.001
c-6.66699 -0.666992 -14 -1 -22 -1c-21.333 0 -47 2.66699 -77 8c-34 5.33301 -57.333 8 -70 8c-12.667 -0.666992 -30 -4.33398 -52 -11.001c-12 -3.33301 -30 -6.33301 -54 -9s-50.333 -4.66699 -79 -6c-22 -0.666992 -43.667 -1 -65 -1c-18.667 0 -37 0.333008 -55 1
c-38.667 1.33301 -60.667 4.66602 -66 9.99902z" />
    <glyph glyph-name="o" unicode="o" horiz-adv-x="1141" 
d="M641 218c11.333 3.33301 22.9951 8.99902 34.9951 16.999c12.667 8.66699 25.334 19.334 38.001 32.001c42 44 67.667 99.333 77 166c2.66699 20.667 4 40.334 4 59.001c0 44.667 -7.33301 87 -22 127c-10.667 30.667 -25.667 58 -45 82s-42.666 42 -69.999 54
c-23.333 10.667 -50.666 16 -81.999 16h-10c-36 -0.666992 -67 -7.66699 -93 -21c-23.333 -11.333 -45.666 -31.333 -66.999 -60c-22 -29.333 -38 -59.333 -48 -90c-6.66699 -24 -10 -55.333 -10 -94v-28c2 -52 8.66699 -92 20 -120c12 -30 29.667 -58.333 53 -85
c24 -26.667 47 -44 69 -52c20.667 -6.66699 45.334 -10.334 74.001 -11.001h7c26 0 49.333 2.66699 70 8zM427.995 11.999c-44.667 12 -85.335 28.665 -122.002 49.998c-36.667 22 -70.667 49.333 -102 82c-35.333 37.333 -62.666 74 -81.999 110
c-20 36.667 -36 79.334 -48 128.001c-8.66699 36 -13 72.333 -13 109c0 30.667 3 61 9 91c12.667 68 38.667 131.333 78 190c30 46 68.667 86 116 120c46.667 33.333 98.334 58.333 155.001 75c30 8.66699 78.667 13.334 146 14.001h3c66 0 115.333 -4.33301 148 -13
c44.667 -12 85.667 -29.333 123 -52c38 -22.667 72 -50 102 -82c56 -58 95.667 -127 119 -207c13.333 -43.333 20 -87.333 20 -132c0 -37.333 -4.66699 -74.666 -14 -111.999c-23.333 -97.333 -65.333 -177.333 -126 -240s-137.667 -106.334 -231 -131.001
c-32 -8 -79 -12 -141 -12s-108.667 4 -140 12z" />
    <glyph glyph-name="p" unicode="p" horiz-adv-x="1279" 
d="M779 221c23.333 6 48.001 22.6689 74.001 50.002s45 56.666 57 87.999c8 19.333 13.333 38 16 56c2.66699 17.333 4 41.666 4 72.999v5c0 44.667 -3.33301 79.334 -10 104.001c-6.66699 26 -20.667 55 -42 87c-12 18.667 -23.333 32.667 -34 42
c-10.667 10 -24.334 19.333 -41.001 28c-20 9.33301 -36.667 15 -50 17c-7.33301 1.33301 -18.333 2 -33 2c-11.333 0 -24.333 -0.333008 -39 -1c-29.333 -1.33301 -52 -3.66602 -68 -6.99902c-15.333 -2.66699 -28.333 -7.33398 -39 -14.001
c-6.66699 -3.33301 -16.334 -9 -29.001 -17l-3 -237v-93c0 -38.667 0.333008 -69.334 1 -92.001c1.33301 -38.667 3.66602 -60 6.99902 -64c12.667 -15.333 45.334 -26.333 98.001 -33c20.667 -2 40.334 -3 59.001 -3c27.333 0 51.333 3 72 9zM87.001 -614.998
c-8 10.667 -6.67188 22.999 3.99512 36.999s37.334 37.333 80.001 70l80 62c0.666992 135.333 1.33398 338 2.00098 608c0.666992 135.333 1.33398 338.333 2.00098 609l-98 74c-54 41.333 -87 68.666 -99 81.999c-7.33301 8.66699 -11 16.667 -11 24
c0 4.66699 1.33301 9 4 13c4 6.66699 14.333 10.667 31 12c16.667 2 54.667 3.66699 114 5c26 0.666992 48.333 1 67 1c28 0 48 -0.666992 60 -2c20 -2.66699 47.667 -9.66699 83 -21c16.667 -6 41.667 -14.333 75 -25l61 22c40.667 14.667 93.667 23.334 159 26.001
c14 0.666992 27.333 1 40 1c46.667 0 85 -4.33301 115 -13c32.667 -9.33301 67.667 -24 105 -44s68.333 -40.333 93 -61c43.333 -37.333 80 -87.666 110 -150.999c30.667 -63.333 48.334 -127 53.001 -191c0.666992 -8 1 -16.667 1 -26
c0 -32.667 -4.33301 -68.334 -13 -107.001c-10.667 -49.333 -26 -93.333 -46 -132c-19.333 -36.667 -50.333 -76 -93 -118c-43.333 -42.667 -82 -72 -116 -88c-56.667 -26 -112.667 -42 -168 -48c-14.667 -1.33301 -29.334 -2 -44.001 -2c-40.667 0 -81.667 5.33301 -123 16
c-16.667 4.66699 -32 8.66699 -46 12c-13.333 3.33301 -20.666 5 -21.999 5c-2 0 -3.33301 -23.667 -4 -71c-0.666992 -46.667 -1 -103 -1 -169l3 -241l79 -62c42.667 -32.667 69.667 -56 81 -70c10.667 -14 11.667 -26.333 3 -37c-4.66699 -6 -22.667 -10 -54 -12
c-16 -1.33301 -32 -1.66602 -48 -0.999023c-16 0 -32.667 0.333008 -50 1c-23.333 0.666992 -45.333 2.66699 -66 6c-20.667 2.66699 -36.667 6 -48 10c-22 8.66699 -36.667 13 -44 13s-22 -4.33301 -44 -13c-11.333 -4 -27.333 -7.33301 -48 -10
c-20.667 -3.33301 -42.667 -5.33301 -66 -6c-16 -1.33301 -31.667 -2 -47 -2c-17.333 0 -34.333 0.666992 -51 2c-31.333 2 -49.666 6 -54.999 12z" />
    <glyph glyph-name="q" unicode="q" horiz-adv-x="1291" 
d="M700 233l33.9961 15.999v243v242l-29 17c-11.333 6.66699 -24.666 11.334 -39.999 14.001c-15.333 3.33301 -37.666 5.66602 -66.999 6.99902c-15.333 0.666992 -28.333 1 -39 1c-15.333 0 -26.666 -0.666992 -33.999 -2c-12.667 -2 -29 -7.66699 -49 -17
c-17.333 -8.66699 -31.333 -18 -42 -28c-10.667 -9.33301 -22 -23.333 -34 -42c-21.333 -32 -35.333 -61 -42 -87c-6.66699 -24.667 -10 -59.334 -10 -104.001v-5c0.666992 -31.333 2.33398 -55.666 5.00098 -72.999s7.66699 -35.666 15 -54.999
c11.333 -29.333 29 -57.333 53 -84c24 -27.333 47 -45 69 -53c19.333 -6.66699 46.333 -10 81 -10h26c46.667 2 81 8.66699 103 20zM808.996 -612.001c-24 11.333 -40.334 23.3281 -49.001 35.9951c-8.66699 12 -14.334 46.667 -17.001 104
c-1.33301 24.667 -2 54.334 -2 89.001c-0.666992 35.333 -1 77.666 -1 126.999c-1.33301 80 -2.66602 148.667 -3.99902 206c-1.33301 56.667 -3 85 -5 85c-1.33301 0 -8.66602 -1.66699 -21.999 -5l-46 -12c-41.333 -10.667 -82.333 -16 -123 -16
c-42 0 -83.667 5.66699 -125 17c-81.333 22.667 -151.666 65 -210.999 127c-35.333 37.333 -62.666 74.333 -81.999 111c-20 36 -36 78.333 -48 127c-8.66699 36.667 -13 73.334 -13 110.001c0 30 3 60.333 9 91c12.667 67.333 38.667 130.666 78 189.999
c30.667 46 69.667 86 117 120c47.333 33.333 99.666 58.333 156.999 75c30 8.66699 68.667 13 116 13c12 0 25 -0.333008 39 -1c65.333 -2.66699 118.333 -11.334 159 -26.001c14 -5.33301 34.667 -12.666 62 -21.999l74 25c36 11.333 63.667 18.333 83 21
c11.333 1.33301 31.333 2 60 2c18.667 0 41 -0.333008 67 -1c59.333 -1.33301 97.333 -3 114 -5c16.667 -1.33301 27 -5.33301 31 -12c7.33301 -11.333 5 -23.666 -7 -36.999s-45 -40.666 -99 -81.999l-98 -74v-527c0 -145.333 0.666992 -269.666 2 -372.999
c1.33301 -102.667 2.66602 -154 3.99902 -154c2 0 6.66699 3 14 9c7.33301 6.66699 15.333 14.667 24 24c16 16.667 28 26.334 36 29.001c8 3.33301 27.333 5 58 5c28.667 0 47 -1.33301 55 -4c8 -2 15 -7.66699 21 -17c5.33301 -8 8 -19.333 8 -34
c0 -8.66699 -0.666992 -18 -2 -28c-4.66699 -30 -17.667 -82.667 -39 -158l-16 -56c-4.66699 -15.333 -9.33398 -28.666 -14.001 -39.999c-15.333 -36 -36.666 -57.333 -63.999 -64c-26 -6.66699 -72.667 -10 -140 -10h-3c-51.333 0 -87 1 -107 3s-37 6 -51 12z" />
    <glyph glyph-name="r" unicode="r" horiz-adv-x="1133" 
d="M93 16c-8.66699 10 -7.66504 21.999 3.00195 35.999s37.667 37.333 81 70l79 62c0.666992 65.333 1.33398 163.333 2.00098 294l3 294l-98 75c-54.667 40.667 -88 67.667 -100 81c-7.33301 8.66699 -11 17 -11 25c0 4 1.33301 8 4 12c4 6.66699 14.333 11 31 13
s54.667 3.33301 114 4c23.333 0.666992 43.666 1 60.999 1c32 0 54.333 -0.666992 67 -2c19.333 -2 46.666 -9 81.999 -21l75 -25c13.333 5.33301 33.666 13 60.999 23c14 4.66699 31 9 51 13c20.667 3.33301 43 6 67 8s48.333 3 73 3c20.667 0 41.334 -0.666992 62.001 -2
c46 -3.33301 82 -11.333 108 -24c13.333 -6 27.666 -15 42.999 -27c15.333 -11.333 27 -21.666 35 -30.999c22 -26 43.667 -58.333 65 -97c20.667 -39.333 31 -67 31 -83c0 -19.333 -7 -31.666 -21 -36.999c-11.333 -4 -32 -6 -62 -6h-25
c-33.333 1.33301 -55.666 3.66602 -66.999 6.99902c-10.667 2.66699 -23.334 9.66699 -38.001 21c-38 30.667 -64 50 -78 58c-14 8.66699 -30.333 14 -49 16c-10 1.33301 -20.667 2 -32 2c-17.333 0 -37 -1.66699 -59 -5c-35.333 -6.66699 -61.666 -15 -78.999 -25
c-6 -4 -15 -9.33301 -27 -16l3 -275c0 -60.667 0.666992 -152 2 -274l79 -62c43.333 -32.667 70.333 -56 81 -70s11.667 -26 3 -36c-4.66699 -6.66699 -22.667 -11 -54 -13c-12.667 -1.33301 -25.334 -2 -38.001 -2h-11l-49 2c-23.333 1.33301 -45.333 3.33301 -66 6
s-36.667 6.33398 -48 11.001c-22 8 -36.667 12 -44 12s-22 -4 -44 -12c-11.333 -4.66699 -27.333 -8.33398 -48 -11.001s-42.667 -4.66699 -66 -6c-16 -0.666992 -31.667 -1 -47 -1c-17.333 0 -34.333 0.333008 -51 1c-31.333 2 -49.333 6.33301 -54 13z" />
    <glyph glyph-name="s" unicode="s" horiz-adv-x="1026" 
d="M94 19c-8.66699 12 -12.999 25.3291 -12.999 39.9961c0.666992 14.667 5.33398 36 14.001 64c2.66699 10 7.33398 25 14.001 45l-23 45c-11.333 22 -18 39.667 -20 53c-1.33301 8 -2 21 -2 39c0 12 0.333008 26.333 1 43c2 48 5.66699 77.333 11 88
c4.66699 11.333 18 17 40 17c8.66699 0 26.334 -8.66699 53.001 -26s67.334 -46.666 122.001 -87.999c41.333 -31.333 79.666 -59 114.999 -83c34.667 -23.333 55.667 -36 63 -38c21.333 -6.66699 42.333 -10 63 -10l49 6c37.333 8.66699 64.333 24.667 81 48
c8 10.667 12 18 12 22c0.666992 4.66699 -2.66602 12.334 -9.99902 23.001c-4 6 -10 12.333 -18 19c-8.66699 6 -16.667 10.667 -24 14c-17.333 7.33301 -55.333 19.333 -114 36s-113 31 -163 43c-46 10.667 -85 25.334 -117 44.001c-32 18 -63 43.333 -93 76
c-30 32 -50.667 63.333 -62 94c-8 19.333 -12 38 -12 56c0 10.667 1.33301 21 4 31c2.66699 10.667 6.66699 23 12 37c4.66699 14 9.33398 25.667 14.001 35c18.667 36.667 51.334 72 98.001 106c47.333 34 96.666 57.667 147.999 71c30.667 8 64.667 12 102 12
c22 0 45 -1.33301 69 -4c66 -7.33301 122 -22.666 168 -45.999c11.333 -6 29 -14.667 53 -26l56 38c28 19.333 53 31.666 75 36.999c9.33301 2 18.333 3 27 3c12.667 0 24.667 -2.33301 36 -7c10 -4 16 -16.333 18 -37v-9c0 -19.333 -3.33301 -41 -10 -65
c-2.66699 -11.333 -7.33398 -28.666 -14.001 -51.999l22 -41c10 -18 16.333 -33.667 19 -47c2 -14 3 -39.333 3 -76c0 -45.333 -3 -76.666 -9 -93.999c-6.66699 -17.333 -18.334 -26 -35.001 -26c-12.667 0 -31.334 7.66699 -56.001 23c-24 16 -71.667 51 -143 105
c-68 52 -118.333 86 -151 102c-26 12.667 -51.333 19 -76 19c-6 0 -12.333 -0.333008 -19 -1c-38 -4.66699 -69.333 -17 -94 -37c-16.667 -14.667 -25 -28.667 -25 -42c0 -5.33301 1.33301 -11 4 -17c8 -16 30.333 -31 67 -45s102.667 -33 198 -57
c95.333 -24.667 172.666 -59.334 231.999 -104.001c59.333 -45.333 96 -97.666 110 -156.999c0.666992 -2.66699 1 -6 1 -10c0 -6 -0.666992 -13.333 -2 -22c-2 -14.667 -5.66699 -30.667 -11 -48c-7.33301 -24.667 -15.333 -43.334 -24 -56.001
c-8.66699 -13.333 -25 -32 -49 -56c-40 -40 -85.667 -71 -137 -93c-50.667 -22 -102.334 -33 -155.001 -33c-33.333 0 -72.333 5 -117 15c-44 9.33301 -81 21 -111 35c-14.667 7.33301 -28 13.333 -40 18c-12 5.33301 -19 8 -21 8s-9.33301 -3.66699 -22 -11
c-12 -7.33301 -25.667 -16.333 -41 -27c-22 -15.333 -39 -25.333 -51 -30c-12 -5.33301 -25.333 -8 -40 -8s-25.334 1.33301 -32.001 4c-7.33301 2.66699 -13.333 7.66699 -18 15z" />
    <glyph glyph-name="t" unicode="t" horiz-adv-x="1199" 
d="M654 4c-44.667 12 -85.3291 28.6699 -121.996 50.0029c-36.667 22 -70.334 49.333 -101.001 82c-58 60.667 -97 122.334 -117 185.001c-19.333 62 -29 154 -29 276c0 70.667 -1 114.667 -3 132c-1.33301 18 -5.33301 28.667 -12 32c-4 2 -15.667 5.66699 -35 11
c-18.667 5.33301 -39.667 10.666 -63 15.999c-54.667 12 -90 25.333 -106 40c-9.33301 8.66699 -14 19.334 -14 32.001v2c0 9.33301 2 19.333 6 30c5.33301 13.333 16.666 24.333 33.999 33c18 8.66699 50.333 18.667 97 30l56 15c16.667 4.66699 26.334 7.66699 29.001 9
c2.66699 2 5.66699 13.333 9 34s6 46.667 8 78c1.33301 23.333 3.66602 58.333 6.99902 105l58 98c36.667 62.667 63.667 101.667 81 117s43 23 77 23c14.667 0 28.667 -1.33301 42 -4c12.667 -2 21 -4.33301 25 -7c11.333 -8 18 -27 20 -57v-15c0 -29.333 -3 -72 -9 -128
l-10 -102c-2.66699 -35.333 -4.66699 -61 -6 -77c-0.666992 -28 -0.333984 -45 0.999023 -51c2 -6 8 -10.333 18 -13c6 -2 15 -3.33301 27 -4c12 -1.33301 23.667 -2.33301 35 -3c23.333 -0.666992 61 -6.66699 113 -18s86.333 -21.333 103 -30
c19.333 -9.33301 29 -26.333 29 -51c0 -29.333 -11.667 -49.333 -35 -60c-20.667 -9.33301 -55.334 -19.333 -104.001 -30s-89.334 -17.334 -122.001 -20.001c-14.667 -1.33301 -37 -3 -67 -5v-181c0 -84.667 1 -138.334 3 -161.001s7.66699 -45.334 17 -68.001
c13.333 -33.333 33 -63.333 59 -90c25.333 -26.667 50.666 -43.334 75.999 -50.001c17.333 -4.66699 34 -7 50 -7c16.667 0 32.334 2.66699 47.001 8c29.333 9.33301 65 32 107 68c15.333 13.333 28.333 21.333 39 24c10 3.33301 32.333 5.66602 67 6.99902h25
c30.667 0 51.667 -2 63 -6c14 -6 21 -17.333 21 -34v-3c0 -16 -10.333 -43.667 -31 -83s-42 -71.666 -64 -96.999c-28 -32 -66 -55.667 -114 -71c-46.667 -15.333 -103 -23 -169 -23h-7c-17.333 0 -36.666 1.33301 -57.999 4c-21.333 2 -38.333 4.66699 -51 8z" />
    <glyph glyph-name="u" unicode="u" horiz-adv-x="1475" 
d="M619 13c-45.333 12 -85.998 28.667 -121.998 50c-36.667 22 -70.334 49.333 -101.001 82c-58 60.667 -96.667 122.334 -116 185.001c-20 62 -30 154.333 -30 277v158l-23 19c-6 6 -18.667 16.333 -38 31l-60 46c-42.667 32.667 -69 55 -79 67
c-5.33301 6.66699 -8 13 -8 19v2c0 4.66699 1.33301 9 4 13c3.33301 6 11.333 10.333 24 13c12.667 2 38 3.33301 76 4c12.667 0.666992 24.334 1 35.001 1c22 0 40.333 -1 55 -3c22.667 -2 51.334 -7.33301 86.001 -16c48.667 -12.667 89.667 -27 123 -43
c33.333 -15.333 56.333 -31.666 69 -48.999c8 -10.667 13 -28 15 -52s4.33301 -87.667 7 -191c2 -102 4 -166.667 6 -194c2.66699 -26.667 8.66699 -51.667 18 -75c12.667 -32.667 32 -62.334 58 -89.001s51.667 -43.334 77 -50.001c18 -5.33301 39.667 -8 65 -8
c11.333 0 23.666 0.666992 36.999 2c42.667 2.66699 74.334 9 95.001 19c7.33301 4 18.333 9.33301 33 16l3 279c0 61.333 0.666992 154 2 278l-49 39c-34.667 28.667 -55.667 51 -63 67c-8 16 -4.33301 31.333 11 46c10 10 27.667 15.667 53 17h7
c25.333 0 58.333 -3.33301 99 -10c25.333 -4.66699 44 -6.66699 56 -6c11.333 0.666992 25.666 4 42.999 10c16.667 6 36.334 9.66699 59.001 11c14 1.33301 34.333 2 61 2c16.667 0 35.667 -0.333008 57 -1c60 -0.666992 98.667 -2 116 -4c16.667 -2 27 -6.33301 31 -13
c6.66699 -10.667 5 -22 -5 -34s-36.333 -34.333 -79 -67l-58 -45l-36 -28c-6 -6 -10.333 -14 -13 -24s-4.33398 -38.667 -5.00098 -86v-74v-107c0 -75.333 0.666992 -141 2 -197c1.33301 -55.333 2.66602 -84.333 3.99902 -87c2 -2 10.333 -9.33301 25 -22l52 -40
c60.667 -44.667 98.334 -76.334 113.001 -95.001c8 -9.33301 12 -18 12 -26c0 -7.33301 -3 -14 -9 -20c-3.33301 -3.33301 -16.333 -6 -39 -8c-22.667 -1.33301 -56.334 -2 -101.001 -2c-62 0 -103 1.33301 -123 4s-48.667 10 -86 22l-78 26l-60 -23
c-25.333 -10 -48 -16.333 -68 -19c-19.333 -3.33301 -50.333 -5.66602 -93 -6.99902c-14.667 -0.666992 -28 -1 -40 -1c-18.667 0 -34.667 0.666992 -48 2c-22.667 1.33301 -42.334 4.33301 -59.001 9z" />
    <glyph glyph-name="v" unicode="v" horiz-adv-x="1397" 
d="M573 12c-20 8.66699 -36.667 21.998 -50 39.998c-14 18 -34.333 60.667 -61 128l-40 102l-54 143l-131 351l-54 42c-60.667 47.333 -99 78.333 -115 93c-16 14 -24.667 24.333 -26 31c-0.666992 2.66699 -1 5 -1 7c0 12 5.66699 20.333 17 25
c13.333 4.66699 43.666 7 90.999 7c65.333 0 127.333 -7.66699 186 -23c59.333 -15.333 101.333 -34.666 126 -57.999c8.66699 -8 22.334 -33.667 41.001 -77c18 -43.333 46.333 -116.666 85 -219.999c28 -76 53 -141 75 -195s34.333 -81 37 -81s15 27 37 81s47 119 75 195
c38.667 103.333 67 176.666 85 219.999c18.667 43.333 32 69 40 77c25.333 23.333 67.333 42.666 126 57.999c59.333 15.333 121.666 23 186.999 23c34 0 58 -1 72 -3c14.667 -1.33301 23.667 -4.33301 27 -9c5.33301 -6 8 -12 8 -18
c0 -5.33301 -1.66699 -10.666 -5 -15.999c-6.66699 -12 -24 -28.667 -52 -50l-50 -40l-46 -36l-42 -33l-131 -351l-54 -144l-41 -103c-26.667 -66.667 -47 -109 -61 -127c-13.333 -17.333 -30.333 -30.666 -51 -39.999c-18 -7.33301 -58.667 -11 -122 -11h-4
c-65.333 0 -106.666 4 -123.999 12z" />
    <glyph glyph-name="w" unicode="w" horiz-adv-x="1825" 
d="M573 11c-28 12.667 -50.3379 33.999 -67.0049 63.999c-17.333 30 -46.666 100.667 -87.999 212l-71 190l-59 160l-52 138l-53 42c-62.667 49.333 -101.334 81 -116.001 95c-15.333 13.333 -23.666 23.333 -24.999 30c-0.666992 2.66699 -1 5 -1 7c0 12 5.66699 20 17 24
c13.333 5.33301 43.666 8 90.999 8c68.667 0 134 -8.66699 196 -26s103 -38.333 123 -63c5.33301 -6.66699 18.333 -35 39 -85l66 -170l65 -169c17.333 -41.333 27.666 -62 30.999 -62c4 0 12.333 14.333 25 43s25.334 59.667 38.001 93
c9.33301 26.667 17.333 51.334 24 74.001c7.33301 22.667 10 36.667 8 42c-1.33301 4.66699 -4.66602 15.334 -9.99902 32.001l-19 54c-11.333 30.667 -20.666 51.667 -27.999 63c-8 12 -21.333 25.333 -40 40c-32.667 26 -52.334 47 -59.001 63
c-7.33301 16 -3.66602 31.333 11.001 46c10.667 10.667 29.667 16 57 16h9c31.333 -0.666992 70 -8 116 -22c46.667 -14.667 84 -22 112 -22s65.333 7.33301 112 22c45.333 14 84 21.333 116 22h9c26.667 0 45.334 -5.33301 56.001 -16c14.667 -14.667 18.667 -30 12 -46
c-7.33301 -16 -27 -37 -59 -63c-19.333 -14.667 -32.666 -28 -39.999 -40c-8 -11.333 -17.333 -32.333 -28 -63c-7.33301 -19.333 -13.666 -37.333 -18.999 -54c-6 -16.667 -9.66699 -27.334 -11 -32.001c-1.33301 -5.33301 1.33398 -19.333 8.00098 -42
s15 -47.334 25 -74.001c12 -33.333 24.333 -64.333 37 -93s21 -43 25 -43c3.33301 0 13.666 20.333 30.999 61c16.667 40.667 38.667 97.334 66 170.001c23.333 63.333 45.333 120 66 170s33.667 78.333 39 85c19.333 24.667 60 45.667 122 63s127.667 26 197 26
c34 0 58 -1 72 -3c14 -1.33301 23 -4.33301 27 -9c4.66699 -6 7 -12 7 -18v-2c0 -4.66699 -1.33301 -9.33398 -4 -14.001c-7.33301 -12 -24.666 -28.667 -51.999 -50l-50 -40l-46 -36l-41 -34l-131 -350l-54 -144c-15.333 -40.667 -29 -75 -41 -103
c-26.667 -67.333 -47 -109.666 -61 -126.999c-14 -18 -31.333 -31.333 -52 -40c-18 -7.33301 -49.667 -11 -95 -11s-77 3.66699 -95 11c-21.333 8.66699 -41 25.334 -59 50.001c-17.333 24 -34.333 57.667 -51 101c-8.66699 22.667 -16.667 41.667 -24 57
c-8 16 -12.667 24 -14 24c-2 0 -6.66699 -8 -14 -24c-7.33301 -15.333 -15.333 -34.333 -24 -57c-16.667 -43.333 -34 -77 -52 -101c-18 -24.667 -37.667 -41.334 -59 -50.001c-17.333 -7.33301 -49.333 -11 -96 -11s-78.334 3.66699 -95.001 11z" />
    <glyph glyph-name="x" unicode="x" horiz-adv-x="1438" 
d="M90 9c-13.333 13.333 -12.3311 29 3.00195 47c14.667 18 53 50.333 115 97c29.333 22 56.666 45.667 81.999 71c25.333 26 60.333 66.333 105 121c30.667 37.333 57 70.666 79 99.999c22 30 33 47 33 51c0 4.66699 -11 21.667 -33 51c-22 30 -46 61 -72 93l-49 59
c-15.333 18 -27.333 31 -36 39s-22.667 15.667 -42 23c-19.333 6.66699 -49.333 15 -90 25c-30 7.33301 -56.667 14.666 -80 21.999c-24 7.33301 -37.667 13 -41 17c-8.66699 8 -13 20.667 -13 38v6c1.33301 19.333 7 34.333 17 45c8 8 29 17.333 63 28
c34.667 10 71 18.667 109 26c20.667 3.33301 40.667 6.33301 60 9c19.333 2 36.666 3 51.999 3c18.667 0 37.334 -0.666992 56.001 -2c18 -2 30.667 -4 38 -6c8.66699 -3.33301 24.334 -17.666 47.001 -42.999c23.333 -25.333 56.333 -64 99 -116l89 -107
c26 -29.333 40.667 -44 44 -44c7.33301 0 18.666 9 33.999 27c16 18 46.333 56.333 91 115c16.667 22 33.334 42.667 50.001 62s28 31.333 34 36c30 24 75 43.333 135 58c55.333 12.667 111.333 19 168 19h16c36 -1.33301 60 -3 72 -5s20 -6 24 -12
c7.33301 -11.333 5 -23.666 -7 -36.999s-45.333 -41 -100 -83c-42 -32.667 -75.333 -61.334 -100 -86.001c-24 -24.667 -59.667 -65.667 -107 -123c-30 -37.333 -55.333 -70.333 -76 -99c-21.333 -29.333 -32 -46 -32 -50c0 -3.33301 7.66699 -15.666 23 -36.999l54 -72
l77 -93c25.333 -29.333 41.666 -46.333 48.999 -51c5.33301 -3.33301 19.666 -8.33301 42.999 -15c22.667 -6.66699 48 -13.334 76 -20.001c63.333 -14.667 103.666 -29 120.999 -43c10.667 -8.66699 16 -20.334 16 -35.001c0 -8.66699 -2 -18.667 -6 -30
c-5.33301 -14 -18 -25.333 -38 -34c-19.333 -9.33301 -57 -20.666 -113 -33.999c-38 -8.66699 -68.667 -14.334 -92 -17.001c-15.333 -2 -31.666 -3 -48.999 -3c-8.66699 0 -18 0.333008 -28 1c-33.333 0.666992 -57.333 3.66699 -72 9c-14 5.33301 -37.333 27 -70 65
l-37 45l-49 62c-31.333 38.667 -59 71 -83 97c-23.333 26 -37 39 -41 39s-14.333 -8.66699 -31 -26c-16 -17.333 -33.667 -38.666 -53 -63.999l-45 -56c-13.333 -16.667 -25.333 -31 -36 -43c-32 -37.333 -59.667 -61.666 -83 -72.999c-23.333 -12 -60 -24.333 -110 -37
c-44.667 -11.333 -97 -18 -157 -20c-11.333 -0.666992 -22 -1 -32 -1c-40 0 -63.667 3.66699 -71 11z" />
    <glyph glyph-name="y" unicode="y" horiz-adv-x="1520" 
d="M199 -603c-25.333 6.66699 -49.333 13.667 -72 21s-36.667 12.666 -42 15.999c-18.667 12 -28 29.667 -28 53c0 25.333 10 43 30 53c4.66699 2.66699 18.667 7.33398 42 14.001l77 19c34.667 8.66699 61.334 16.334 80.001 23.001c19.333 6 30.666 11.667 33.999 17
c3.33301 4 16.666 26.667 39.999 68l81 143l109 196l-24 31c-7.33301 9.33301 -24.666 47.666 -51.999 114.999l-102 264l-130 348l-54 42c-60.667 47.333 -99 78.333 -115 93c-16 14 -24.667 24.333 -26 31c-0.666992 2.66699 -1 5 -1 7c0 12 5.66699 20.333 17 25
c14 4.66699 44.333 7 91 7c66 0 130 -8.33301 192 -25c61.333 -16.667 103 -36.667 125 -60c5.33301 -6 19.666 -37 42.999 -93l79 -204c34 -90.667 60.667 -159.334 80 -206.001s31 -70 35 -70c3.33301 0 20.666 26.333 51.999 79l113 198l116 201
c34.667 58 55 89.667 61 95c30.667 26 76.334 46.667 137.001 62c54.667 14 110.667 21 168 21h21c37.333 -0.666992 62 -2 74 -4c12.667 -2.66699 21 -7 25 -13c2 -4 3 -8 3 -12v-2c0 -7.33301 -3.66699 -15 -11 -23c-12 -13.333 -45.333 -40.666 -100 -81.999
c-32.667 -25.333 -59 -47.333 -79 -66c-20.667 -19.333 -34.667 -35 -42 -47c-2.66699 -4 -9.33398 -15.667 -20.001 -35l-43 -77l-129 -229l-169 -305l-170 -304l-127 -230l-43 -77c-10.667 -18.667 -17 -30 -19 -34c-20.667 -36.667 -58 -58.667 -112 -66
c-13.333 -2 -27.666 -3 -42.999 -3c-47.333 0 -104.666 8.33301 -171.999 25z" />
    <glyph glyph-name="z" unicode="z" horiz-adv-x="1253" 
d="M66 12c-12.667 12.667 -11.6689 27.998 2.99805 45.998s51.667 49.333 111 94c20.667 15.333 38.667 30.666 54 45.999c15.333 14.667 35.333 37.334 60 68.001c14 16.667 29.667 36.334 47 59.001l62 81l113 150l75 100c36 48.667 57.667 78.667 65 90
c6.66699 10.667 9.33398 17.334 8.00098 20.001c-2 2.66699 -15.333 4.66699 -40 6c-25.333 1.33301 -53.666 2 -84.999 2c-39.333 0 -77 -1 -113 -3s-56.333 -4.66699 -61 -8c-3.33301 -2.66699 -12.666 -13 -27.999 -31l-49 -61c-17.333 -22.667 -34 -42.667 -50 -60
c-15.333 -18 -25.333 -28 -30 -30c-4.66699 -2.66699 -13.667 -4.66699 -27 -6c-12.667 -2 -26 -3 -40 -3c-28 0 -49 4.33301 -63 13c-14.667 8.66699 -22 21 -22 37c0 7.33301 2.33301 21.666 7 42.999l18 73c10.667 40 22 80 34 120c12.667 40 21.334 64 26.001 72
c11.333 18 24.666 30.667 39.999 38c14.667 6.66699 49.667 11 105 13c23.333 0.666992 51.666 1.33398 84.999 2.00098h120c110 0 185.667 -0.666992 227 -2c42 -2 69.667 -5.33301 83 -10c15.333 -5.33301 27 -8 35 -8s20 2.66699 36 8c14 4.66699 33.333 7.66699 58 9
c16.667 0.666992 39.334 1 68.001 1h47c60 -0.666992 98.333 -2 115 -4c17.333 -2 28 -6.33301 32 -13c2.66699 -4 4 -8.33301 4 -13c0 -7.33301 -3.66699 -15 -11 -23c-10.667 -12.667 -40.667 -37.667 -90 -75c-37.333 -28 -66 -52.333 -86 -73
c-20.667 -20.667 -47 -52.334 -79 -95.001l-148 -194l-98 -130c-47.333 -63.333 -75.333 -102 -84 -116c-9.33301 -14 -12.666 -22.667 -9.99902 -26c1.33301 -2.66699 13.666 -4.33398 36.999 -5.00098c23.333 -1.33301 50.333 -2 81 -2h28c27.333 0 54.333 0.666992 81 2
c35.333 1.33301 55.666 3.33301 60.999 6c4.66699 2.66699 15 12.667 31 30l50 60c17.333 22.667 33.666 43 48.999 61s24.666 28.333 27.999 31c4 3.33301 12.667 6 26 8c14 2 30 3 48 3c50 0 77.333 -12.333 82 -37c0.666992 -2.66699 1 -6 1 -10
c0 -31.333 -13.667 -96 -41 -194c-16 -56.667 -29.333 -94.667 -40 -114c-10 -19.333 -25 -33.666 -45 -42.999c-11.333 -5.33301 -52.333 -9.33301 -123 -12c-57.333 -2 -116.666 -3 -177.999 -3h-44c-63.333 0.666992 -121 2.33398 -173 5.00098s-84 6 -96 10
c-16 6.66699 -28 10 -36 10c-7.33301 0 -20.333 -3.33301 -39 -10c-10 -3.33301 -26.667 -6 -50 -8s-48.666 -3.66699 -75.999 -5c-20.667 -0.666992 -41 -1 -61 -1s-39.667 0.333008 -59 1c-38.667 2 -60.667 5.33301 -66 10z" />
    <glyph glyph-name="braceleft" unicode="{" horiz-adv-x="1256" 
d="M673 -232c-50 18 -93.3301 40.668 -129.997 68.001c-37.333 26.667 -69 58.667 -95 96c-26 36 -45 67.333 -57 94c-12 26 -23 59.667 -33 101c-8.66699 38.667 -13 76 -13 112v20c2 42.667 10.667 85.334 26 128.001c13.333 38 20 63 20 75c0 12.667 -14 23.667 -42 33
c-39.333 12.667 -75.666 29.334 -108.999 50.001s-68.666 48.667 -105.999 84l-73 69v56v57l73 69c37.333 34.667 72.666 62.667 105.999 84c33.333 20.667 69.666 37.334 108.999 50.001c28 9.33301 42 20 42 32c0 12.667 -6.66699 38 -20 76
c-15.333 42.667 -24 85 -26 127v20c0 36 4.33301 73.333 13 112c22 92 60.333 168.333 115 229c55.333 60.667 126 105.334 212 134.001c17.333 5.33301 35 8.66602 53 9.99902c10 1.33301 22 2 36 2c12 0 25.667 -0.333008 41 -1c38 -2 69 -5.66699 93 -11
c24.667 -5.33301 66.667 -18 126 -38c48.667 -16 85 -29.333 109 -40c24 -10 40 -19.333 48 -28c15.333 -14.667 23.333 -30.667 24 -48v-2c-0.666992 -16.667 -7.66699 -32 -21 -46c-9.33301 -9.33301 -19 -15 -29 -17c-9.33301 -2 -29.666 -3.33301 -60.999 -4
c-19.333 0 -47.333 1.66699 -84 5c-36.667 2.66699 -71 5.66699 -103 9c-33.333 4 -63.666 7 -90.999 9c-27.333 1.33301 -44.666 1 -51.999 -1c-18.667 -4.66699 -40.667 -21.334 -66 -50.001c-26 -28.667 -44.667 -57.334 -56 -86.001c-8.66699 -20.667 -14 -40 -16 -58
c-2.66699 -18 -4 -48.667 -4 -92c0 -44 1.33301 -75.333 4 -94s9 -42.667 19 -72c8 -23.333 13.667 -42.333 17 -57c2.66699 -14.667 3 -26.334 1 -35.001c-4 -18 -14.333 -47 -31 -87c-17.333 -39.333 -29.333 -62.666 -36 -69.999c-4 -4 -13.333 -7.33301 -28 -10
c-14.667 -3.33301 -34 -5.66602 -58 -6.99902c-39.333 -3.33301 -77.333 -11 -114 -23s-59 -24.667 -67 -38c-4 -6 -5.33301 -11 -4 -15c2 -4 6.66699 -9.33301 14 -16c15.333 -12.667 42 -24 80 -34c38.667 -10.667 72.667 -16 102 -16c33.333 0 56 -5 68 -15
c12.667 -10 27.334 -34.667 44.001 -74c20 -48.667 30 -81.667 30 -99s-6 -43 -18 -77c-10 -29.333 -16.333 -53.333 -19 -72s-4 -50.334 -4 -95.001c0 -42.667 1.33301 -73 4 -91c2 -18 7.33301 -37.667 16 -59c11.333 -28.667 30 -57.334 56 -86.001
c25.333 -28.667 47.333 -45.334 66 -50.001c7.33301 -1.33301 24.666 -1.33301 51.999 0s57.666 4 90.999 8c32 4 66.333 7.33301 103 10s64.667 4 84 4c31.333 0 51.666 -1 60.999 -3c10 -2.66699 19.667 -8.66699 29 -18c14 -14 21 -29.667 21 -47
c-0.666992 -17.333 -8.66699 -33.666 -24 -48.999c-8 -8 -24 -17.333 -48 -28c-24 -10 -60.333 -23.333 -109 -40c-62.667 -20.667 -105.334 -33.667 -128.001 -39c-22.667 -4.66699 -55.334 -7.33398 -98.001 -8.00098c-12.667 -0.666992 -24.334 -1 -35.001 -1
c-20 0 -35.667 0.666992 -47 2c-18.667 2 -36.334 6 -53.001 12z" />
    <glyph glyph-name="bar" unicode="|" horiz-adv-x="449" 
d="M159 -600c-4.66699 4 -11.3311 13.668 -19.998 29.001s-17 31.666 -25 48.999l-28 63c0 223.333 -0.666992 558.333 -2 1005c-0.666992 223.333 -1.33398 558.333 -2.00098 1005l29 72c18.667 45.333 34.334 73.666 47.001 84.999s35 17 67 17
c31.333 0 53.666 -5.66699 66.999 -17c12.667 -11.333 28 -39.666 46 -84.999l30 -72c-0.666992 -167.333 -1.66699 -502.333 -3 -1005c0 -223.333 -0.666992 -558.333 -2 -1005l-28 -63c-18 -40.667 -33 -66.334 -45 -77.001c-12.667 -10 -34.334 -15 -65.001 -15
c-17.333 0 -31 1 -41 3c-10.667 2.66699 -19 6.33398 -25 11.001z" />
    <glyph glyph-name="braceright" unicode="}" horiz-adv-x="1256" 
d="M364 -241l-50.0029 14.998l-97 32c-47.333 15.333 -82.666 28 -105.999 38c-22.667 10 -38.334 19 -47.001 27c-14.667 15.333 -22.334 31.666 -23.001 48.999v2c0 16.667 7 31.667 21 45c8.66699 9.33301 18 15.333 28 18c10 2 30.667 3 62 3
c18.667 0 46.334 -1.33301 83.001 -4s71.334 -6 104.001 -10s62.667 -6.66699 90 -8c28 -1.33301 45.333 -1.33301 52 0c18.667 4.66699 41 21.334 67 50.001c25.333 28.667 43.666 57.334 54.999 86.001c7.33301 18.667 12.666 38 15.999 58
c3.33301 20.667 5.66602 47.334 6.99902 80.001c0.666992 16 1 30.333 1 43c0 18.667 -0.666992 33 -2 43c-2 17.333 -9.33301 44.333 -22 81c-13.333 40.667 -20 70 -20 88c0 18.667 10 52 30 100c16 39.333 30.333 64 43 74s35.334 15 68.001 15c30 0 64 5.33301 102 16
c38.667 10.667 65.334 22 80.001 34c8 6.66699 12.667 12 14 16s0.333008 9 -3 15c-8 13.333 -30.333 26 -67 38c-36.667 12.667 -75 20.334 -115 23.001c-24 1.33301 -43.333 3.66602 -58 6.99902c-14 2.66699 -23 6.33398 -27 11.001
c-7.33301 6.66699 -19.333 29.667 -36 69s-27 68.333 -31 87c-2 8 -1.33301 20.333 2 37c3.33301 17.333 9.33301 39.666 18 66.999c12.667 36.667 20 63.334 22 80.001c1.33301 10.667 2 25.334 2 44.001c0 12.667 -0.333008 27 -1 43
c-1.33301 32.667 -3.66602 59.334 -6.99902 80.001c-3.33301 20 -8.66602 39.333 -15.999 58c-11.333 28.667 -29.666 57.334 -54.999 86.001c-26 28 -48.333 44.333 -67 49c-6.66699 2 -24 2.33301 -52 1c-27.333 -1.33301 -57.333 -4 -90 -8
s-67.334 -7.33301 -104.001 -10s-64.334 -4 -83.001 -4c-31.333 0 -52 1 -62 3s-19.333 7.66699 -28 17c-14 14 -21 29.333 -21 46v2c0.666992 17.333 8.33398 33.333 23.001 48c8 8.66699 24.333 18 49 28c24 10.667 60 24 108 40c60 20 102 32.667 126 38
c24.667 6 56 9.66699 94 11c14.667 0.666992 28 1 40 1c14.667 0 26.667 -0.333008 36 -1c18.667 -2 36.667 -5.66699 54 -11c50.667 -16.667 96 -39.334 136 -68.001c40.667 -28 74.334 -61 101.001 -99c26 -36.667 44.667 -68 56 -94c12 -26 23 -60 33 -102
c9.33301 -38.667 14 -76 14 -112v-19c-2.66699 -42.667 -11.667 -85.334 -27 -128.001c-13.333 -38 -20 -63.333 -20 -76c0 -12 14.333 -22.667 43 -32c39.333 -12.667 75.333 -29.334 108 -50.001c33.333 -20.667 68.666 -48.667 105.999 -84l73 -69v-57v-56l-73 -69
c-37.333 -35.333 -72.666 -63.333 -105.999 -84c-32.667 -20.667 -68.667 -37.334 -108 -50.001c-28.667 -9.33301 -43 -20 -43 -32c0 -12.667 6.66699 -38 20 -76c15.333 -42.667 24.333 -85.334 27 -128.001v-19c0 -36 -4.66699 -73.667 -14 -113
c-27.333 -114.667 -81 -206 -161 -274c-78.667 -66.667 -169.667 -100 -273 -100h-6c-21.333 0.666992 -41 1.33398 -59 2.00098s-29.333 1.66699 -34 3z" />
    <glyph glyph-name="asciitilde" unicode="~" horiz-adv-x="1118" 
d="M603 595c-42.667 11.333 -79.665 33.333 -110.998 66c-31.333 32 -57 75 -77 129c-14.667 40 -29.334 60.333 -44.001 61h-2c-15.333 0 -43.333 -17 -84 -51c-24.667 -20.667 -45.667 -34 -63 -40c-16.667 -6.66699 -41.334 -10 -74.001 -10c-37.333 0 -63 3 -77 9
c-13.333 6 -20 17.333 -20 34c0 20 11.667 50.667 35 92s48 75 74 101c32.667 33.333 64.667 54.666 96 63.999c30.667 10 82.667 15 156 15c66.667 0 112 -4.66699 136 -14c24.667 -8.66699 54 -31.667 88 -69c19.333 -21.333 37 -47.666 53 -78.999
c16.667 -31.333 25 -55.333 25 -72c0 -9.33301 4.66699 -16.666 14 -21.999c8.66699 -6 18 -7.33301 28 -4c4.66699 1.33301 13 6.33301 25 15c12.667 8 25 17 37 27c32 26 55.333 41.667 70 47c14.667 4.66699 42.334 7 83.001 7c40 0 65.667 -2.33301 77 -7
c12 -4.66699 18 -15.334 18 -32.001s-12.333 -47.334 -37 -92.001s-47 -77 -67 -97c-25.333 -25.333 -51.333 -44 -78 -56c-26 -11.333 -60.333 -19.666 -103 -24.999c-42 -5.33301 -75 -8 -99 -8h-5c-24.667 0 -49.334 3.66699 -74.001 11z" />
    <glyph glyph-name="exclamdown" unicode="&#xa1;" horiz-adv-x="520" 
d="M128 676c-27.333 12.667 -45.333 28 -54 46c-8.66699 18.667 -13 51.667 -13 99c0 46.667 4.33301 79 13 97c8 18 26.333 34 55 48c14 7.33301 29 12 45 14c16.667 2 45 3 85 3c39.333 0 67.333 -1 84 -3c16 -2 31 -6.66699 45 -14c27.333 -13.333 45.333 -29 54 -47
c9.33301 -18 14.666 -48 15.999 -90v-19v-8c0 -31.333 -3.66699 -55 -11 -71c-9.33301 -20.667 -27.666 -38 -54.999 -52c-16 -8 -31.667 -13.333 -47 -16c-15.333 -2 -43 -3 -83 -3h-3c-38 0.666992 -66 2 -84 4s-33.667 6 -47 12zM170 -577
c-20 7.33301 -35.335 17.333 -46.002 30c-10.667 12 -19.334 29.667 -26.001 53c-1.33301 6 -2.33301 18.667 -3 38v23c0 14.667 0.333008 31 1 49c0.666992 53.333 3.33398 118.666 8.00098 195.999c4 76.667 8.66699 153.334 14 230.001c6 79.333 12 152 18 218
c6.66699 66 12.667 112.667 18 140c13.333 64 25.333 103.333 36 118c10 14 33 21 69 21c35.333 0 58.333 -7.33301 69 -22c10.667 -14 22.334 -53 35.001 -117c8 -41.333 15 -94.666 21 -159.999c6 -66 13.333 -173.333 22 -322l9 -158
c2.66699 -44.667 4.33398 -83.334 5.00098 -116.001c1.33301 -26 2 -49 2 -69c0 -36 -1.66699 -60.667 -5 -74c-4.66699 -21.333 -14 -39 -28 -53c-18.667 -18 -51 -29.667 -97 -35c-14 -2 -27.333 -3 -40 -3c-30 0 -57.333 4.33301 -82 13z" />
    <glyph glyph-name="cent" unicode="&#xa2;" horiz-adv-x="1047" 
d="M428 800c0 60.667 -0.999023 110 -2.99902 148c-1.33301 38.667 -3 58 -5 58c-8 0 -18 -9.66699 -30 -29c-11.333 -20 -21.333 -43.333 -30 -70c-10.667 -34.667 -16 -70.667 -16 -108c0 -12 0.666992 -24 2 -36c4.66699 -50 18 -94.667 40 -134
c12.667 -22 22 -33 28 -33c3.33301 0.666992 5.66602 4 6.99902 10c4.66699 18 7 82.667 7 194zM523.001 41c-12.667 5.33301 -24.0039 16.0029 -34.0039 32.0029c-10 15.333 -22 41.666 -36 78.999c-8.66699 22.667 -15 43 -19 61s-6.33301 35.667 -7 53v48l-81 39
c-48.667 24 -87.667 48 -117 72c-28.667 24 -55.667 55 -81 93c-39.333 58.667 -65.333 122 -78 190c-6 30 -9 59.667 -9 89c0 37.333 4.33301 74 13 110c20 84 53.667 154.667 101 212c46.667 57.333 107.667 102.333 183 135c14.667 6 36.334 15.333 65.001 28
c1.33301 13.333 3 33.666 5 60.999c2.66699 34 12.334 73 29.001 117s32.334 72.333 47.001 85c12 10 34 15 66 15s54 -5 66 -15c14.667 -12 30.334 -40 47.001 -84s26.334 -82 29.001 -114c1.33301 -13.333 3 -32.666 5 -57.999l52 -19c34 -12 61.333 -26 82 -42
c20.667 -16.667 43.667 -41.667 69 -75c25.333 -34 43.666 -65 54.999 -93c6.66699 -18 10 -32.667 10 -44c0 -7.33301 -1.33301 -13.333 -4 -18c-6 -11.333 -17 -18.666 -33 -21.999c-10 -2 -24.667 -3 -44 -3c-11.333 0 -24.333 0.333008 -39 1
c-30 1.33301 -50.667 3.33301 -62 6c-10.667 3.33301 -23.667 11.333 -39 24c-9.33301 7.33301 -18 13.666 -26 18.999c-8.66699 5.33301 -14 8 -16 8c-3.33301 0 -5.66602 -19 -6.99902 -57c-1.33301 -37.333 -2 -95.333 -2 -174c0 -126 2 -197.667 6 -215
c3.33301 -16.667 17.333 -14.667 42 6c18 14.667 35.333 24.667 52 30c17.333 5.33301 41.333 8 72 8c37.333 0 62.666 -3 75.999 -9s20 -17.333 20 -34c0 -20 -11.667 -50.667 -35 -92s-48 -75.333 -74 -102c-19.333 -19.333 -35.666 -33 -48.999 -41
c-12.667 -8.66699 -30 -16.334 -52 -23.001c-12 -3.33301 -30 -8.66602 -54 -15.999c-1.33301 -12.667 -3 -32 -5 -58c-2.66699 -31.333 -12.334 -69.333 -29.001 -114s-32 -73.334 -46 -86.001c-9.33301 -8.66699 -27.333 -14.334 -54 -17.001
c-8.66699 -1.33301 -16.667 -2 -24 -2c-15.333 0 -27.333 2 -36 6z" />
    <glyph glyph-name="sterling" unicode="&#xa3;" horiz-adv-x="1174" 
d="M70 0c-12.667 9.33301 -13.3369 21.9941 -2.00391 37.9941c12 15.333 40.667 40.666 86 75.999l84 64c0.666992 64.667 1.33398 161.334 2.00098 290.001c0.666992 47.333 1 87.666 1 120.999v82c-0.666992 40.667 -2 66.334 -4 77.001s-5.33301 17 -10 19
c-4 2 -14 5.66699 -30 11c-16.667 5.33301 -34.334 10.333 -53.001 15c-37.333 10 -61 18.667 -71 26c-10 6.66699 -16.667 19.667 -20 39c-1.33301 4 -2 8 -2 12c0 15.333 6.66699 28.333 20 39c16 14 45 26.333 87 37c20 4.66699 38 9.66699 54 15c16 6 25.333 10 28 12
c2.66699 2.66699 6.33398 11.334 11.001 26.001s8.66699 31 12 49c17.333 91.333 47.666 178 90.999 260c42.667 81.333 89 140.333 139 177c37.333 27.333 70.333 46 99 56c26.667 10 58.667 15 96 15h7c41.333 0 88.333 -5 141 -15s91.334 -21 116.001 -33
c18.667 -9.33301 42.334 -31 71.001 -65s50.667 -66 66 -96c10.667 -21.333 17 -42 19 -62c1.33301 -20.667 -2.33398 -33.667 -11.001 -39c-3.33301 -2 -14 -4 -32 -6c-18 -1.33301 -38.333 -2 -61 -2h-80l-51 41c-29.333 23.333 -54.666 39.333 -75.999 48
c-22 8.66699 -48.333 13.667 -79 15c-20 0 -33.333 -1.66699 -40 -5c-7.33301 -3.33301 -18.666 -13.666 -33.999 -30.999c-18.667 -20.667 -37.334 -53.667 -56.001 -99s-32.667 -91.333 -42 -138c-5.33301 -27.333 -8 -47.666 -8 -60.999c0 -8.66699 1 -14.667 3 -18
c5.33301 -8 26.333 -12 63 -12c32.667 0 80 -6.33301 142 -19c61.333 -12.667 102.333 -24.334 123 -35.001c21.333 -10.667 32 -27.667 32 -51v-8c-2.66699 -26.667 -17 -45 -43 -55c-30 -11.333 -68.667 -21.666 -116 -30.999c-47.333 -10 -89.666 -16 -126.999 -18
c-18.667 -1.33301 -46.667 -3 -84 -5v-252v-251c11.333 -3.33301 28.333 -8 51 -14c13.333 -3.33301 28.333 -8 45 -14c16 -5.33301 28.667 -10 38 -14c14.667 -6.66699 28.667 -10 42 -10c12.667 0 41.334 3 86.001 9c26.667 3.33301 58.667 6.33301 96 9s69.333 4 96 4
c43.333 0 71 -1 83 -3s22 -7 30 -15c7.33301 -6.66699 12 -13.667 14 -21c0.666992 -2.66699 1 -6.66699 1 -12s-0.666992 -11.666 -2 -18.999c-1.33301 -10 -4 -19.333 -8 -28c-4 -9.33301 -8.33301 -16 -13 -20c-5.33301 -4 -25.666 -13 -60.999 -27
c-35.333 -13.333 -73 -26.666 -113 -39.999c-26 -9.33301 -50.667 -17.666 -74 -24.999c-24 -7.33301 -42.333 -12.666 -55 -15.999c-24.667 -5.33301 -51.334 -8 -80.001 -8c-10.667 0 -21.334 0.333008 -32.001 1c-40 2.66699 -86 10.667 -138 24
c-50.667 13.333 -86.667 20 -108 20h-3c-20.667 0 -51 -8.33301 -91 -25c-22 -8.66699 -41.667 -14.334 -59 -17.001s-47.666 -4 -90.999 -4c-35.333 0 -62 1 -80 3c-17.333 2 -29 5 -35 9z" />
    <glyph glyph-name="currency" unicode="&#xa4;" horiz-adv-x="1162" 
d="M670 596c9.33301 4.66699 19 10.668 29 18.001s17.333 13.666 22 18.999c14 14.667 26.333 35 37 61s16 48.667 16 68c0 18.667 -5.33301 41 -16 67s-23 46.333 -37 61c-34.667 37.333 -81.334 56 -140.001 56c-58 0 -104.667 -18.667 -140 -56
c-13.333 -14.667 -25.333 -35 -36 -61s-16 -48.333 -16 -67c0 -19.333 5.33301 -42 16 -68s22.667 -46.333 36 -61c27.333 -29.333 63.333 -47.333 108 -54c12 -2 23.667 -3 35 -3c30.667 0 59.334 6.66699 86.001 20zM82 266.001
c-8.66699 8.66699 -14.333 17.335 -17 26.002s-4 22.667 -4 42c0 26.667 4.66699 50.667 14 72c10 20.667 29 49.667 57 87c22.667 29.333 34 51.333 34 66s-8.66699 41.667 -26 81c-9.33301 22 -15.666 41 -18.999 57c-2.66699 15.333 -4 37 -4 65
c0 27.333 1.33301 48.666 4 63.999c3.33301 16 9.66602 35 18.999 57c17.333 39.333 26 66.333 26 81s-11.333 36.667 -34 66c-28 37.333 -47 66.333 -57 87c-9.33301 21.333 -14 45.333 -14 72c0 32 6.33301 54.667 19 68s34.334 20 65.001 20
c19.333 0 36.666 -3.66699 51.999 -11c14.667 -7.33301 46.667 -27.666 96 -60.999l106 -72l91 15c44 7.33301 74.333 11 91 11c17.333 0 48 -3.66699 92 -11l91 -15l106 72c49.333 33.333 81.333 53.666 96 60.999s32 11 52 11c30 0 51.333 -6.66699 64 -20s19 -36 19 -68
c0 -26.667 -4.66699 -50.667 -14 -72c-9.33301 -20.667 -28.333 -49.667 -57 -87c-22.667 -29.333 -34 -51 -34 -65c0 -14.667 8.66699 -42 26 -82c16.667 -38.667 25 -79 25 -121c0 -42.667 -8.33301 -83.334 -25 -122.001c-17.333 -40.667 -26 -68 -26 -82
c0 -13.333 11.333 -35 34 -65c28.667 -37.333 47.667 -66.333 57 -87c9.33301 -21.333 14 -45.333 14 -72c0 -32 -6.33301 -54.667 -19 -68s-34 -20 -64 -20c-20 0 -37.333 3.66699 -52 11s-46.667 27.666 -96 60.999l-106 72l-91 -15c-44 -7.33301 -74.667 -11 -92 -11
c-16.667 0 -47 3.66699 -91 11l-91 15l-106 -72c-49.333 -33.333 -81.333 -53.666 -96 -60.999c-15.333 -7.33301 -32.666 -11 -51.999 -11c-16.667 0 -29.334 1.33301 -38.001 4s-17 8 -25 16z" />
    <glyph glyph-name="yen" unicode="&#xa5;" horiz-adv-x="1643" 
d="M516 1c-13.333 10 -14.3242 22.6641 -2.99121 37.9971c11.333 16 39 40.667 83 74c40.667 30.667 64.667 50.334 72 59.001c7.33301 8 10.333 19.667 9 35c0 6.66699 -0.666992 17 -2 31c-18 0.666992 -44.667 2.33398 -80 5.00098
c-37.333 2 -80.666 8.33301 -129.999 19s-85.333 21 -108 31c-10 4.66699 -19 13.334 -27 26.001s-12 24.667 -12 36c0 3.33301 2 8.33301 6 15c3.33301 6 7.66602 12 12.999 18c12 13.333 45 27.333 99 42c53.333 14 99.333 21 138 21c14.667 0 29.667 0.666992 45 2
s26.666 2.66602 33.999 3.99902c6 0.666992 14.667 2.33398 26 5.00098v65c0 38 -3.33301 60 -10 66c-7.33301 6 -32.333 9 -75 9c-30.667 0 -75.667 6.66699 -135 20c-58.667 13.333 -96.334 25 -113.001 35c-10.667 7.33301 -18.334 19.333 -23.001 36
c-4 16.667 -3 31 3 43c6.66699 12 19.334 22.333 38.001 31c18 8 47 16.333 87 25c19.333 4 37 8.33301 53 13s25.667 8.33398 29 11.001c4.66699 3.33301 -1.33301 19.333 -18 48c-16.667 28 -54 86 -112 174l-143 213l-103 78c-76 58 -114.667 96.667 -116 116v1
c0 19.333 35.333 29 106 29c38.667 0 83.667 -5.33301 135 -16c51.333 -10 94.666 -22.333 129.999 -37c28 -12 57.333 -36.333 88 -73c30 -36.667 83 -112 159 -226l110 -162c31.333 -43.333 49 -65 53 -65c3.33301 0 20.666 21.667 51.999 65l111 162
c75.333 114 128.333 189.333 159 226c30 36.667 59 61 87 73c35.333 14.667 78.666 27 129.999 37c51.333 10.667 96.333 16 135 16c70.667 0 106 -9.66699 106 -29v-1c-1.33301 -19.333 -40 -58 -116 -116l-103 -78l-142 -213c-58.667 -88 -96.334 -146 -113.001 -174
c-16.667 -28.667 -22.667 -44.667 -18 -48c3.33301 -2.66699 13 -6.33398 29 -11.001s33.667 -9 53 -13c40 -8.66699 69 -17 87 -25c18.667 -8.66699 31.334 -19 38.001 -31c6 -12 7 -26.333 3 -43c-4.66699 -16.667 -12.334 -28.667 -23.001 -36
c-16 -10 -53.667 -21.667 -113 -35c-58.667 -13.333 -103.667 -20 -135 -20c-42.667 0 -67.667 -3 -75 -9c-6.66699 -6 -10 -28 -10 -66v-65c7.33301 -1.33301 18 -3 32 -5c8.66699 -1.33301 20.667 -2.66602 36 -3.99902c15.333 -0.666992 29.333 -1 42 -1
c36.667 -0.666992 81.667 -8 135 -22c53.333 -14.667 85.666 -28.667 96.999 -42c5.33301 -6 9.66602 -12 12.999 -18c4 -6.66699 6 -11.667 6 -15c0 -11.333 -4 -23.333 -12 -36s-17 -21.334 -27 -26.001c-22.667 -10 -58.667 -20.333 -108 -31s-92.666 -17 -129.999 -19
c-18 -1.33301 -44.667 -3 -80 -5c-0.666992 -7.33301 -1.33398 -17.666 -2.00098 -30.999c-1.33301 -15.333 1.66699 -27 9 -35c7.33301 -8.66699 31.333 -28.334 72 -59.001c61.333 -46.667 92 -78.667 92 -96c0 -18 -41.667 -27 -125 -27
c-40.667 0 -70.334 1.33301 -89.001 4c-18.667 2 -37.667 6.66699 -57 14l-46 18l-47 -18c-19.333 -7.33301 -38.333 -12 -57 -14c-18.667 -2.66699 -48 -4 -88 -4c-34.667 0 -61 1 -79 3s-29.667 4.66699 -35 8z" />
    <glyph glyph-name="brokenbar" unicode="&#xa6;" horiz-adv-x="449" 
d="M162 781c-6 6 -13.666 19.333 -22.999 40c-8.66699 20.667 -17.667 45 -27 73l-30 93v131v129v49v212l30 94c19.333 59.333 35 96 47 110c12 14.667 33.667 22 65 22c32 0 54 -7.33301 66 -22c12 -14 27.667 -50.667 47 -110l30 -94v-261v-260
c-4.66699 -15.333 -14.667 -46.333 -30 -93c-18.667 -57.333 -34.667 -94 -48 -110c-13.333 -15.333 -35 -23 -65 -23c-16.667 0 -29.334 1.33301 -38.001 4c-8 2.66699 -16 8 -24 16zM160.001 -596c-4.66699 5.33301 -11.6641 19 -20.9971 41
c-9.33301 22.667 -18.333 47 -27 73l-30 94v131v129v49v211l30 94c18.667 56.667 34.667 93 48 109c13.333 15.333 34.666 23 63.999 23c30 0 51.667 -7.66699 65 -23c13.333 -16 29.333 -52.333 48 -109l30 -94v-260v-260l-30 -94c-19.333 -59.333 -35 -96.333 -47 -111
c-12 -14 -34 -21 -66 -21c-18.667 0 -32.334 1 -41.001 3c-8.66699 2.66699 -16.334 7.66699 -23.001 15z" />
    <glyph glyph-name="section" unicode="&#xa7;" horiz-adv-x="1058" 
d="M589 383c16.667 6 32.999 17.335 48.999 34.002c16.667 16 29.334 33.667 38.001 53c10 22 15 44 15 66v2c0 21.333 -3.66699 41.666 -11 60.999c-13.333 36.667 -37.666 65.667 -72.999 87c-22.667 14.667 -47 22 -73 22c-13.333 0 -27.333 -2 -42 -6
c-10.667 -2.66699 -22.334 -7 -35.001 -13s-22.667 -11.667 -30 -17c-16.667 -12.667 -31 -32 -43 -58c-12.667 -26 -19 -50 -19 -72c0 -32 9.33301 -63 28 -93s41.667 -51 69 -63c14.667 -6.66699 35.667 -10.334 63 -11.001h7c23.333 0 42.333 2.66699 57 8z
M331.999 -605.998c-32.667 5.33301 -63.6709 15.6729 -93.0039 31.0059c-30 15.333 -53.667 33.333 -71 54c-22 26 -43.667 58.333 -65 97c-20.667 39.333 -31 67 -31 83c0 19.333 7 31.666 21 36.999c11.333 4 32.333 6 63 6h25c34.667 -1.33301 57 -3.66602 67 -6.99902
c10.667 -2.66699 23.667 -10.667 39 -24c34.667 -29.333 61 -48.666 79 -57.999c18 -8.66699 40.667 -14.334 68 -17.001c9.33301 -0.666992 18.666 -1 27.999 -1c26.667 0 49 3 67 9c24.667 8.66699 48.667 24.667 72 48c54.667 56.667 82 131 82 223
c0 89.333 -26.667 163.333 -80 222c-16.667 18.667 -36.667 33 -60 43c-23.333 9.33301 -57 17.666 -101 24.999c-39.333 6 -76.666 17 -111.999 33s-67.333 35.333 -96 58c-54.667 43.333 -96 95.333 -124 156c-19.333 41.333 -29 83 -29 125c0 18.667 2 37.667 6 57
c8 36.667 21 71.667 39 105s40.667 63.666 68 90.999c10.667 10 26.334 25.667 47.001 47c-4 4.66699 -9.66699 12 -17 22c-48 60 -81.667 116 -101 168s-29 111 -29 177c0 36.667 1.33301 64.667 4 84s8.33398 42.666 17.001 69.999c29.333 86 76.333 158 141 216
s141.667 96 231 114c28.667 6 53 9.33301 73 10h9c20.667 0 50 -2 88 -6c62 -5.33301 108.667 -14.333 140 -27s61.666 -34.667 90.999 -66c22 -23.333 43.667 -55.333 65 -96c22 -40.667 33 -70 33 -88c0 -16 -5.66699 -25.667 -17 -29c-11.333 -4 -40.666 -6 -87.999 -6
h-78l-50 42c-31.333 26 -55.666 42.333 -72.999 49s-44.666 10 -81.999 10c-38.667 0 -70.334 -5.66699 -95.001 -17c-25.333 -12 -47.666 -31.333 -66.999 -58c-40 -53.333 -60.333 -118.333 -61 -195v-8c0 -73.333 18.333 -137 55 -191c20 -29.333 41 -50 63 -62
c21.333 -12 56.666 -22.667 105.999 -32c76.667 -14.667 144 -41 202 -79c58 -38.667 102 -86 132 -142c28 -52.667 42 -105.334 42 -158.001c0 -16 -1.33301 -32.333 -4 -49c-10.667 -68 -45 -132.667 -103 -194l-52 -56l29 -36c24 -28.667 43 -55.667 57 -81
s26.667 -55 38 -89c15.333 -46 24 -90.333 26 -133c0.666992 -8 1 -16.333 1 -25c0 -35.333 -4.66699 -71.333 -14 -108c-23.333 -96.667 -65.333 -176.667 -126 -240c-60 -62.667 -137 -106.334 -231 -131.001c-27.333 -6.66699 -68.666 -10.334 -123.999 -11.001
c-6 -0.666992 -11.667 -1 -17 -1c-48 0 -89 3 -123 9z" />
    <glyph glyph-name="dieresis" unicode="&#xa8;" horiz-adv-x="1011" 
d="M633 1564c-28 8.66699 -48.6699 24.998 -62.0029 48.998c-12.667 24.667 -19 59.334 -19 104.001c0 34.667 4 62.334 12 83.001c8.66699 21.333 22.334 39 41.001 53c10.667 7.33301 23.667 12.333 39 15c16 2 49 3.66699 99 5h35c44.667 0 76.334 -2.33301 95.001 -7
c22.667 -6.66699 42.667 -21.667 60 -45c7.33301 -10 12 -21.333 14 -34s3 -36.667 3 -72s-1 -59.333 -3 -72s-6.66699 -24 -14 -34c-16 -22 -35.333 -36.333 -58 -43c-21.333 -6.66699 -57.666 -10 -108.999 -10h-9c-27.333 0.666992 -53.333 1.66699 -78 3
c-24 1.33301 -39.333 3 -46 5zM124.997 1570c-26.667 14 -44 30.002 -52 48.002s-12 50.333 -12 97s4 79 12 97c8 18.667 25.333 34.667 52 48c12.667 6 35.334 10.333 68.001 13c22 2 44 3 66 3c10.667 0 21.667 -0.333008 33 -1c22 -0.666992 42 -2.33398 60 -5.00098
c18.667 -2.66699 32 -6 40 -10c26.667 -13.333 44 -29.333 52 -48c8 -18 12 -50.333 12 -97s-4 -79 -12 -97s-25.333 -34 -52 -48c-8 -4 -21.333 -7.33301 -40 -10c-18 -2.66699 -38 -4.33398 -60 -5.00098h-33c-22 0 -44 0.666992 -66 2
c-32.667 2.66699 -55.334 7 -68.001 13z" />
    <glyph glyph-name="copyright" unicode="&#xa9;" horiz-adv-x="1739" 
d="M937 411c-18 -0.666992 -34.0039 -1.00195 -48.0039 -1.00195c-19.333 0 -34.666 0.333008 -45.999 1c-19.333 2 -38.333 6 -57 12c-38 12.667 -69.333 26.667 -94 42c-24.667 14.667 -49 34.334 -73 59.001c-25.333 26.667 -45.666 53.667 -60.999 81
s-27.666 58.666 -36.999 93.999c-7.33301 28 -11 52.333 -11 73v5c0 22 4 48.667 12 80c20.667 80.667 61.334 147.334 122.001 200.001c60.667 52 133.334 83 218.001 93c8 0.666992 16.667 1 26 1h7c21.333 0 46 -2.66699 74 -8c43.333 -8 77.666 -18.333 102.999 -31
c41.333 -20.667 75.333 -47 102 -79c26 -32 39 -62.667 39 -92c0 -17.333 -10 -43.666 -30 -78.999c-20.667 -36 -44 -67.667 -70 -95c-22 -22.667 -37.333 -36.667 -46 -42c-8.66699 -4.66699 -22.334 -7 -41.001 -7c-14 0 -25.333 1.33301 -34 4s-16 7 -22 13
c-10.667 10.667 -15.667 20.667 -15 30c0 10 6.33301 37.333 19 82c9.33301 34 14 58.333 14 73v7c-1.33301 13.333 -10.666 26 -27.999 38c-12.667 8.66699 -32 13 -58 13c-26 -0.666992 -48 -5.33398 -66 -14.001c-17.333 -9.33301 -35.666 -26 -54.999 -50
c-18.667 -24 -31 -46.667 -37 -68c-6 -22 -9 -43.667 -9 -65c0 -28.667 5.33301 -57.667 16 -87c18.667 -50 48 -84 88 -102c10.667 -4.66699 23.667 -8.66699 39 -12c15.333 -2.66699 31 -4 47 -4c23.333 0 40 1.66699 50 5c10.667 4 27.334 14 50.001 30
c20 14.667 36.333 24.334 49 29.001c12 4.66699 27.667 7.66699 47 9c9.33301 0.666992 17.666 1 24.999 1c17.333 0 31.666 -2 42.999 -6c16 -6 24 -15.667 24 -29c0 -14 -8 -36.333 -24 -67c-16 -30 -32 -53.333 -48 -70c-26.667 -26 -53 -43.333 -79 -52
c-25.333 -8.66699 -67 -13.667 -125 -15zM973.996 216.998c32 6.66699 61.332 16.668 87.999 30.001c26.667 12.667 56 31 88 55c39.333 29.333 73.333 63.333 102 102c29.333 38.667 53.333 80.667 72 126c32 76 48 157.667 48 245c0 8 -0.333008 16 -1 24
c-3.33301 96 -27.333 188 -72 276c-18 34 -47.333 72.667 -88 116c-41.333 42.667 -80 74.334 -116 95.001c-27.333 16.667 -63.666 31 -108.999 43c-44.667 12 -83.334 18 -116.001 18c-105.333 0 -202.666 -36.333 -291.999 -109
c-88.667 -72.667 -150.667 -166.334 -186 -281.001c-13.333 -41.333 -21.333 -91.333 -24 -150v-38v-11c0 -39.333 3.33301 -75 10 -107c10 -50.667 28.667 -103.667 56 -159c28 -54.667 57.667 -98.334 89 -131.001c66 -68 136 -113.667 210 -137
c41.333 -13.333 84.333 -20 129 -20c36 0 73.333 4.33301 112 13zM737.995 0.999023c-87.333 16.667 -167.999 44.667 -241.999 84c-73.333 40 -139 91 -197 153c-53.333 57.333 -96 117.666 -128 180.999s-56.333 135 -73 215c-10 49.333 -15.333 93 -16 131v7
c0 36.667 4 77.334 12 122.001c29.333 166.667 99.666 308.334 210.999 425.001s247.333 191.667 408 225c40.667 8 92.667 12 156 12c64 0 116.333 -4 157 -12c160.667 -33.333 296.667 -108.333 408 -225s181.666 -258.334 210.999 -425.001
c8 -44.667 12 -84.334 12 -119.001c0 -34 -4 -74.333 -12 -121c-28 -161.333 -96 -299.666 -204 -414.999c-107.333 -115.333 -239.666 -192 -396.999 -230c-38 -8.66699 -89.333 -14 -154 -16c-14 -0.666992 -27.333 -1 -40 -1c-46 0 -83.333 3 -112 9z" />
    <glyph glyph-name="ordfeminine" unicode="&#xaa;" horiz-adv-x="895" 
d="M457 1162c10 6 15.999 13.001 17.999 21.001c2.66699 7.33301 4 24.333 4 51c0 33.333 -3 51.666 -9 54.999c-1.33301 1.33301 -4 2 -8 2c-11.333 0 -32.666 -3.66699 -63.999 -11c-38 -8.66699 -63.333 -16 -76 -22c-13.333 -6 -24 -15.333 -32 -28
c-6.66699 -10 -10 -17 -10 -21c0 -4.66699 3.33301 -12 10 -22c4 -6 10 -12.333 18 -19s15.667 -11.667 23 -15c13.333 -6 30 -9 50 -9c4.66699 0 9.66699 0.333008 15 1c26.667 1.33301 47 7 61 17zM238.999 1002c-66 24.667 -114.669 60.334 -146.002 107.001
c-21.333 32.667 -32 66.334 -32 101.001c0 16.667 2.33301 33 7 49c6 22.667 24 49.667 54 81s59.333 54 88 68c16.667 7.33301 37.334 13.666 62.001 18.999c24 5.33301 70 12.666 138 21.999c7.33301 1.33301 14.333 3.66602 21 6.99902s10.667 6.66602 12 9.99902
c3.33301 10 0 22.333 -10 37s-23 26.334 -39 35.001c-19.333 10 -37.333 15 -54 15c-4 0 -7.66699 -0.333008 -11 -1c-19.333 -2.66699 -41.666 -13.667 -66.999 -33c-21.333 -16 -37 -25.667 -47 -29c-10 -2.66699 -29.667 -4 -59 -4c-42.667 0 -66.667 4.66699 -72 14
c-1.33301 2.66699 -2 6.66699 -2 12c0 14.667 5.33301 39.667 16 75c13.333 44 26.333 72.667 39 86c13.333 13.333 40 26.333 80 39c34.667 10.667 69.667 16 105 16c48 0 97 -10 147 -30c86.667 -35.333 148.667 -89.666 186 -162.999c18 -34.667 31 -73.334 39 -116.001
c7.33301 -42 11 -94.333 11 -157v-119l57 -42c39.333 -29.333 65.333 -51 78 -65c8.66699 -10 13 -18.333 13 -25v-2c0 -3.33301 -0.666992 -6 -2 -8c-4 -6 -12.667 -10 -26 -12c-14 -2 -41.667 -3.66699 -83 -5c-17.333 -0.666992 -32.333 -1 -45 -1
c-20 0 -35.667 0.666992 -47 2c-18 2 -39 7 -63 15l-55 18l-52 -18c-34.667 -12 -73.667 -18 -117 -18h-4c-45.333 0.666992 -85.333 7.33398 -120 20.001z" />
    <glyph glyph-name="guillemotleft" unicode="&#xab;" horiz-adv-x="1078" 
d="M860 8c-11.333 4.66699 -35.001 29.667 -71.001 75c-36.667 45.333 -75.667 98 -117 158c-16 23.333 -32.333 45.333 -49 66c-16 20.667 -27.333 33.334 -34 38.001c-38.667 28.667 -58 72.667 -58 132c0 60 19.333 104.333 58 133c6.66699 4.66699 18 17.334 34 38.001
c16.667 20.667 33 42.667 49 66c42.667 62.667 82 116 118 160s60.333 68.333 73 73c5.33301 2.66699 14.666 4.66699 27.999 6c13.333 2 26.333 3 39 3c18.667 0 32.334 -1.33301 41.001 -4s17 -8.33398 25 -17.001c6 -6 11 -11.667 15 -17c4 -6 6 -10.333 6 -13
c0 -4 -4.33301 -23 -13 -57l-27 -104l-19 -66c-5.33301 -20 -9.66602 -34 -12.999 -42c-3.33301 -9.33301 -10.333 -23.333 -21 -42s-22 -36.667 -34 -54l-43 -63c10 -13.333 24.333 -34 43 -62c12 -17.333 23.333 -35.333 34 -54s17.667 -32.667 21 -42
c3.33301 -8 7.66602 -22 12.999 -42l19 -66l27 -104c8.66699 -34 13 -53 13 -57c0 -2.66699 -2 -7 -6 -13c-4 -5.33301 -9 -11 -15 -17c-8.66699 -8.66699 -17 -14.334 -25 -17.001c-8 -2 -20.667 -3 -38 -3h-6c-13.333 0 -26.666 1 -39.999 3
c-12.667 1.33301 -21.667 3 -27 5zM389.999 8c-10.667 4.66699 -34.334 29.667 -71.001 75s-75.334 98 -116.001 158l-49 66c-16.667 20.667 -28.334 33.334 -35.001 38.001c-38.667 28.667 -58 72.667 -58 132c0 60 19.333 104.333 58 133
c6.66699 4.66699 18.334 17.334 35.001 38.001l49 66c42.667 62.667 82 116 118 160s60 68.333 72 73c6 2.66699 15.333 4.66699 28 6c13.333 2 26.333 3 39 3c18.667 0 32.334 -1.33301 41.001 -4s17.334 -8.33398 26.001 -17.001c5.33301 -6 10 -11.667 14 -17
c4 -6 6 -10.333 6 -13c0 -4 -4 -23 -12 -57l-28 -104c-6.66699 -23.333 -12.667 -45.333 -18 -66c-6 -20 -10.333 -34 -13 -42c-3.33301 -9.33301 -10.333 -23.333 -21 -42s-22 -36.667 -34 -54l-44 -63c10 -13.333 24.667 -34 44 -62c12 -17.333 23.333 -35.333 34 -54
s17.667 -32.667 21 -42c2.66699 -8 7 -22 13 -42c5.33301 -20.667 11.333 -42.667 18 -66l28 -104c8 -34 12 -53 12 -57c0 -2.66699 -2 -7 -6 -13c-4 -5.33301 -8.66699 -11 -14 -17c-8.66699 -8.66699 -17.334 -14.334 -26.001 -17.001c-8 -2 -20.667 -3 -38 -3h-3h-2
c-14 0 -27.333 1 -40 3c-13.333 1.33301 -22.666 3 -27.999 5z" />
    <glyph glyph-name="logicalnot" unicode="&#xac;" horiz-adv-x="1296" 
d="M1027 398c-4.66699 4 -11.333 13.668 -20 29.001s-16.667 31.666 -24 48.999c-12.667 28.667 -20.667 52.334 -24 71.001c-3.33301 18 -6 53 -8 105c-1.33301 25.333 -3 63 -5 113c-79.333 1.33301 -198 3 -356 5c-44.667 0 -84 0.333008 -118 1
s-63.667 1.33398 -89 2.00098c-77.333 1.33301 -127.666 3.33301 -150.999 6c-24 3.33301 -51.333 9.33301 -82 18c-23.333 6 -44.333 12.667 -63 20c-18.667 6.66699 -30 11.667 -34 15c-8 8.66699 -12 24 -12 46c0 22.667 4 38 12 46c4 4 15.333 9.33301 34 16
c18.667 7.33301 39.667 14 63 20c18 5.33301 45.667 13 83 23h485h485l17 -20c7.33301 -10 11.666 -25.667 12.999 -47c0.666992 -10.667 1 -30.334 1 -59.001c0 -29.333 -0.333008 -68.333 -1 -117c0 -44.667 -0.666992 -111.667 -2 -201c-6.66699 -14 -16 -35 -28 -63
c-18 -40.667 -33.333 -66.334 -46 -77.001c-12 -10.667 -33.333 -16 -64 -16c-17.333 0 -31 1.33301 -41 4c-10.667 2 -19 5.66699 -25 11z" />
    <glyph glyph-name="uni00ad" unicode="&#xad;" horiz-adv-x="932" 
d="M187 703c-55.333 12.667 -90.998 22.6602 -106.998 29.9932c-16 6.66699 -26.667 16.334 -32 29.001c-4.66699 13.333 -7 24 -7 32v4c1.33301 8.66699 7.33301 19 18 31c7.33301 8 19.333 15.333 36 22c16 6.66699 44 15 84 25l100 25l210 -3
c29.333 -0.666992 55 -1 77 -1c22 -0.666992 41.333 -1.33398 58 -2.00098c38.667 -1.33301 68 -3.66602 88 -6.99902c19.333 -3.33301 42.666 -8.66602 69.999 -15.999c23.333 -6 44.333 -12.333 63 -19c18.667 -7.33301 29.667 -12.666 33 -15.999
c8.66699 -8 13 -23.333 13 -46s-4.33301 -38 -13 -46c-3.33301 -3.33301 -14.333 -8.33301 -33 -15c-18.667 -7.33301 -39.667 -14 -63 -20c-27.333 -7.33301 -50.666 -12.666 -69.999 -15.999s-49 -5.66602 -89 -6.99902c-16.667 0 -36.334 -0.333008 -59.001 -1
c-22 0 -48.333 -0.333008 -79 -1c-30.667 0 -57.334 -0.333008 -80.001 -1h-29h-29c-40 0.666992 -69.667 2.33398 -89 5.00098c-20 2.66699 -43.667 7.33398 -71 14.001z" />
    <glyph glyph-name="registered" unicode="&#xae;" horiz-adv-x="1739" 
d="M833 886c16.667 -4.66699 37.667 -7 63 -7h3c26 0 46 2.66699 60 8c15.333 5.33301 31 15.666 47 30.999c15.333 14.667 23 26.667 23 36c0 11.333 -9.33301 25.333 -28 42s-36.334 26.334 -53.001 29.001c-12 2.66699 -25.333 4 -40 4c-11.333 0 -23.666 -1 -36.999 -3
c-30 -3.33301 -51.333 -9 -64 -17c-9.33301 -6 -15 -12.333 -17 -19c-2.66699 -6.66699 -4 -18.667 -4 -36c0 -22 3 -37.333 9 -46s18.667 -16 38 -22zM584 454c-14.667 -1.33301 -28 -1.99707 -40 -1.99707s-18.667 1 -20 3c-4.66699 4 -7 9.66699 -7 17
c0 3.33301 0.666992 6.66602 2 9.99902c2 12.667 8.33301 26.667 19 42c9.33301 13.333 16.333 23.666 21 30.999v289v122c0.666992 32.667 1 60.334 1 83.001c0.666992 40.667 2.33398 67.334 5.00098 80.001c2 12.667 5.66699 23.334 11 32.001c10 16 22.333 24.667 37 26
h7c15.333 0 38 -5 68 -15c23.333 -8 39 -12 47 -12s24 4.33301 48 13c42.667 14.667 88 22 136 22c22.667 0 45.667 -1.66699 69 -5c74 -10.667 137 -35.334 189 -74.001c19.333 -14.667 37 -39.334 53 -74.001c16.667 -34.667 25 -65.334 25 -92.001
c0 -40.667 -13.667 -79.667 -41 -117s-61.666 -63.333 -102.999 -78c-12 -4.66699 -22.667 -9.66699 -32 -15c-10 -6 -15 -11 -15 -15c0 -10.667 20.333 -37 61 -79c42 -44 74.667 -71.667 98 -83c28 -14.667 42 -28.667 42 -42s-13.667 -29 -41 -47
c-18 -11.333 -32 -18.333 -42 -21c-4 -0.666992 -8.66699 -1 -14 -1h-8c-6.66699 0 -15 0.333008 -25 1c-40 3.33301 -75.667 14.666 -107 33.999c-30.667 19.333 -73.334 57.333 -128.001 114c-26.667 28 -50.334 51.667 -71.001 71c-20.667 20 -32.334 30 -35.001 30
s-4.66699 -6.66699 -6 -20s-2 -31.333 -2 -54c0 -32.667 1 -54.667 3 -66c2.66699 -12 8.66699 -25 18 -39c6 -8.66699 11 -18 15 -28c3.33301 -10 4.66602 -17.333 3.99902 -22c-1.33301 -8.66699 -4.66602 -14 -9.99902 -16
c-5.33301 -1.33301 -19.666 -1.66602 -42.999 -0.999023c-59.333 2 -99 3 -119 3c-20.667 -0.666992 -44 -2.33398 -70 -5.00098zM974 217.003c32 6.66699 61.332 16.6631 87.999 29.9961c26.667 12.667 56 31 88 55c39.333 29.333 73.333 63.333 102 102
c29.333 38.667 53.333 80.667 72 126c32 76 48 157.667 48 245c0 8 -0.333008 16 -1 24c-3.33301 96 -27.333 188 -72 276c-18 34 -47.333 72.667 -88 116c-41.333 42.667 -80 74.334 -116 95.001c-27.333 16.667 -63.666 31 -108.999 43c-44.667 12 -83.334 18 -116.001 18
c-60 0 -119 -13 -177 -39c-57.333 -25.333 -110.333 -62.666 -159 -111.999c-52 -51.333 -91.333 -108.333 -118 -171c-27.333 -63.333 -43 -135 -47 -215c-0.666992 -15.333 -1 -30 -1 -44v-11c0 -39.333 3.33301 -74.666 10 -105.999
c10 -47.333 28.333 -98.666 55 -153.999c54 -110 129.667 -190 227 -240c64.667 -33.333 133.334 -50 206.001 -50c35.333 0 71.333 4 108 12zM737.999 0.999023c-86.667 16 -166.666 43.999 -239.999 83.999c-73.333 39.333 -138.666 89 -195.999 149
c-54 58 -97.333 118.667 -130 182c-32.667 64 -57.334 136 -74.001 216c-10 50.667 -15.333 95 -16 133v9c0 36 4 76 12 120c29.333 166.667 99.666 308.334 210.999 425.001s247.333 191.667 408 225c40.667 8 92.667 12 156 12c64 0 116.333 -4 157 -12
c160.667 -33.333 296.667 -108.333 408 -225s181.666 -258.334 210.999 -425.001c8 -45.333 12 -85 12 -119s-4 -74.333 -12 -121c-28 -161.333 -96 -299.666 -204 -414.999c-107.333 -115.333 -239.666 -192 -396.999 -230c-38 -8.66699 -89.333 -14 -154 -16
c-14 -0.666992 -27.333 -1 -40 -1c-46 0 -83.333 3 -112 9z" />
    <glyph glyph-name="macron" unicode="&#xaf;" horiz-adv-x="932" 
d="M187 1575c-55.333 13.333 -90.998 23.332 -106.998 29.999s-26.667 16.334 -32 29.001c-4.66699 13.333 -7 24 -7 32v5c1.33301 8 7.33301 18 18 30c7.33301 8.66699 19.333 16 36 22c16 6.66699 44 15 84 25l100 25l210 -3c29.333 0 55 -0.333008 77 -1
s41.333 -1.33398 58 -2.00098c38.667 -1.33301 68 -3.33301 88 -6c19.333 -3.33301 42.666 -8.66602 69.999 -15.999c23.333 -6.66699 44.333 -13.334 63 -20.001s29.667 -12 33 -16c8.66699 -8 13 -23.333 13 -46c0 -22 -4.33301 -37.333 -13 -46
c-3.33301 -3.33301 -14.333 -8.33301 -33 -15c-18.667 -7.33301 -39.667 -14 -63 -20c-27.333 -7.33301 -50.666 -12.666 -69.999 -15.999c-19.333 -2.66699 -49 -4.66699 -89 -6c-16.667 -0.666992 -36.334 -1.33398 -59.001 -2.00098c-22 0 -48.333 -0.333008 -79 -1h-80
c-10 -0.666992 -19.667 -1 -29 -1c-10.667 0 -20.334 0.333008 -29.001 1c-40 0 -69.667 1.33301 -89 4c-20 2.66699 -43.667 7.33398 -71 14.001z" />
    <glyph glyph-name="degree" unicode="&#xb0;" horiz-adv-x="890" 
d="M488 1186c38 20 56.999 49 56.999 87c0 9.33301 -1 19.333 -3 30c-11.333 52.667 -43.666 79 -96.999 79c-40 0 -69.333 -17.333 -88 -52c-8.66699 -16 -13 -32 -13 -48c0 -18.667 5.66699 -37.667 17 -57c8.66699 -13.333 21.334 -25 38.001 -35
c17.333 -10.667 33.333 -16 48 -16c4.66699 0 11 1 19 3c7.33301 2.66699 14.666 5.66699 21.999 9zM318.999 980c-71.333 22.667 -129.999 58.332 -175.999 106.999c-45.333 48.667 -72 103.667 -80 165c-1.33301 10 -2 19.667 -2 29c0 54.667 18.667 107.667 56 159
c44 60.667 105 106.334 183 137.001c35.333 13.333 83.666 20 144.999 20s109.666 -6.66699 144.999 -20c58.667 -23.333 108 -55 148 -95c39.333 -40 66 -85.333 80 -136c6.66699 -22 10 -43.667 10 -65v-6c0 -51.333 -16.667 -101.333 -50 -150
c-49.333 -70.667 -121 -120 -215 -148c-29.333 -8.66699 -67.666 -13 -114.999 -13h-7c-51.333 0.666992 -92 6 -122 16z" />
    </font>
</defs>
</svg>
